ISO-10303-21;
HEADER;
/* Generated by software containing ST-Developer
 * from STEP Tools, Inc. (www.steptools.com) 
 */

FILE_DESCRIPTION(
/* description */ (''),
/* implementation_level */ '2;1');

FILE_NAME(
/* name */ 'Case Bottom.step',
/* time_stamp */ '2026-08-26T13:36:26-05:00',
/* author */ (''),
/* organization */ (''),
/* preprocessor_version */ 'ST-DEVELOPER v20.1',
/* originating_system */ 'Autodesk Translation Framework v15.8.0.0',
/* authorisation */ '');

FILE_SCHEMA (('AUTOMOTIVE_DESIGN { 1 0 10303 214 3 1 1 }'));
ENDSEC;

DATA;
#10=MECHANICAL_DESIGN_GEOMETRIC_PRESENTATION_REPRESENTATION('',(#13),#2245);
#11=SHAPE_REPRESENTATION_RELATIONSHIP('SRR','None',#2252,#12);
#12=ADVANCED_BREP_SHAPE_REPRESENTATION('',(#1409),#2244);
#13=STYLED_ITEM('',(#2261),#1409);
#14=FACE_BOUND('',#122,.T.);
#15=FACE_BOUND('',#123,.T.);
#16=FACE_BOUND('',#124,.T.);
#17=FACE_BOUND('',#125,.T.);
#18=FACE_BOUND('',#169,.T.);
#19=FACE_BOUND('',#170,.T.);
#20=FACE_BOUND('',#171,.T.);
#21=CIRCLE('',#1432,3.25);
#22=CIRCLE('',#1433,3.25);
#23=CIRCLE('',#1436,3.25);
#24=CIRCLE('',#1437,3.25);
#25=CIRCLE('',#1440,3.25);
#26=CIRCLE('',#1441,3.25);
#27=CYLINDRICAL_SURFACE('',#1431,3.25);
#28=CYLINDRICAL_SURFACE('',#1435,3.25);
#29=CYLINDRICAL_SURFACE('',#1439,3.25);
#30=ORIENTED_CLOSED_SHELL('',*,#1405,.F.);
#31=ORIENTED_CLOSED_SHELL('',*,#1407,.F.);
#32=ORIENTED_CLOSED_SHELL('',*,#1408,.F.);
#33=FACE_OUTER_BOUND('',#106,.T.);
#34=FACE_OUTER_BOUND('',#107,.T.);
#35=FACE_OUTER_BOUND('',#108,.T.);
#36=FACE_OUTER_BOUND('',#109,.T.);
#37=FACE_OUTER_BOUND('',#110,.T.);
#38=FACE_OUTER_BOUND('',#111,.T.);
#39=FACE_OUTER_BOUND('',#112,.T.);
#40=FACE_OUTER_BOUND('',#113,.T.);
#41=FACE_OUTER_BOUND('',#114,.T.);
#42=FACE_OUTER_BOUND('',#115,.T.);
#43=FACE_OUTER_BOUND('',#116,.T.);
#44=FACE_OUTER_BOUND('',#117,.T.);
#45=FACE_OUTER_BOUND('',#118,.T.);
#46=FACE_OUTER_BOUND('',#119,.T.);
#47=FACE_OUTER_BOUND('',#120,.T.);
#48=FACE_OUTER_BOUND('',#121,.T.);
#49=FACE_OUTER_BOUND('',#126,.T.);
#50=FACE_OUTER_BOUND('',#127,.T.);
#51=FACE_OUTER_BOUND('',#128,.T.);
#52=FACE_OUTER_BOUND('',#129,.T.);
#53=FACE_OUTER_BOUND('',#130,.T.);
#54=FACE_OUTER_BOUND('',#131,.T.);
#55=FACE_OUTER_BOUND('',#132,.T.);
#56=FACE_OUTER_BOUND('',#133,.T.);
#57=FACE_OUTER_BOUND('',#134,.T.);
#58=FACE_OUTER_BOUND('',#135,.T.);
#59=FACE_OUTER_BOUND('',#136,.T.);
#60=FACE_OUTER_BOUND('',#137,.T.);
#61=FACE_OUTER_BOUND('',#138,.T.);
#62=FACE_OUTER_BOUND('',#139,.T.);
#63=FACE_OUTER_BOUND('',#140,.T.);
#64=FACE_OUTER_BOUND('',#141,.T.);
#65=FACE_OUTER_BOUND('',#142,.T.);
#66=FACE_OUTER_BOUND('',#143,.T.);
#67=FACE_OUTER_BOUND('',#144,.T.);
#68=FACE_OUTER_BOUND('',#145,.T.);
#69=FACE_OUTER_BOUND('',#146,.T.);
#70=FACE_OUTER_BOUND('',#147,.T.);
#71=FACE_OUTER_BOUND('',#148,.T.);
#72=FACE_OUTER_BOUND('',#149,.T.);
#73=FACE_OUTER_BOUND('',#150,.T.);
#74=FACE_OUTER_BOUND('',#151,.T.);
#75=FACE_OUTER_BOUND('',#152,.T.);
#76=FACE_OUTER_BOUND('',#153,.T.);
#77=FACE_OUTER_BOUND('',#154,.T.);
#78=FACE_OUTER_BOUND('',#155,.T.);
#79=FACE_OUTER_BOUND('',#156,.T.);
#80=FACE_OUTER_BOUND('',#157,.T.);
#81=FACE_OUTER_BOUND('',#158,.T.);
#82=FACE_OUTER_BOUND('',#159,.T.);
#83=FACE_OUTER_BOUND('',#160,.T.);
#84=FACE_OUTER_BOUND('',#161,.T.);
#85=FACE_OUTER_BOUND('',#162,.T.);
#86=FACE_OUTER_BOUND('',#163,.T.);
#87=FACE_OUTER_BOUND('',#164,.T.);
#88=FACE_OUTER_BOUND('',#165,.T.);
#89=FACE_OUTER_BOUND('',#166,.T.);
#90=FACE_OUTER_BOUND('',#167,.T.);
#91=FACE_OUTER_BOUND('',#168,.T.);
#92=FACE_OUTER_BOUND('',#172,.T.);
#93=FACE_OUTER_BOUND('',#173,.T.);
#94=FACE_OUTER_BOUND('',#174,.T.);
#95=FACE_OUTER_BOUND('',#175,.T.);
#96=FACE_OUTER_BOUND('',#176,.T.);
#97=FACE_OUTER_BOUND('',#177,.T.);
#98=FACE_OUTER_BOUND('',#178,.T.);
#99=FACE_OUTER_BOUND('',#179,.T.);
#100=FACE_OUTER_BOUND('',#180,.T.);
#101=FACE_OUTER_BOUND('',#181,.T.);
#102=FACE_OUTER_BOUND('',#182,.T.);
#103=FACE_OUTER_BOUND('',#183,.T.);
#104=FACE_OUTER_BOUND('',#184,.T.);
#105=FACE_OUTER_BOUND('',#185,.T.);
#106=EDGE_LOOP('',(#878,#879,#880,#881));
#107=EDGE_LOOP('',(#882,#883,#884,#885));
#108=EDGE_LOOP('',(#886,#887,#888,#889));
#109=EDGE_LOOP('',(#890,#891,#892,#893));
#110=EDGE_LOOP('',(#894,#895,#896,#897));
#111=EDGE_LOOP('',(#898,#899,#900,#901));
#112=EDGE_LOOP('',(#902,#903,#904,#905));
#113=EDGE_LOOP('',(#906,#907,#908,#909,#910,#911));
#114=EDGE_LOOP('',(#912,#913,#914,#915));
#115=EDGE_LOOP('',(#916));
#116=EDGE_LOOP('',(#917,#918,#919,#920));
#117=EDGE_LOOP('',(#921));
#118=EDGE_LOOP('',(#922,#923,#924,#925));
#119=EDGE_LOOP('',(#926));
#120=EDGE_LOOP('',(#927,#928,#929,#930));
#121=EDGE_LOOP('',(#931,#932,#933,#934));
#122=EDGE_LOOP('',(#935,#936,#937,#938,#939,#940,#941,#942,#943,#944,#945,
#946));
#123=EDGE_LOOP('',(#947));
#124=EDGE_LOOP('',(#948));
#125=EDGE_LOOP('',(#949));
#126=EDGE_LOOP('',(#950,#951,#952,#953));
#127=EDGE_LOOP('',(#954,#955,#956,#957));
#128=EDGE_LOOP('',(#958,#959,#960,#961));
#129=EDGE_LOOP('',(#962,#963,#964,#965));
#130=EDGE_LOOP('',(#966,#967,#968,#969));
#131=EDGE_LOOP('',(#970,#971,#972,#973));
#132=EDGE_LOOP('',(#974,#975,#976,#977));
#133=EDGE_LOOP('',(#978,#979,#980,#981));
#134=EDGE_LOOP('',(#982,#983,#984,#985));
#135=EDGE_LOOP('',(#986,#987,#988,#989,#990,#991));
#136=EDGE_LOOP('',(#992,#993,#994,#995,#996,#997));
#137=EDGE_LOOP('',(#998,#999,#1000,#1001,#1002,#1003,#1004,#1005,#1006,
#1007,#1008,#1009));
#138=EDGE_LOOP('',(#1010,#1011,#1012,#1013,#1014,#1015,#1016,#1017,#1018,
#1019,#1020,#1021,#1022,#1023));
#139=EDGE_LOOP('',(#1024,#1025,#1026,#1027));
#140=EDGE_LOOP('',(#1028,#1029,#1030,#1031));
#141=EDGE_LOOP('',(#1032,#1033,#1034,#1035,#1036,#1037,#1038,#1039,#1040,
#1041,#1042,#1043,#1044,#1045,#1046,#1047));
#142=EDGE_LOOP('',(#1048,#1049,#1050,#1051));
#143=EDGE_LOOP('',(#1052,#1053,#1054,#1055,#1056,#1057));
#144=EDGE_LOOP('',(#1058,#1059,#1060,#1061));
#145=EDGE_LOOP('',(#1062,#1063,#1064,#1065));
#146=EDGE_LOOP('',(#1066,#1067,#1068,#1069));
#147=EDGE_LOOP('',(#1070,#1071,#1072,#1073));
#148=EDGE_LOOP('',(#1074,#1075,#1076,#1077));
#149=EDGE_LOOP('',(#1078,#1079,#1080,#1081));
#150=EDGE_LOOP('',(#1082,#1083,#1084,#1085));
#151=EDGE_LOOP('',(#1086,#1087,#1088,#1089));
#152=EDGE_LOOP('',(#1090,#1091,#1092,#1093));
#153=EDGE_LOOP('',(#1094,#1095,#1096,#1097));
#154=EDGE_LOOP('',(#1098,#1099,#1100,#1101));
#155=EDGE_LOOP('',(#1102,#1103,#1104,#1105));
#156=EDGE_LOOP('',(#1106,#1107,#1108,#1109));
#157=EDGE_LOOP('',(#1110,#1111,#1112,#1113));
#158=EDGE_LOOP('',(#1114,#1115,#1116,#1117));
#159=EDGE_LOOP('',(#1118,#1119,#1120,#1121,#1122,#1123));
#160=EDGE_LOOP('',(#1124,#1125,#1126,#1127));
#161=EDGE_LOOP('',(#1128,#1129,#1130,#1131));
#162=EDGE_LOOP('',(#1132,#1133,#1134,#1135,#1136,#1137));
#163=EDGE_LOOP('',(#1138,#1139,#1140,#1141));
#164=EDGE_LOOP('',(#1142,#1143,#1144,#1145,#1146,#1147,#1148,#1149,#1150,
#1151,#1152,#1153,#1154,#1155,#1156,#1157));
#165=EDGE_LOOP('',(#1158,#1159,#1160,#1161,#1162,#1163,#1164,#1165,#1166,
#1167,#1168,#1169,#1170,#1171,#1172,#1173,#1174,#1175,#1176,#1177,#1178,
#1179,#1180,#1181));
#166=EDGE_LOOP('',(#1182,#1183,#1184,#1185));
#167=EDGE_LOOP('',(#1186,#1187,#1188,#1189));
#168=EDGE_LOOP('',(#1190,#1191,#1192,#1193));
#169=EDGE_LOOP('',(#1194,#1195,#1196,#1197));
#170=EDGE_LOOP('',(#1198,#1199,#1200,#1201));
#171=EDGE_LOOP('',(#1202,#1203,#1204,#1205));
#172=EDGE_LOOP('',(#1206,#1207,#1208,#1209));
#173=EDGE_LOOP('',(#1210,#1211,#1212,#1213));
#174=EDGE_LOOP('',(#1214,#1215,#1216,#1217));
#175=EDGE_LOOP('',(#1218,#1219,#1220,#1221));
#176=EDGE_LOOP('',(#1222,#1223,#1224,#1225));
#177=EDGE_LOOP('',(#1226,#1227,#1228,#1229));
#178=EDGE_LOOP('',(#1230,#1231,#1232,#1233));
#179=EDGE_LOOP('',(#1234,#1235,#1236,#1237));
#180=EDGE_LOOP('',(#1238,#1239,#1240,#1241));
#181=EDGE_LOOP('',(#1242,#1243,#1244,#1245));
#182=EDGE_LOOP('',(#1246,#1247,#1248,#1249));
#183=EDGE_LOOP('',(#1250,#1251,#1252,#1253));
#184=EDGE_LOOP('',(#1254,#1255,#1256,#1257));
#185=EDGE_LOOP('',(#1258,#1259,#1260,#1261));
#186=LINE('',#1852,#372);
#187=LINE('',#1854,#373);
#188=LINE('',#1856,#374);
#189=LINE('',#1857,#375);
#190=LINE('',#1861,#376);
#191=LINE('',#1862,#377);
#192=LINE('',#1863,#378);
#193=LINE('',#1866,#379);
#194=LINE('',#1867,#380);
#195=LINE('',#1870,#381);
#196=LINE('',#1871,#382);
#197=LINE('',#1873,#383);
#198=LINE('',#1878,#384);
#199=LINE('',#1880,#385);
#200=LINE('',#1882,#386);
#201=LINE('',#1883,#387);
#202=LINE('',#1886,#388);
#203=LINE('',#1888,#389);
#204=LINE('',#1890,#390);
#205=LINE('',#1892,#391);
#206=LINE('',#1893,#392);
#207=LINE('',#1898,#393);
#208=LINE('',#1905,#394);
#209=LINE('',#1912,#395);
#210=LINE('',#1918,#396);
#211=LINE('',#1920,#397);
#212=LINE('',#1922,#398);
#213=LINE('',#1923,#399);
#214=LINE('',#1927,#400);
#215=LINE('',#1929,#401);
#216=LINE('',#1931,#402);
#217=LINE('',#1932,#403);
#218=LINE('',#1934,#404);
#219=LINE('',#1936,#405);
#220=LINE('',#1938,#406);
#221=LINE('',#1940,#407);
#222=LINE('',#1942,#408);
#223=LINE('',#1944,#409);
#224=LINE('',#1945,#410);
#225=LINE('',#1947,#411);
#226=LINE('',#1949,#412);
#227=LINE('',#1950,#413);
#228=LINE('',#1953,#414);
#229=LINE('',#1955,#415);
#230=LINE('',#1956,#416);
#231=LINE('',#1960,#417);
#232=LINE('',#1962,#418);
#233=LINE('',#1964,#419);
#234=LINE('',#1965,#420);
#235=LINE('',#1969,#421);
#236=LINE('',#1971,#422);
#237=LINE('',#1973,#423);
#238=LINE('',#1974,#424);
#239=LINE('',#1977,#425);
#240=LINE('',#1979,#426);
#241=LINE('',#1980,#427);
#242=LINE('',#1982,#428);
#243=LINE('',#1983,#429);
#244=LINE('',#1987,#430);
#245=LINE('',#1989,#431);
#246=LINE('',#1991,#432);
#247=LINE('',#1992,#433);
#248=LINE('',#1995,#434);
#249=LINE('',#1997,#435);
#250=LINE('',#1998,#436);
#251=LINE('',#2001,#437);
#252=LINE('',#2003,#438);
#253=LINE('',#2004,#439);
#254=LINE('',#2007,#440);
#255=LINE('',#2009,#441);
#256=LINE('',#2010,#442);
#257=LINE('',#2012,#443);
#258=LINE('',#2013,#444);
#259=LINE('',#2016,#445);
#260=LINE('',#2017,#446);
#261=LINE('',#2018,#447);
#262=LINE('',#2021,#448);
#263=LINE('',#2023,#449);
#264=LINE('',#2025,#450);
#265=LINE('',#2027,#451);
#266=LINE('',#2029,#452);
#267=LINE('',#2031,#453);
#268=LINE('',#2032,#454);
#269=LINE('',#2035,#455);
#270=LINE('',#2037,#456);
#271=LINE('',#2039,#457);
#272=LINE('',#2040,#458);
#273=LINE('',#2042,#459);
#274=LINE('',#2043,#460);
#275=LINE('',#2046,#461);
#276=LINE('',#2047,#462);
#277=LINE('',#2050,#463);
#278=LINE('',#2051,#464);
#279=LINE('',#2055,#465);
#280=LINE('',#2056,#466);
#281=LINE('',#2057,#467);
#282=LINE('',#2060,#468);
#283=LINE('',#2062,#469);
#284=LINE('',#2063,#470);
#285=LINE('',#2066,#471);
#286=LINE('',#2067,#472);
#287=LINE('',#2071,#473);
#288=LINE('',#2073,#474);
#289=LINE('',#2075,#475);
#290=LINE('',#2076,#476);
#291=LINE('',#2079,#477);
#292=LINE('',#2081,#478);
#293=LINE('',#2082,#479);
#294=LINE('',#2085,#480);
#295=LINE('',#2087,#481);
#296=LINE('',#2088,#482);
#297=LINE('',#2092,#483);
#298=LINE('',#2094,#484);
#299=LINE('',#2096,#485);
#300=LINE('',#2097,#486);
#301=LINE('',#2100,#487);
#302=LINE('',#2102,#488);
#303=LINE('',#2103,#489);
#304=LINE('',#2106,#490);
#305=LINE('',#2108,#491);
#306=LINE('',#2109,#492);
#307=LINE('',#2113,#493);
#308=LINE('',#2115,#494);
#309=LINE('',#2117,#495);
#310=LINE('',#2118,#496);
#311=LINE('',#2121,#497);
#312=LINE('',#2123,#498);
#313=LINE('',#2124,#499);
#314=LINE('',#2127,#500);
#315=LINE('',#2129,#501);
#316=LINE('',#2130,#502);
#317=LINE('',#2133,#503);
#318=LINE('',#2135,#504);
#319=LINE('',#2136,#505);
#320=LINE('',#2138,#506);
#321=LINE('',#2141,#507);
#322=LINE('',#2143,#508);
#323=LINE('',#2145,#509);
#324=LINE('',#2147,#510);
#325=LINE('',#2150,#511);
#326=LINE('',#2151,#512);
#327=LINE('',#2154,#513);
#328=LINE('',#2155,#514);
#329=LINE('',#2158,#515);
#330=LINE('',#2159,#516);
#331=LINE('',#2162,#517);
#332=LINE('',#2163,#518);
#333=LINE('',#2165,#519);
#334=LINE('',#2166,#520);
#335=LINE('',#2167,#521);
#336=LINE('',#2168,#522);
#337=LINE('',#2170,#523);
#338=LINE('',#2171,#524);
#339=LINE('',#2172,#525);
#340=LINE('',#2176,#526);
#341=LINE('',#2177,#527);
#342=LINE('',#2178,#528);
#343=LINE('',#2181,#529);
#344=LINE('',#2182,#530);
#345=LINE('',#2185,#531);
#346=LINE('',#2186,#532);
#347=LINE('',#2188,#533);
#348=LINE('',#2193,#534);
#349=LINE('',#2195,#535);
#350=LINE('',#2197,#536);
#351=LINE('',#2198,#537);
#352=LINE('',#2202,#538);
#353=LINE('',#2203,#539);
#354=LINE('',#2204,#540);
#355=LINE('',#2207,#541);
#356=LINE('',#2208,#542);
#357=LINE('',#2211,#543);
#358=LINE('',#2212,#544);
#359=LINE('',#2214,#545);
#360=LINE('',#2219,#546);
#361=LINE('',#2221,#547);
#362=LINE('',#2223,#548);
#363=LINE('',#2224,#549);
#364=LINE('',#2228,#550);
#365=LINE('',#2229,#551);
#366=LINE('',#2230,#552);
#367=LINE('',#2233,#553);
#368=LINE('',#2234,#554);
#369=LINE('',#2237,#555);
#370=LINE('',#2238,#556);
#371=LINE('',#2240,#557);
#372=VECTOR('',#1506,10.);
#373=VECTOR('',#1507,10.);
#374=VECTOR('',#1508,10.);
#375=VECTOR('',#1509,10.);
#376=VECTOR('',#1512,10.);
#377=VECTOR('',#1513,10.);
#378=VECTOR('',#1514,10.);
#379=VECTOR('',#1517,10.);
#380=VECTOR('',#1518,10.);
#381=VECTOR('',#1521,10.);
#382=VECTOR('',#1522,10.);
#383=VECTOR('',#1525,10.);
#384=VECTOR('',#1530,10.);
#385=VECTOR('',#1531,10.);
#386=VECTOR('',#1532,10.);
#387=VECTOR('',#1533,10.);
#388=VECTOR('',#1536,10.);
#389=VECTOR('',#1537,10.);
#390=VECTOR('',#1538,10.);
#391=VECTOR('',#1539,10.);
#392=VECTOR('',#1540,10.);
#393=VECTOR('',#1545,3.25);
#394=VECTOR('',#1554,3.25);
#395=VECTOR('',#1563,3.25);
#396=VECTOR('',#1570,10.);
#397=VECTOR('',#1571,10.);
#398=VECTOR('',#1572,10.);
#399=VECTOR('',#1573,10.);
#400=VECTOR('',#1576,10.);
#401=VECTOR('',#1577,10.);
#402=VECTOR('',#1578,10.);
#403=VECTOR('',#1579,10.);
#404=VECTOR('',#1580,10.);
#405=VECTOR('',#1581,10.);
#406=VECTOR('',#1582,10.);
#407=VECTOR('',#1583,10.);
#408=VECTOR('',#1584,10.);
#409=VECTOR('',#1585,10.);
#410=VECTOR('',#1586,10.);
#411=VECTOR('',#1587,10.);
#412=VECTOR('',#1588,10.);
#413=VECTOR('',#1589,10.);
#414=VECTOR('',#1592,10.);
#415=VECTOR('',#1593,10.);
#416=VECTOR('',#1594,10.);
#417=VECTOR('',#1597,10.);
#418=VECTOR('',#1598,10.);
#419=VECTOR('',#1599,10.);
#420=VECTOR('',#1600,10.);
#421=VECTOR('',#1603,10.);
#422=VECTOR('',#1604,10.);
#423=VECTOR('',#1605,10.);
#424=VECTOR('',#1606,10.);
#425=VECTOR('',#1609,10.);
#426=VECTOR('',#1610,10.);
#427=VECTOR('',#1611,10.);
#428=VECTOR('',#1614,10.);
#429=VECTOR('',#1615,10.);
#430=VECTOR('',#1618,10.);
#431=VECTOR('',#1619,10.);
#432=VECTOR('',#1620,10.);
#433=VECTOR('',#1621,10.);
#434=VECTOR('',#1624,10.);
#435=VECTOR('',#1625,10.);
#436=VECTOR('',#1626,10.);
#437=VECTOR('',#1629,10.);
#438=VECTOR('',#1630,10.);
#439=VECTOR('',#1631,10.);
#440=VECTOR('',#1634,10.);
#441=VECTOR('',#1635,10.);
#442=VECTOR('',#1636,10.);
#443=VECTOR('',#1639,10.);
#444=VECTOR('',#1640,10.);
#445=VECTOR('',#1643,10.);
#446=VECTOR('',#1644,10.);
#447=VECTOR('',#1645,10.);
#448=VECTOR('',#1648,10.);
#449=VECTOR('',#1649,10.);
#450=VECTOR('',#1650,10.);
#451=VECTOR('',#1651,10.);
#452=VECTOR('',#1652,10.);
#453=VECTOR('',#1653,10.);
#454=VECTOR('',#1654,10.);
#455=VECTOR('',#1657,10.);
#456=VECTOR('',#1658,10.);
#457=VECTOR('',#1659,10.);
#458=VECTOR('',#1660,10.);
#459=VECTOR('',#1661,10.);
#460=VECTOR('',#1662,10.);
#461=VECTOR('',#1665,10.);
#462=VECTOR('',#1666,10.);
#463=VECTOR('',#1669,10.);
#464=VECTOR('',#1670,10.);
#465=VECTOR('',#1673,10.);
#466=VECTOR('',#1674,10.);
#467=VECTOR('',#1675,10.);
#468=VECTOR('',#1678,10.);
#469=VECTOR('',#1679,10.);
#470=VECTOR('',#1680,10.);
#471=VECTOR('',#1683,10.);
#472=VECTOR('',#1684,10.);
#473=VECTOR('',#1687,10.);
#474=VECTOR('',#1688,10.);
#475=VECTOR('',#1689,10.);
#476=VECTOR('',#1690,10.);
#477=VECTOR('',#1693,10.);
#478=VECTOR('',#1694,10.);
#479=VECTOR('',#1695,10.);
#480=VECTOR('',#1698,10.);
#481=VECTOR('',#1699,10.);
#482=VECTOR('',#1700,10.);
#483=VECTOR('',#1703,10.);
#484=VECTOR('',#1704,10.);
#485=VECTOR('',#1705,10.);
#486=VECTOR('',#1706,10.);
#487=VECTOR('',#1709,10.);
#488=VECTOR('',#1710,10.);
#489=VECTOR('',#1711,10.);
#490=VECTOR('',#1714,10.);
#491=VECTOR('',#1715,10.);
#492=VECTOR('',#1716,10.);
#493=VECTOR('',#1719,10.);
#494=VECTOR('',#1720,10.);
#495=VECTOR('',#1721,10.);
#496=VECTOR('',#1722,10.);
#497=VECTOR('',#1725,10.);
#498=VECTOR('',#1726,10.);
#499=VECTOR('',#1727,10.);
#500=VECTOR('',#1730,10.);
#501=VECTOR('',#1731,10.);
#502=VECTOR('',#1732,10.);
#503=VECTOR('',#1735,10.);
#504=VECTOR('',#1736,10.);
#505=VECTOR('',#1737,10.);
#506=VECTOR('',#1740,10.);
#507=VECTOR('',#1745,10.);
#508=VECTOR('',#1748,10.);
#509=VECTOR('',#1751,10.);
#510=VECTOR('',#1754,10.);
#511=VECTOR('',#1757,10.);
#512=VECTOR('',#1758,10.);
#513=VECTOR('',#1761,10.);
#514=VECTOR('',#1762,10.);
#515=VECTOR('',#1765,10.);
#516=VECTOR('',#1766,10.);
#517=VECTOR('',#1769,10.);
#518=VECTOR('',#1770,10.);
#519=VECTOR('',#1773,10.);
#520=VECTOR('',#1774,10.);
#521=VECTOR('',#1775,10.);
#522=VECTOR('',#1776,10.);
#523=VECTOR('',#1779,10.);
#524=VECTOR('',#1780,10.);
#525=VECTOR('',#1781,10.);
#526=VECTOR('',#1784,10.);
#527=VECTOR('',#1785,10.);
#528=VECTOR('',#1786,10.);
#529=VECTOR('',#1789,10.);
#530=VECTOR('',#1790,10.);
#531=VECTOR('',#1793,10.);
#532=VECTOR('',#1794,10.);
#533=VECTOR('',#1797,10.);
#534=VECTOR('',#1802,10.);
#535=VECTOR('',#1803,10.);
#536=VECTOR('',#1804,10.);
#537=VECTOR('',#1805,10.);
#538=VECTOR('',#1808,10.);
#539=VECTOR('',#1809,10.);
#540=VECTOR('',#1810,10.);
#541=VECTOR('',#1813,10.);
#542=VECTOR('',#1814,10.);
#543=VECTOR('',#1817,10.);
#544=VECTOR('',#1818,10.);
#545=VECTOR('',#1821,10.);
#546=VECTOR('',#1826,10.);
#547=VECTOR('',#1827,10.);
#548=VECTOR('',#1828,10.);
#549=VECTOR('',#1829,10.);
#550=VECTOR('',#1832,10.);
#551=VECTOR('',#1833,10.);
#552=VECTOR('',#1834,10.);
#553=VECTOR('',#1837,10.);
#554=VECTOR('',#1838,10.);
#555=VECTOR('',#1841,10.);
#556=VECTOR('',#1842,10.);
#557=VECTOR('',#1845,10.);
#558=VERTEX_POINT('',#1850);
#559=VERTEX_POINT('',#1851);
#560=VERTEX_POINT('',#1853);
#561=VERTEX_POINT('',#1855);
#562=VERTEX_POINT('',#1859);
#563=VERTEX_POINT('',#1860);
#564=VERTEX_POINT('',#1865);
#565=VERTEX_POINT('',#1869);
#566=VERTEX_POINT('',#1876);
#567=VERTEX_POINT('',#1877);
#568=VERTEX_POINT('',#1879);
#569=VERTEX_POINT('',#1881);
#570=VERTEX_POINT('',#1885);
#571=VERTEX_POINT('',#1887);
#572=VERTEX_POINT('',#1889);
#573=VERTEX_POINT('',#1891);
#574=VERTEX_POINT('',#1895);
#575=VERTEX_POINT('',#1897);
#576=VERTEX_POINT('',#1902);
#577=VERTEX_POINT('',#1904);
#578=VERTEX_POINT('',#1909);
#579=VERTEX_POINT('',#1911);
#580=VERTEX_POINT('',#1916);
#581=VERTEX_POINT('',#1917);
#582=VERTEX_POINT('',#1919);
#583=VERTEX_POINT('',#1921);
#584=VERTEX_POINT('',#1925);
#585=VERTEX_POINT('',#1926);
#586=VERTEX_POINT('',#1928);
#587=VERTEX_POINT('',#1930);
#588=VERTEX_POINT('',#1933);
#589=VERTEX_POINT('',#1935);
#590=VERTEX_POINT('',#1937);
#591=VERTEX_POINT('',#1939);
#592=VERTEX_POINT('',#1941);
#593=VERTEX_POINT('',#1943);
#594=VERTEX_POINT('',#1946);
#595=VERTEX_POINT('',#1948);
#596=VERTEX_POINT('',#1952);
#597=VERTEX_POINT('',#1954);
#598=VERTEX_POINT('',#1958);
#599=VERTEX_POINT('',#1959);
#600=VERTEX_POINT('',#1961);
#601=VERTEX_POINT('',#1963);
#602=VERTEX_POINT('',#1967);
#603=VERTEX_POINT('',#1968);
#604=VERTEX_POINT('',#1970);
#605=VERTEX_POINT('',#1972);
#606=VERTEX_POINT('',#1976);
#607=VERTEX_POINT('',#1978);
#608=VERTEX_POINT('',#1985);
#609=VERTEX_POINT('',#1986);
#610=VERTEX_POINT('',#1988);
#611=VERTEX_POINT('',#1990);
#612=VERTEX_POINT('',#1994);
#613=VERTEX_POINT('',#1996);
#614=VERTEX_POINT('',#2000);
#615=VERTEX_POINT('',#2002);
#616=VERTEX_POINT('',#2006);
#617=VERTEX_POINT('',#2008);
#618=VERTEX_POINT('',#2015);
#619=VERTEX_POINT('',#2020);
#620=VERTEX_POINT('',#2022);
#621=VERTEX_POINT('',#2024);
#622=VERTEX_POINT('',#2026);
#623=VERTEX_POINT('',#2028);
#624=VERTEX_POINT('',#2030);
#625=VERTEX_POINT('',#2034);
#626=VERTEX_POINT('',#2036);
#627=VERTEX_POINT('',#2038);
#628=VERTEX_POINT('',#2041);
#629=VERTEX_POINT('',#2045);
#630=VERTEX_POINT('',#2049);
#631=VERTEX_POINT('',#2053);
#632=VERTEX_POINT('',#2054);
#633=VERTEX_POINT('',#2059);
#634=VERTEX_POINT('',#2061);
#635=VERTEX_POINT('',#2065);
#636=VERTEX_POINT('',#2069);
#637=VERTEX_POINT('',#2070);
#638=VERTEX_POINT('',#2072);
#639=VERTEX_POINT('',#2074);
#640=VERTEX_POINT('',#2078);
#641=VERTEX_POINT('',#2080);
#642=VERTEX_POINT('',#2084);
#643=VERTEX_POINT('',#2086);
#644=VERTEX_POINT('',#2090);
#645=VERTEX_POINT('',#2091);
#646=VERTEX_POINT('',#2093);
#647=VERTEX_POINT('',#2095);
#648=VERTEX_POINT('',#2099);
#649=VERTEX_POINT('',#2101);
#650=VERTEX_POINT('',#2105);
#651=VERTEX_POINT('',#2107);
#652=VERTEX_POINT('',#2111);
#653=VERTEX_POINT('',#2112);
#654=VERTEX_POINT('',#2114);
#655=VERTEX_POINT('',#2116);
#656=VERTEX_POINT('',#2120);
#657=VERTEX_POINT('',#2122);
#658=VERTEX_POINT('',#2126);
#659=VERTEX_POINT('',#2128);
#660=VERTEX_POINT('',#2132);
#661=VERTEX_POINT('',#2134);
#662=VERTEX_POINT('',#2149);
#663=VERTEX_POINT('',#2153);
#664=VERTEX_POINT('',#2157);
#665=VERTEX_POINT('',#2161);
#666=VERTEX_POINT('',#2174);
#667=VERTEX_POINT('',#2175);
#668=VERTEX_POINT('',#2180);
#669=VERTEX_POINT('',#2184);
#670=VERTEX_POINT('',#2191);
#671=VERTEX_POINT('',#2192);
#672=VERTEX_POINT('',#2194);
#673=VERTEX_POINT('',#2196);
#674=VERTEX_POINT('',#2200);
#675=VERTEX_POINT('',#2201);
#676=VERTEX_POINT('',#2206);
#677=VERTEX_POINT('',#2210);
#678=VERTEX_POINT('',#2217);
#679=VERTEX_POINT('',#2218);
#680=VERTEX_POINT('',#2220);
#681=VERTEX_POINT('',#2222);
#682=VERTEX_POINT('',#2226);
#683=VERTEX_POINT('',#2227);
#684=VERTEX_POINT('',#2232);
#685=VERTEX_POINT('',#2236);
#686=EDGE_CURVE('',#558,#559,#186,.T.);
#687=EDGE_CURVE('',#560,#558,#187,.T.);
#688=EDGE_CURVE('',#561,#560,#188,.T.);
#689=EDGE_CURVE('',#559,#561,#189,.T.);
#690=EDGE_CURVE('',#562,#563,#190,.T.);
#691=EDGE_CURVE('',#563,#558,#191,.T.);
#692=EDGE_CURVE('',#562,#559,#192,.T.);
#693=EDGE_CURVE('',#563,#564,#193,.T.);
#694=EDGE_CURVE('',#564,#560,#194,.T.);
#695=EDGE_CURVE('',#565,#562,#195,.T.);
#696=EDGE_CURVE('',#565,#561,#196,.T.);
#697=EDGE_CURVE('',#564,#565,#197,.T.);
#698=EDGE_CURVE('',#566,#567,#198,.T.);
#699=EDGE_CURVE('',#568,#567,#199,.T.);
#700=EDGE_CURVE('',#569,#568,#200,.T.);
#701=EDGE_CURVE('',#566,#569,#201,.T.);
#702=EDGE_CURVE('',#570,#566,#202,.T.);
#703=EDGE_CURVE('',#571,#569,#203,.T.);
#704=EDGE_CURVE('',#572,#571,#204,.T.);
#705=EDGE_CURVE('',#573,#572,#205,.T.);
#706=EDGE_CURVE('',#573,#570,#206,.T.);
#707=EDGE_CURVE('',#574,#574,#21,.T.);
#708=EDGE_CURVE('',#574,#575,#207,.T.);
#709=EDGE_CURVE('',#575,#575,#22,.T.);
#710=EDGE_CURVE('',#576,#576,#23,.T.);
#711=EDGE_CURVE('',#576,#577,#208,.T.);
#712=EDGE_CURVE('',#577,#577,#24,.T.);
#713=EDGE_CURVE('',#578,#578,#25,.T.);
#714=EDGE_CURVE('',#578,#579,#209,.T.);
#715=EDGE_CURVE('',#579,#579,#26,.T.);
#716=EDGE_CURVE('',#580,#581,#210,.T.);
#717=EDGE_CURVE('',#582,#580,#211,.T.);
#718=EDGE_CURVE('',#582,#583,#212,.T.);
#719=EDGE_CURVE('',#583,#581,#213,.T.);
#720=EDGE_CURVE('',#584,#585,#214,.T.);
#721=EDGE_CURVE('',#585,#586,#215,.T.);
#722=EDGE_CURVE('',#586,#587,#216,.T.);
#723=EDGE_CURVE('',#587,#584,#217,.T.);
#724=EDGE_CURVE('',#588,#573,#218,.T.);
#725=EDGE_CURVE('',#572,#589,#219,.T.);
#726=EDGE_CURVE('',#589,#590,#220,.T.);
#727=EDGE_CURVE('',#590,#591,#221,.T.);
#728=EDGE_CURVE('',#591,#592,#222,.T.);
#729=EDGE_CURVE('',#592,#593,#223,.T.);
#730=EDGE_CURVE('',#593,#582,#224,.T.);
#731=EDGE_CURVE('',#580,#594,#225,.T.);
#732=EDGE_CURVE('',#594,#595,#226,.T.);
#733=EDGE_CURVE('',#595,#588,#227,.T.);
#734=EDGE_CURVE('',#594,#596,#228,.T.);
#735=EDGE_CURVE('',#596,#597,#229,.T.);
#736=EDGE_CURVE('',#595,#597,#230,.T.);
#737=EDGE_CURVE('',#598,#599,#231,.T.);
#738=EDGE_CURVE('',#599,#600,#232,.T.);
#739=EDGE_CURVE('',#601,#600,#233,.T.);
#740=EDGE_CURVE('',#598,#601,#234,.T.);
#741=EDGE_CURVE('',#602,#603,#235,.T.);
#742=EDGE_CURVE('',#602,#604,#236,.T.);
#743=EDGE_CURVE('',#604,#605,#237,.T.);
#744=EDGE_CURVE('',#603,#605,#238,.T.);
#745=EDGE_CURVE('',#606,#602,#239,.T.);
#746=EDGE_CURVE('',#606,#607,#240,.T.);
#747=EDGE_CURVE('',#607,#604,#241,.T.);
#748=EDGE_CURVE('',#601,#606,#242,.T.);
#749=EDGE_CURVE('',#600,#607,#243,.T.);
#750=EDGE_CURVE('',#608,#609,#244,.T.);
#751=EDGE_CURVE('',#608,#610,#245,.T.);
#752=EDGE_CURVE('',#610,#611,#246,.T.);
#753=EDGE_CURVE('',#609,#611,#247,.T.);
#754=EDGE_CURVE('',#612,#608,#248,.T.);
#755=EDGE_CURVE('',#612,#613,#249,.T.);
#756=EDGE_CURVE('',#613,#610,#250,.T.);
#757=EDGE_CURVE('',#614,#612,#251,.T.);
#758=EDGE_CURVE('',#614,#615,#252,.T.);
#759=EDGE_CURVE('',#615,#613,#253,.T.);
#760=EDGE_CURVE('',#616,#614,#254,.T.);
#761=EDGE_CURVE('',#616,#617,#255,.T.);
#762=EDGE_CURVE('',#617,#615,#256,.T.);
#763=EDGE_CURVE('',#596,#616,#257,.T.);
#764=EDGE_CURVE('',#581,#617,#258,.T.);
#765=EDGE_CURVE('',#603,#618,#259,.T.);
#766=EDGE_CURVE('',#605,#583,#260,.T.);
#767=EDGE_CURVE('',#618,#593,#261,.T.);
#768=EDGE_CURVE('',#619,#618,#262,.T.);
#769=EDGE_CURVE('',#620,#619,#263,.T.);
#770=EDGE_CURVE('',#621,#620,#264,.T.);
#771=EDGE_CURVE('',#622,#621,#265,.T.);
#772=EDGE_CURVE('',#623,#622,#266,.T.);
#773=EDGE_CURVE('',#624,#623,#267,.T.);
#774=EDGE_CURVE('',#624,#598,#268,.T.);
#775=EDGE_CURVE('',#609,#625,#269,.T.);
#776=EDGE_CURVE('',#626,#625,#270,.T.);
#777=EDGE_CURVE('',#627,#626,#271,.T.);
#778=EDGE_CURVE('',#627,#567,#272,.T.);
#779=EDGE_CURVE('',#628,#570,#273,.T.);
#780=EDGE_CURVE('',#597,#628,#274,.T.);
#781=EDGE_CURVE('',#629,#624,#275,.T.);
#782=EDGE_CURVE('',#629,#599,#276,.T.);
#783=EDGE_CURVE('',#625,#630,#277,.T.);
#784=EDGE_CURVE('',#611,#630,#278,.T.);
#785=EDGE_CURVE('',#631,#632,#279,.T.);
#786=EDGE_CURVE('',#630,#631,#280,.T.);
#787=EDGE_CURVE('',#632,#629,#281,.T.);
#788=EDGE_CURVE('',#633,#632,#282,.T.);
#789=EDGE_CURVE('',#633,#634,#283,.T.);
#790=EDGE_CURVE('',#631,#634,#284,.T.);
#791=EDGE_CURVE('',#623,#635,#285,.T.);
#792=EDGE_CURVE('',#635,#633,#286,.T.);
#793=EDGE_CURVE('',#636,#637,#287,.T.);
#794=EDGE_CURVE('',#636,#638,#288,.T.);
#795=EDGE_CURVE('',#639,#638,#289,.T.);
#796=EDGE_CURVE('',#637,#639,#290,.T.);
#797=EDGE_CURVE('',#640,#636,#291,.T.);
#798=EDGE_CURVE('',#640,#641,#292,.T.);
#799=EDGE_CURVE('',#638,#641,#293,.T.);
#800=EDGE_CURVE('',#642,#640,#294,.T.);
#801=EDGE_CURVE('',#642,#643,#295,.T.);
#802=EDGE_CURVE('',#641,#643,#296,.T.);
#803=EDGE_CURVE('',#644,#645,#297,.T.);
#804=EDGE_CURVE('',#644,#646,#298,.T.);
#805=EDGE_CURVE('',#647,#646,#299,.T.);
#806=EDGE_CURVE('',#645,#647,#300,.T.);
#807=EDGE_CURVE('',#648,#644,#301,.T.);
#808=EDGE_CURVE('',#648,#649,#302,.T.);
#809=EDGE_CURVE('',#646,#649,#303,.T.);
#810=EDGE_CURVE('',#650,#648,#304,.T.);
#811=EDGE_CURVE('',#650,#651,#305,.T.);
#812=EDGE_CURVE('',#649,#651,#306,.T.);
#813=EDGE_CURVE('',#652,#653,#307,.T.);
#814=EDGE_CURVE('',#652,#654,#308,.T.);
#815=EDGE_CURVE('',#655,#654,#309,.T.);
#816=EDGE_CURVE('',#653,#655,#310,.T.);
#817=EDGE_CURVE('',#656,#652,#311,.T.);
#818=EDGE_CURVE('',#656,#657,#312,.T.);
#819=EDGE_CURVE('',#654,#657,#313,.T.);
#820=EDGE_CURVE('',#658,#656,#314,.T.);
#821=EDGE_CURVE('',#658,#659,#315,.T.);
#822=EDGE_CURVE('',#657,#659,#316,.T.);
#823=EDGE_CURVE('',#660,#627,#317,.T.);
#824=EDGE_CURVE('',#626,#661,#318,.T.);
#825=EDGE_CURVE('',#661,#660,#319,.T.);
#826=EDGE_CURVE('',#588,#628,#320,.T.);
#827=EDGE_CURVE('',#592,#619,#321,.T.);
#828=EDGE_CURVE('',#620,#591,#322,.T.);
#829=EDGE_CURVE('',#660,#568,#323,.T.);
#830=EDGE_CURVE('',#634,#661,#324,.T.);
#831=EDGE_CURVE('',#622,#662,#325,.T.);
#832=EDGE_CURVE('',#662,#635,#326,.T.);
#833=EDGE_CURVE('',#621,#663,#327,.T.);
#834=EDGE_CURVE('',#663,#662,#328,.T.);
#835=EDGE_CURVE('',#590,#664,#329,.T.);
#836=EDGE_CURVE('',#664,#663,#330,.T.);
#837=EDGE_CURVE('',#589,#665,#331,.T.);
#838=EDGE_CURVE('',#665,#664,#332,.T.);
#839=EDGE_CURVE('',#571,#655,#333,.T.);
#840=EDGE_CURVE('',#659,#647,#334,.T.);
#841=EDGE_CURVE('',#651,#639,#335,.T.);
#842=EDGE_CURVE('',#643,#665,#336,.T.);
#843=EDGE_CURVE('',#637,#642,#337,.T.);
#844=EDGE_CURVE('',#645,#650,#338,.T.);
#845=EDGE_CURVE('',#653,#658,#339,.T.);
#846=EDGE_CURVE('',#666,#667,#340,.T.);
#847=EDGE_CURVE('',#666,#584,#341,.T.);
#848=EDGE_CURVE('',#667,#587,#342,.T.);
#849=EDGE_CURVE('',#667,#668,#343,.T.);
#850=EDGE_CURVE('',#668,#586,#344,.T.);
#851=EDGE_CURVE('',#668,#669,#345,.T.);
#852=EDGE_CURVE('',#669,#585,#346,.T.);
#853=EDGE_CURVE('',#669,#666,#347,.T.);
#854=EDGE_CURVE('',#670,#671,#348,.T.);
#855=EDGE_CURVE('',#672,#670,#349,.T.);
#856=EDGE_CURVE('',#673,#672,#350,.T.);
#857=EDGE_CURVE('',#671,#673,#351,.T.);
#858=EDGE_CURVE('',#674,#675,#352,.T.);
#859=EDGE_CURVE('',#675,#670,#353,.T.);
#860=EDGE_CURVE('',#674,#671,#354,.T.);
#861=EDGE_CURVE('',#675,#676,#355,.T.);
#862=EDGE_CURVE('',#676,#672,#356,.T.);
#863=EDGE_CURVE('',#677,#674,#357,.T.);
#864=EDGE_CURVE('',#677,#673,#358,.T.);
#865=EDGE_CURVE('',#676,#677,#359,.T.);
#866=EDGE_CURVE('',#678,#679,#360,.T.);
#867=EDGE_CURVE('',#680,#678,#361,.T.);
#868=EDGE_CURVE('',#681,#680,#362,.T.);
#869=EDGE_CURVE('',#679,#681,#363,.T.);
#870=EDGE_CURVE('',#682,#683,#364,.T.);
#871=EDGE_CURVE('',#683,#678,#365,.T.);
#872=EDGE_CURVE('',#682,#679,#366,.T.);
#873=EDGE_CURVE('',#683,#684,#367,.T.);
#874=EDGE_CURVE('',#684,#680,#368,.T.);
#875=EDGE_CURVE('',#685,#682,#369,.T.);
#876=EDGE_CURVE('',#685,#681,#370,.T.);
#877=EDGE_CURVE('',#684,#685,#371,.T.);
#878=ORIENTED_EDGE('',*,*,#686,.F.);
#879=ORIENTED_EDGE('',*,*,#687,.F.);
#880=ORIENTED_EDGE('',*,*,#688,.F.);
#881=ORIENTED_EDGE('',*,*,#689,.F.);
#882=ORIENTED_EDGE('',*,*,#690,.T.);
#883=ORIENTED_EDGE('',*,*,#691,.T.);
#884=ORIENTED_EDGE('',*,*,#686,.T.);
#885=ORIENTED_EDGE('',*,*,#692,.F.);
#886=ORIENTED_EDGE('',*,*,#693,.T.);
#887=ORIENTED_EDGE('',*,*,#694,.T.);
#888=ORIENTED_EDGE('',*,*,#687,.T.);
#889=ORIENTED_EDGE('',*,*,#691,.F.);
#890=ORIENTED_EDGE('',*,*,#695,.T.);
#891=ORIENTED_EDGE('',*,*,#692,.T.);
#892=ORIENTED_EDGE('',*,*,#689,.T.);
#893=ORIENTED_EDGE('',*,*,#696,.F.);
#894=ORIENTED_EDGE('',*,*,#697,.T.);
#895=ORIENTED_EDGE('',*,*,#696,.T.);
#896=ORIENTED_EDGE('',*,*,#688,.T.);
#897=ORIENTED_EDGE('',*,*,#694,.F.);
#898=ORIENTED_EDGE('',*,*,#690,.F.);
#899=ORIENTED_EDGE('',*,*,#695,.F.);
#900=ORIENTED_EDGE('',*,*,#697,.F.);
#901=ORIENTED_EDGE('',*,*,#693,.F.);
#902=ORIENTED_EDGE('',*,*,#698,.T.);
#903=ORIENTED_EDGE('',*,*,#699,.F.);
#904=ORIENTED_EDGE('',*,*,#700,.F.);
#905=ORIENTED_EDGE('',*,*,#701,.F.);
#906=ORIENTED_EDGE('',*,*,#702,.T.);
#907=ORIENTED_EDGE('',*,*,#701,.T.);
#908=ORIENTED_EDGE('',*,*,#703,.F.);
#909=ORIENTED_EDGE('',*,*,#704,.F.);
#910=ORIENTED_EDGE('',*,*,#705,.F.);
#911=ORIENTED_EDGE('',*,*,#706,.T.);
#912=ORIENTED_EDGE('',*,*,#707,.F.);
#913=ORIENTED_EDGE('',*,*,#708,.T.);
#914=ORIENTED_EDGE('',*,*,#709,.T.);
#915=ORIENTED_EDGE('',*,*,#708,.F.);
#916=ORIENTED_EDGE('',*,*,#709,.F.);
#917=ORIENTED_EDGE('',*,*,#710,.F.);
#918=ORIENTED_EDGE('',*,*,#711,.T.);
#919=ORIENTED_EDGE('',*,*,#712,.T.);
#920=ORIENTED_EDGE('',*,*,#711,.F.);
#921=ORIENTED_EDGE('',*,*,#712,.F.);
#922=ORIENTED_EDGE('',*,*,#713,.F.);
#923=ORIENTED_EDGE('',*,*,#714,.T.);
#924=ORIENTED_EDGE('',*,*,#715,.T.);
#925=ORIENTED_EDGE('',*,*,#714,.F.);
#926=ORIENTED_EDGE('',*,*,#715,.F.);
#927=ORIENTED_EDGE('',*,*,#716,.F.);
#928=ORIENTED_EDGE('',*,*,#717,.F.);
#929=ORIENTED_EDGE('',*,*,#718,.T.);
#930=ORIENTED_EDGE('',*,*,#719,.T.);
#931=ORIENTED_EDGE('',*,*,#720,.T.);
#932=ORIENTED_EDGE('',*,*,#721,.T.);
#933=ORIENTED_EDGE('',*,*,#722,.T.);
#934=ORIENTED_EDGE('',*,*,#723,.T.);
#935=ORIENTED_EDGE('',*,*,#724,.T.);
#936=ORIENTED_EDGE('',*,*,#705,.T.);
#937=ORIENTED_EDGE('',*,*,#725,.T.);
#938=ORIENTED_EDGE('',*,*,#726,.T.);
#939=ORIENTED_EDGE('',*,*,#727,.T.);
#940=ORIENTED_EDGE('',*,*,#728,.T.);
#941=ORIENTED_EDGE('',*,*,#729,.T.);
#942=ORIENTED_EDGE('',*,*,#730,.T.);
#943=ORIENTED_EDGE('',*,*,#717,.T.);
#944=ORIENTED_EDGE('',*,*,#731,.T.);
#945=ORIENTED_EDGE('',*,*,#732,.T.);
#946=ORIENTED_EDGE('',*,*,#733,.T.);
#947=ORIENTED_EDGE('',*,*,#707,.T.);
#948=ORIENTED_EDGE('',*,*,#710,.T.);
#949=ORIENTED_EDGE('',*,*,#713,.T.);
#950=ORIENTED_EDGE('',*,*,#734,.T.);
#951=ORIENTED_EDGE('',*,*,#735,.T.);
#952=ORIENTED_EDGE('',*,*,#736,.F.);
#953=ORIENTED_EDGE('',*,*,#732,.F.);
#954=ORIENTED_EDGE('',*,*,#737,.T.);
#955=ORIENTED_EDGE('',*,*,#738,.T.);
#956=ORIENTED_EDGE('',*,*,#739,.F.);
#957=ORIENTED_EDGE('',*,*,#740,.F.);
#958=ORIENTED_EDGE('',*,*,#741,.F.);
#959=ORIENTED_EDGE('',*,*,#742,.T.);
#960=ORIENTED_EDGE('',*,*,#743,.T.);
#961=ORIENTED_EDGE('',*,*,#744,.F.);
#962=ORIENTED_EDGE('',*,*,#745,.F.);
#963=ORIENTED_EDGE('',*,*,#746,.T.);
#964=ORIENTED_EDGE('',*,*,#747,.T.);
#965=ORIENTED_EDGE('',*,*,#742,.F.);
#966=ORIENTED_EDGE('',*,*,#748,.F.);
#967=ORIENTED_EDGE('',*,*,#739,.T.);
#968=ORIENTED_EDGE('',*,*,#749,.T.);
#969=ORIENTED_EDGE('',*,*,#746,.F.);
#970=ORIENTED_EDGE('',*,*,#750,.F.);
#971=ORIENTED_EDGE('',*,*,#751,.T.);
#972=ORIENTED_EDGE('',*,*,#752,.T.);
#973=ORIENTED_EDGE('',*,*,#753,.F.);
#974=ORIENTED_EDGE('',*,*,#754,.F.);
#975=ORIENTED_EDGE('',*,*,#755,.T.);
#976=ORIENTED_EDGE('',*,*,#756,.T.);
#977=ORIENTED_EDGE('',*,*,#751,.F.);
#978=ORIENTED_EDGE('',*,*,#757,.F.);
#979=ORIENTED_EDGE('',*,*,#758,.T.);
#980=ORIENTED_EDGE('',*,*,#759,.T.);
#981=ORIENTED_EDGE('',*,*,#755,.F.);
#982=ORIENTED_EDGE('',*,*,#760,.F.);
#983=ORIENTED_EDGE('',*,*,#761,.T.);
#984=ORIENTED_EDGE('',*,*,#762,.T.);
#985=ORIENTED_EDGE('',*,*,#758,.F.);
#986=ORIENTED_EDGE('',*,*,#763,.F.);
#987=ORIENTED_EDGE('',*,*,#734,.F.);
#988=ORIENTED_EDGE('',*,*,#731,.F.);
#989=ORIENTED_EDGE('',*,*,#716,.T.);
#990=ORIENTED_EDGE('',*,*,#764,.T.);
#991=ORIENTED_EDGE('',*,*,#761,.F.);
#992=ORIENTED_EDGE('',*,*,#765,.F.);
#993=ORIENTED_EDGE('',*,*,#744,.T.);
#994=ORIENTED_EDGE('',*,*,#766,.T.);
#995=ORIENTED_EDGE('',*,*,#718,.F.);
#996=ORIENTED_EDGE('',*,*,#730,.F.);
#997=ORIENTED_EDGE('',*,*,#767,.F.);
#998=ORIENTED_EDGE('',*,*,#765,.T.);
#999=ORIENTED_EDGE('',*,*,#768,.F.);
#1000=ORIENTED_EDGE('',*,*,#769,.F.);
#1001=ORIENTED_EDGE('',*,*,#770,.F.);
#1002=ORIENTED_EDGE('',*,*,#771,.F.);
#1003=ORIENTED_EDGE('',*,*,#772,.F.);
#1004=ORIENTED_EDGE('',*,*,#773,.F.);
#1005=ORIENTED_EDGE('',*,*,#774,.T.);
#1006=ORIENTED_EDGE('',*,*,#740,.T.);
#1007=ORIENTED_EDGE('',*,*,#748,.T.);
#1008=ORIENTED_EDGE('',*,*,#745,.T.);
#1009=ORIENTED_EDGE('',*,*,#741,.T.);
#1010=ORIENTED_EDGE('',*,*,#763,.T.);
#1011=ORIENTED_EDGE('',*,*,#760,.T.);
#1012=ORIENTED_EDGE('',*,*,#757,.T.);
#1013=ORIENTED_EDGE('',*,*,#754,.T.);
#1014=ORIENTED_EDGE('',*,*,#750,.T.);
#1015=ORIENTED_EDGE('',*,*,#775,.T.);
#1016=ORIENTED_EDGE('',*,*,#776,.F.);
#1017=ORIENTED_EDGE('',*,*,#777,.F.);
#1018=ORIENTED_EDGE('',*,*,#778,.T.);
#1019=ORIENTED_EDGE('',*,*,#698,.F.);
#1020=ORIENTED_EDGE('',*,*,#702,.F.);
#1021=ORIENTED_EDGE('',*,*,#779,.F.);
#1022=ORIENTED_EDGE('',*,*,#780,.F.);
#1023=ORIENTED_EDGE('',*,*,#735,.F.);
#1024=ORIENTED_EDGE('',*,*,#774,.F.);
#1025=ORIENTED_EDGE('',*,*,#781,.F.);
#1026=ORIENTED_EDGE('',*,*,#782,.T.);
#1027=ORIENTED_EDGE('',*,*,#737,.F.);
#1028=ORIENTED_EDGE('',*,*,#783,.F.);
#1029=ORIENTED_EDGE('',*,*,#775,.F.);
#1030=ORIENTED_EDGE('',*,*,#753,.T.);
#1031=ORIENTED_EDGE('',*,*,#784,.T.);
#1032=ORIENTED_EDGE('',*,*,#785,.F.);
#1033=ORIENTED_EDGE('',*,*,#786,.F.);
#1034=ORIENTED_EDGE('',*,*,#784,.F.);
#1035=ORIENTED_EDGE('',*,*,#752,.F.);
#1036=ORIENTED_EDGE('',*,*,#756,.F.);
#1037=ORIENTED_EDGE('',*,*,#759,.F.);
#1038=ORIENTED_EDGE('',*,*,#762,.F.);
#1039=ORIENTED_EDGE('',*,*,#764,.F.);
#1040=ORIENTED_EDGE('',*,*,#719,.F.);
#1041=ORIENTED_EDGE('',*,*,#766,.F.);
#1042=ORIENTED_EDGE('',*,*,#743,.F.);
#1043=ORIENTED_EDGE('',*,*,#747,.F.);
#1044=ORIENTED_EDGE('',*,*,#749,.F.);
#1045=ORIENTED_EDGE('',*,*,#738,.F.);
#1046=ORIENTED_EDGE('',*,*,#782,.F.);
#1047=ORIENTED_EDGE('',*,*,#787,.F.);
#1048=ORIENTED_EDGE('',*,*,#785,.T.);
#1049=ORIENTED_EDGE('',*,*,#788,.F.);
#1050=ORIENTED_EDGE('',*,*,#789,.T.);
#1051=ORIENTED_EDGE('',*,*,#790,.F.);
#1052=ORIENTED_EDGE('',*,*,#787,.T.);
#1053=ORIENTED_EDGE('',*,*,#781,.T.);
#1054=ORIENTED_EDGE('',*,*,#773,.T.);
#1055=ORIENTED_EDGE('',*,*,#791,.T.);
#1056=ORIENTED_EDGE('',*,*,#792,.T.);
#1057=ORIENTED_EDGE('',*,*,#788,.T.);
#1058=ORIENTED_EDGE('',*,*,#793,.F.);
#1059=ORIENTED_EDGE('',*,*,#794,.T.);
#1060=ORIENTED_EDGE('',*,*,#795,.F.);
#1061=ORIENTED_EDGE('',*,*,#796,.F.);
#1062=ORIENTED_EDGE('',*,*,#797,.F.);
#1063=ORIENTED_EDGE('',*,*,#798,.T.);
#1064=ORIENTED_EDGE('',*,*,#799,.F.);
#1065=ORIENTED_EDGE('',*,*,#794,.F.);
#1066=ORIENTED_EDGE('',*,*,#800,.F.);
#1067=ORIENTED_EDGE('',*,*,#801,.T.);
#1068=ORIENTED_EDGE('',*,*,#802,.F.);
#1069=ORIENTED_EDGE('',*,*,#798,.F.);
#1070=ORIENTED_EDGE('',*,*,#803,.F.);
#1071=ORIENTED_EDGE('',*,*,#804,.T.);
#1072=ORIENTED_EDGE('',*,*,#805,.F.);
#1073=ORIENTED_EDGE('',*,*,#806,.F.);
#1074=ORIENTED_EDGE('',*,*,#807,.F.);
#1075=ORIENTED_EDGE('',*,*,#808,.T.);
#1076=ORIENTED_EDGE('',*,*,#809,.F.);
#1077=ORIENTED_EDGE('',*,*,#804,.F.);
#1078=ORIENTED_EDGE('',*,*,#810,.F.);
#1079=ORIENTED_EDGE('',*,*,#811,.T.);
#1080=ORIENTED_EDGE('',*,*,#812,.F.);
#1081=ORIENTED_EDGE('',*,*,#808,.F.);
#1082=ORIENTED_EDGE('',*,*,#813,.F.);
#1083=ORIENTED_EDGE('',*,*,#814,.T.);
#1084=ORIENTED_EDGE('',*,*,#815,.F.);
#1085=ORIENTED_EDGE('',*,*,#816,.F.);
#1086=ORIENTED_EDGE('',*,*,#817,.F.);
#1087=ORIENTED_EDGE('',*,*,#818,.T.);
#1088=ORIENTED_EDGE('',*,*,#819,.F.);
#1089=ORIENTED_EDGE('',*,*,#814,.F.);
#1090=ORIENTED_EDGE('',*,*,#820,.F.);
#1091=ORIENTED_EDGE('',*,*,#821,.T.);
#1092=ORIENTED_EDGE('',*,*,#822,.F.);
#1093=ORIENTED_EDGE('',*,*,#818,.F.);
#1094=ORIENTED_EDGE('',*,*,#823,.T.);
#1095=ORIENTED_EDGE('',*,*,#777,.T.);
#1096=ORIENTED_EDGE('',*,*,#824,.T.);
#1097=ORIENTED_EDGE('',*,*,#825,.T.);
#1098=ORIENTED_EDGE('',*,*,#724,.F.);
#1099=ORIENTED_EDGE('',*,*,#826,.T.);
#1100=ORIENTED_EDGE('',*,*,#779,.T.);
#1101=ORIENTED_EDGE('',*,*,#706,.F.);
#1102=ORIENTED_EDGE('',*,*,#733,.F.);
#1103=ORIENTED_EDGE('',*,*,#736,.T.);
#1104=ORIENTED_EDGE('',*,*,#780,.T.);
#1105=ORIENTED_EDGE('',*,*,#826,.F.);
#1106=ORIENTED_EDGE('',*,*,#767,.T.);
#1107=ORIENTED_EDGE('',*,*,#729,.F.);
#1108=ORIENTED_EDGE('',*,*,#827,.T.);
#1109=ORIENTED_EDGE('',*,*,#768,.T.);
#1110=ORIENTED_EDGE('',*,*,#828,.F.);
#1111=ORIENTED_EDGE('',*,*,#769,.T.);
#1112=ORIENTED_EDGE('',*,*,#827,.F.);
#1113=ORIENTED_EDGE('',*,*,#728,.F.);
#1114=ORIENTED_EDGE('',*,*,#699,.T.);
#1115=ORIENTED_EDGE('',*,*,#778,.F.);
#1116=ORIENTED_EDGE('',*,*,#823,.F.);
#1117=ORIENTED_EDGE('',*,*,#829,.T.);
#1118=ORIENTED_EDGE('',*,*,#786,.T.);
#1119=ORIENTED_EDGE('',*,*,#790,.T.);
#1120=ORIENTED_EDGE('',*,*,#830,.T.);
#1121=ORIENTED_EDGE('',*,*,#824,.F.);
#1122=ORIENTED_EDGE('',*,*,#776,.T.);
#1123=ORIENTED_EDGE('',*,*,#783,.T.);
#1124=ORIENTED_EDGE('',*,*,#772,.T.);
#1125=ORIENTED_EDGE('',*,*,#831,.T.);
#1126=ORIENTED_EDGE('',*,*,#832,.T.);
#1127=ORIENTED_EDGE('',*,*,#791,.F.);
#1128=ORIENTED_EDGE('',*,*,#771,.T.);
#1129=ORIENTED_EDGE('',*,*,#833,.T.);
#1130=ORIENTED_EDGE('',*,*,#834,.T.);
#1131=ORIENTED_EDGE('',*,*,#831,.F.);
#1132=ORIENTED_EDGE('',*,*,#828,.T.);
#1133=ORIENTED_EDGE('',*,*,#727,.F.);
#1134=ORIENTED_EDGE('',*,*,#835,.T.);
#1135=ORIENTED_EDGE('',*,*,#836,.T.);
#1136=ORIENTED_EDGE('',*,*,#833,.F.);
#1137=ORIENTED_EDGE('',*,*,#770,.T.);
#1138=ORIENTED_EDGE('',*,*,#726,.F.);
#1139=ORIENTED_EDGE('',*,*,#837,.T.);
#1140=ORIENTED_EDGE('',*,*,#838,.T.);
#1141=ORIENTED_EDGE('',*,*,#835,.F.);
#1142=ORIENTED_EDGE('',*,*,#704,.T.);
#1143=ORIENTED_EDGE('',*,*,#839,.T.);
#1144=ORIENTED_EDGE('',*,*,#815,.T.);
#1145=ORIENTED_EDGE('',*,*,#819,.T.);
#1146=ORIENTED_EDGE('',*,*,#822,.T.);
#1147=ORIENTED_EDGE('',*,*,#840,.T.);
#1148=ORIENTED_EDGE('',*,*,#805,.T.);
#1149=ORIENTED_EDGE('',*,*,#809,.T.);
#1150=ORIENTED_EDGE('',*,*,#812,.T.);
#1151=ORIENTED_EDGE('',*,*,#841,.T.);
#1152=ORIENTED_EDGE('',*,*,#795,.T.);
#1153=ORIENTED_EDGE('',*,*,#799,.T.);
#1154=ORIENTED_EDGE('',*,*,#802,.T.);
#1155=ORIENTED_EDGE('',*,*,#842,.T.);
#1156=ORIENTED_EDGE('',*,*,#837,.F.);
#1157=ORIENTED_EDGE('',*,*,#725,.F.);
#1158=ORIENTED_EDGE('',*,*,#700,.T.);
#1159=ORIENTED_EDGE('',*,*,#829,.F.);
#1160=ORIENTED_EDGE('',*,*,#825,.F.);
#1161=ORIENTED_EDGE('',*,*,#830,.F.);
#1162=ORIENTED_EDGE('',*,*,#789,.F.);
#1163=ORIENTED_EDGE('',*,*,#792,.F.);
#1164=ORIENTED_EDGE('',*,*,#832,.F.);
#1165=ORIENTED_EDGE('',*,*,#834,.F.);
#1166=ORIENTED_EDGE('',*,*,#836,.F.);
#1167=ORIENTED_EDGE('',*,*,#838,.F.);
#1168=ORIENTED_EDGE('',*,*,#842,.F.);
#1169=ORIENTED_EDGE('',*,*,#801,.F.);
#1170=ORIENTED_EDGE('',*,*,#843,.F.);
#1171=ORIENTED_EDGE('',*,*,#796,.T.);
#1172=ORIENTED_EDGE('',*,*,#841,.F.);
#1173=ORIENTED_EDGE('',*,*,#811,.F.);
#1174=ORIENTED_EDGE('',*,*,#844,.F.);
#1175=ORIENTED_EDGE('',*,*,#806,.T.);
#1176=ORIENTED_EDGE('',*,*,#840,.F.);
#1177=ORIENTED_EDGE('',*,*,#821,.F.);
#1178=ORIENTED_EDGE('',*,*,#845,.F.);
#1179=ORIENTED_EDGE('',*,*,#816,.T.);
#1180=ORIENTED_EDGE('',*,*,#839,.F.);
#1181=ORIENTED_EDGE('',*,*,#703,.T.);
#1182=ORIENTED_EDGE('',*,*,#846,.F.);
#1183=ORIENTED_EDGE('',*,*,#847,.T.);
#1184=ORIENTED_EDGE('',*,*,#723,.F.);
#1185=ORIENTED_EDGE('',*,*,#848,.F.);
#1186=ORIENTED_EDGE('',*,*,#849,.F.);
#1187=ORIENTED_EDGE('',*,*,#848,.T.);
#1188=ORIENTED_EDGE('',*,*,#722,.F.);
#1189=ORIENTED_EDGE('',*,*,#850,.F.);
#1190=ORIENTED_EDGE('',*,*,#851,.F.);
#1191=ORIENTED_EDGE('',*,*,#850,.T.);
#1192=ORIENTED_EDGE('',*,*,#721,.F.);
#1193=ORIENTED_EDGE('',*,*,#852,.F.);
#1194=ORIENTED_EDGE('',*,*,#793,.T.);
#1195=ORIENTED_EDGE('',*,*,#843,.T.);
#1196=ORIENTED_EDGE('',*,*,#800,.T.);
#1197=ORIENTED_EDGE('',*,*,#797,.T.);
#1198=ORIENTED_EDGE('',*,*,#803,.T.);
#1199=ORIENTED_EDGE('',*,*,#844,.T.);
#1200=ORIENTED_EDGE('',*,*,#810,.T.);
#1201=ORIENTED_EDGE('',*,*,#807,.T.);
#1202=ORIENTED_EDGE('',*,*,#813,.T.);
#1203=ORIENTED_EDGE('',*,*,#845,.T.);
#1204=ORIENTED_EDGE('',*,*,#820,.T.);
#1205=ORIENTED_EDGE('',*,*,#817,.T.);
#1206=ORIENTED_EDGE('',*,*,#853,.F.);
#1207=ORIENTED_EDGE('',*,*,#852,.T.);
#1208=ORIENTED_EDGE('',*,*,#720,.F.);
#1209=ORIENTED_EDGE('',*,*,#847,.F.);
#1210=ORIENTED_EDGE('',*,*,#853,.T.);
#1211=ORIENTED_EDGE('',*,*,#846,.T.);
#1212=ORIENTED_EDGE('',*,*,#849,.T.);
#1213=ORIENTED_EDGE('',*,*,#851,.T.);
#1214=ORIENTED_EDGE('',*,*,#854,.F.);
#1215=ORIENTED_EDGE('',*,*,#855,.F.);
#1216=ORIENTED_EDGE('',*,*,#856,.F.);
#1217=ORIENTED_EDGE('',*,*,#857,.F.);
#1218=ORIENTED_EDGE('',*,*,#858,.T.);
#1219=ORIENTED_EDGE('',*,*,#859,.T.);
#1220=ORIENTED_EDGE('',*,*,#854,.T.);
#1221=ORIENTED_EDGE('',*,*,#860,.F.);
#1222=ORIENTED_EDGE('',*,*,#861,.T.);
#1223=ORIENTED_EDGE('',*,*,#862,.T.);
#1224=ORIENTED_EDGE('',*,*,#855,.T.);
#1225=ORIENTED_EDGE('',*,*,#859,.F.);
#1226=ORIENTED_EDGE('',*,*,#863,.T.);
#1227=ORIENTED_EDGE('',*,*,#860,.T.);
#1228=ORIENTED_EDGE('',*,*,#857,.T.);
#1229=ORIENTED_EDGE('',*,*,#864,.F.);
#1230=ORIENTED_EDGE('',*,*,#865,.T.);
#1231=ORIENTED_EDGE('',*,*,#864,.T.);
#1232=ORIENTED_EDGE('',*,*,#856,.T.);
#1233=ORIENTED_EDGE('',*,*,#862,.F.);
#1234=ORIENTED_EDGE('',*,*,#858,.F.);
#1235=ORIENTED_EDGE('',*,*,#863,.F.);
#1236=ORIENTED_EDGE('',*,*,#865,.F.);
#1237=ORIENTED_EDGE('',*,*,#861,.F.);
#1238=ORIENTED_EDGE('',*,*,#866,.F.);
#1239=ORIENTED_EDGE('',*,*,#867,.F.);
#1240=ORIENTED_EDGE('',*,*,#868,.F.);
#1241=ORIENTED_EDGE('',*,*,#869,.F.);
#1242=ORIENTED_EDGE('',*,*,#870,.T.);
#1243=ORIENTED_EDGE('',*,*,#871,.T.);
#1244=ORIENTED_EDGE('',*,*,#866,.T.);
#1245=ORIENTED_EDGE('',*,*,#872,.F.);
#1246=ORIENTED_EDGE('',*,*,#873,.T.);
#1247=ORIENTED_EDGE('',*,*,#874,.T.);
#1248=ORIENTED_EDGE('',*,*,#867,.T.);
#1249=ORIENTED_EDGE('',*,*,#871,.F.);
#1250=ORIENTED_EDGE('',*,*,#875,.T.);
#1251=ORIENTED_EDGE('',*,*,#872,.T.);
#1252=ORIENTED_EDGE('',*,*,#869,.T.);
#1253=ORIENTED_EDGE('',*,*,#876,.F.);
#1254=ORIENTED_EDGE('',*,*,#877,.T.);
#1255=ORIENTED_EDGE('',*,*,#876,.T.);
#1256=ORIENTED_EDGE('',*,*,#868,.T.);
#1257=ORIENTED_EDGE('',*,*,#874,.F.);
#1258=ORIENTED_EDGE('',*,*,#870,.F.);
#1259=ORIENTED_EDGE('',*,*,#875,.F.);
#1260=ORIENTED_EDGE('',*,*,#877,.F.);
#1261=ORIENTED_EDGE('',*,*,#873,.F.);
#1262=PLANE('',#1423);
#1263=PLANE('',#1424);
#1264=PLANE('',#1425);
#1265=PLANE('',#1426);
#1266=PLANE('',#1427);
#1267=PLANE('',#1428);
#1268=PLANE('',#1429);
#1269=PLANE('',#1430);
#1270=PLANE('',#1434);
#1271=PLANE('',#1438);
#1272=PLANE('',#1442);
#1273=PLANE('',#1443);
#1274=PLANE('',#1444);
#1275=PLANE('',#1445);
#1276=PLANE('',#1446);
#1277=PLANE('',#1447);
#1278=PLANE('',#1448);
#1279=PLANE('',#1449);
#1280=PLANE('',#1450);
#1281=PLANE('',#1451);
#1282=PLANE('',#1452);
#1283=PLANE('',#1453);
#1284=PLANE('',#1454);
#1285=PLANE('',#1455);
#1286=PLANE('',#1456);
#1287=PLANE('',#1457);
#1288=PLANE('',#1458);
#1289=PLANE('',#1459);
#1290=PLANE('',#1460);
#1291=PLANE('',#1461);
#1292=PLANE('',#1462);
#1293=PLANE('',#1463);
#1294=PLANE('',#1464);
#1295=PLANE('',#1465);
#1296=PLANE('',#1466);
#1297=PLANE('',#1467);
#1298=PLANE('',#1468);
#1299=PLANE('',#1469);
#1300=PLANE('',#1470);
#1301=PLANE('',#1471);
#1302=PLANE('',#1472);
#1303=PLANE('',#1473);
#1304=PLANE('',#1474);
#1305=PLANE('',#1475);
#1306=PLANE('',#1476);
#1307=PLANE('',#1477);
#1308=PLANE('',#1478);
#1309=PLANE('',#1479);
#1310=PLANE('',#1480);
#1311=PLANE('',#1481);
#1312=PLANE('',#1482);
#1313=PLANE('',#1483);
#1314=PLANE('',#1484);
#1315=PLANE('',#1485);
#1316=PLANE('',#1486);
#1317=PLANE('',#1487);
#1318=PLANE('',#1488);
#1319=PLANE('',#1489);
#1320=PLANE('',#1490);
#1321=PLANE('',#1491);
#1322=PLANE('',#1492);
#1323=PLANE('',#1493);
#1324=PLANE('',#1494);
#1325=PLANE('',#1495);
#1326=PLANE('',#1496);
#1327=PLANE('',#1497);
#1328=PLANE('',#1498);
#1329=PLANE('',#1499);
#1330=PLANE('',#1500);
#1331=PLANE('',#1501);
#1332=ADVANCED_FACE('',(#33),#1262,.F.);
#1333=ADVANCED_FACE('',(#34),#1263,.F.);
#1334=ADVANCED_FACE('',(#35),#1264,.F.);
#1335=ADVANCED_FACE('',(#36),#1265,.F.);
#1336=ADVANCED_FACE('',(#37),#1266,.F.);
#1337=ADVANCED_FACE('',(#38),#1267,.T.);
#1338=ADVANCED_FACE('',(#39),#1268,.T.);
#1339=ADVANCED_FACE('',(#40),#1269,.T.);
#1340=ADVANCED_FACE('',(#41),#27,.F.);
#1341=ADVANCED_FACE('',(#42),#1270,.T.);
#1342=ADVANCED_FACE('',(#43),#28,.F.);
#1343=ADVANCED_FACE('',(#44),#1271,.T.);
#1344=ADVANCED_FACE('',(#45),#29,.F.);
#1345=ADVANCED_FACE('',(#46),#1272,.T.);
#1346=ADVANCED_FACE('',(#47),#1273,.F.);
#1347=ADVANCED_FACE('',(#48,#14,#15,#16,#17),#1274,.T.);
#1348=ADVANCED_FACE('',(#49),#1275,.F.);
#1349=ADVANCED_FACE('',(#50),#1276,.F.);
#1350=ADVANCED_FACE('',(#51),#1277,.F.);
#1351=ADVANCED_FACE('',(#52),#1278,.F.);
#1352=ADVANCED_FACE('',(#53),#1279,.F.);
#1353=ADVANCED_FACE('',(#54),#1280,.F.);
#1354=ADVANCED_FACE('',(#55),#1281,.F.);
#1355=ADVANCED_FACE('',(#56),#1282,.F.);
#1356=ADVANCED_FACE('',(#57),#1283,.F.);
#1357=ADVANCED_FACE('',(#58),#1284,.F.);
#1358=ADVANCED_FACE('',(#59),#1285,.F.);
#1359=ADVANCED_FACE('',(#60),#1286,.F.);
#1360=ADVANCED_FACE('',(#61),#1287,.F.);
#1361=ADVANCED_FACE('',(#62),#1288,.F.);
#1362=ADVANCED_FACE('',(#63),#1289,.F.);
#1363=ADVANCED_FACE('',(#64),#1290,.F.);
#1364=ADVANCED_FACE('',(#65),#1291,.F.);
#1365=ADVANCED_FACE('',(#66),#1292,.F.);
#1366=ADVANCED_FACE('',(#67),#1293,.F.);
#1367=ADVANCED_FACE('',(#68),#1294,.F.);
#1368=ADVANCED_FACE('',(#69),#1295,.F.);
#1369=ADVANCED_FACE('',(#70),#1296,.F.);
#1370=ADVANCED_FACE('',(#71),#1297,.F.);
#1371=ADVANCED_FACE('',(#72),#1298,.F.);
#1372=ADVANCED_FACE('',(#73),#1299,.F.);
#1373=ADVANCED_FACE('',(#74),#1300,.F.);
#1374=ADVANCED_FACE('',(#75),#1301,.F.);
#1375=ADVANCED_FACE('',(#76),#1302,.F.);
#1376=ADVANCED_FACE('',(#77),#1303,.F.);
#1377=ADVANCED_FACE('',(#78),#1304,.F.);
#1378=ADVANCED_FACE('',(#79),#1305,.F.);
#1379=ADVANCED_FACE('',(#80),#1306,.F.);
#1380=ADVANCED_FACE('',(#81),#1307,.F.);
#1381=ADVANCED_FACE('',(#82),#1308,.F.);
#1382=ADVANCED_FACE('',(#83),#1309,.F.);
#1383=ADVANCED_FACE('',(#84),#1310,.F.);
#1384=ADVANCED_FACE('',(#85),#1311,.F.);
#1385=ADVANCED_FACE('',(#86),#1312,.F.);
#1386=ADVANCED_FACE('',(#87),#1313,.F.);
#1387=ADVANCED_FACE('',(#88),#1314,.F.);
#1388=ADVANCED_FACE('',(#89),#1315,.T.);
#1389=ADVANCED_FACE('',(#90),#1316,.T.);
#1390=ADVANCED_FACE('',(#91,#18,#19,#20),#1317,.T.);
#1391=ADVANCED_FACE('',(#92),#1318,.T.);
#1392=ADVANCED_FACE('',(#93),#1319,.F.);
#1393=ADVANCED_FACE('',(#94),#1320,.F.);
#1394=ADVANCED_FACE('',(#95),#1321,.F.);
#1395=ADVANCED_FACE('',(#96),#1322,.F.);
#1396=ADVANCED_FACE('',(#97),#1323,.F.);
#1397=ADVANCED_FACE('',(#98),#1324,.F.);
#1398=ADVANCED_FACE('',(#99),#1325,.T.);
#1399=ADVANCED_FACE('',(#100),#1326,.F.);
#1400=ADVANCED_FACE('',(#101),#1327,.F.);
#1401=ADVANCED_FACE('',(#102),#1328,.F.);
#1402=ADVANCED_FACE('',(#103),#1329,.F.);
#1403=ADVANCED_FACE('',(#104),#1330,.F.);
#1404=ADVANCED_FACE('',(#105),#1331,.T.);
#1405=CLOSED_SHELL('',(#1332,#1333,#1334,#1335,#1336,#1337));
#1406=CLOSED_SHELL('',(#1338,#1339,#1340,#1341,#1342,#1343,#1344,#1345,
#1346,#1347,#1348,#1349,#1350,#1351,#1352,#1353,#1354,#1355,#1356,#1357,
#1358,#1359,#1360,#1361,#1362,#1363,#1364,#1365,#1366,#1367,#1368,#1369,
#1370,#1371,#1372,#1373,#1374,#1375,#1376,#1377,#1378,#1379,#1380,#1381,
#1382,#1383,#1384,#1385,#1386,#1387,#1388,#1389,#1390,#1391,#1392));
#1407=CLOSED_SHELL('',(#1393,#1394,#1395,#1396,#1397,#1398));
#1408=CLOSED_SHELL('',(#1399,#1400,#1401,#1402,#1403,#1404));
#1409=BREP_WITH_VOIDS('Body1',#1406,(#30,#31,#32));
#1410=DERIVED_UNIT_ELEMENT(#1412,1.);
#1411=DERIVED_UNIT_ELEMENT(#2247,-3.);
#1412=(
MASS_UNIT()
NAMED_UNIT(*)
SI_UNIT(.KILO.,.GRAM.)
);
#1413=DERIVED_UNIT((#1410,#1411));
#1414=MEASURE_REPRESENTATION_ITEM('density measure',
POSITIVE_RATIO_MEASURE(7850.),#1413);
#1415=PROPERTY_DEFINITION_REPRESENTATION(#1420,#1417);
#1416=PROPERTY_DEFINITION_REPRESENTATION(#1421,#1418);
#1417=REPRESENTATION('material name',(#1419),#2244);
#1418=REPRESENTATION('density',(#1414),#2244);
#1419=DESCRIPTIVE_REPRESENTATION_ITEM('Steel','Steel');
#1420=PROPERTY_DEFINITION('material property','material name',#2254);
#1421=PROPERTY_DEFINITION('material property','density of part',#2254);
#1422=AXIS2_PLACEMENT_3D('',#1848,#1502,#1503);
#1423=AXIS2_PLACEMENT_3D('',#1849,#1504,#1505);
#1424=AXIS2_PLACEMENT_3D('',#1858,#1510,#1511);
#1425=AXIS2_PLACEMENT_3D('',#1864,#1515,#1516);
#1426=AXIS2_PLACEMENT_3D('',#1868,#1519,#1520);
#1427=AXIS2_PLACEMENT_3D('',#1872,#1523,#1524);
#1428=AXIS2_PLACEMENT_3D('',#1874,#1526,#1527);
#1429=AXIS2_PLACEMENT_3D('',#1875,#1528,#1529);
#1430=AXIS2_PLACEMENT_3D('',#1884,#1534,#1535);
#1431=AXIS2_PLACEMENT_3D('',#1894,#1541,#1542);
#1432=AXIS2_PLACEMENT_3D('',#1896,#1543,#1544);
#1433=AXIS2_PLACEMENT_3D('',#1899,#1546,#1547);
#1434=AXIS2_PLACEMENT_3D('',#1900,#1548,#1549);
#1435=AXIS2_PLACEMENT_3D('',#1901,#1550,#1551);
#1436=AXIS2_PLACEMENT_3D('',#1903,#1552,#1553);
#1437=AXIS2_PLACEMENT_3D('',#1906,#1555,#1556);
#1438=AXIS2_PLACEMENT_3D('',#1907,#1557,#1558);
#1439=AXIS2_PLACEMENT_3D('',#1908,#1559,#1560);
#1440=AXIS2_PLACEMENT_3D('',#1910,#1561,#1562);
#1441=AXIS2_PLACEMENT_3D('',#1913,#1564,#1565);
#1442=AXIS2_PLACEMENT_3D('',#1914,#1566,#1567);
#1443=AXIS2_PLACEMENT_3D('',#1915,#1568,#1569);
#1444=AXIS2_PLACEMENT_3D('',#1924,#1574,#1575);
#1445=AXIS2_PLACEMENT_3D('',#1951,#1590,#1591);
#1446=AXIS2_PLACEMENT_3D('',#1957,#1595,#1596);
#1447=AXIS2_PLACEMENT_3D('',#1966,#1601,#1602);
#1448=AXIS2_PLACEMENT_3D('',#1975,#1607,#1608);
#1449=AXIS2_PLACEMENT_3D('',#1981,#1612,#1613);
#1450=AXIS2_PLACEMENT_3D('',#1984,#1616,#1617);
#1451=AXIS2_PLACEMENT_3D('',#1993,#1622,#1623);
#1452=AXIS2_PLACEMENT_3D('',#1999,#1627,#1628);
#1453=AXIS2_PLACEMENT_3D('',#2005,#1632,#1633);
#1454=AXIS2_PLACEMENT_3D('',#2011,#1637,#1638);
#1455=AXIS2_PLACEMENT_3D('',#2014,#1641,#1642);
#1456=AXIS2_PLACEMENT_3D('',#2019,#1646,#1647);
#1457=AXIS2_PLACEMENT_3D('',#2033,#1655,#1656);
#1458=AXIS2_PLACEMENT_3D('',#2044,#1663,#1664);
#1459=AXIS2_PLACEMENT_3D('',#2048,#1667,#1668);
#1460=AXIS2_PLACEMENT_3D('',#2052,#1671,#1672);
#1461=AXIS2_PLACEMENT_3D('',#2058,#1676,#1677);
#1462=AXIS2_PLACEMENT_3D('',#2064,#1681,#1682);
#1463=AXIS2_PLACEMENT_3D('',#2068,#1685,#1686);
#1464=AXIS2_PLACEMENT_3D('',#2077,#1691,#1692);
#1465=AXIS2_PLACEMENT_3D('',#2083,#1696,#1697);
#1466=AXIS2_PLACEMENT_3D('',#2089,#1701,#1702);
#1467=AXIS2_PLACEMENT_3D('',#2098,#1707,#1708);
#1468=AXIS2_PLACEMENT_3D('',#2104,#1712,#1713);
#1469=AXIS2_PLACEMENT_3D('',#2110,#1717,#1718);
#1470=AXIS2_PLACEMENT_3D('',#2119,#1723,#1724);
#1471=AXIS2_PLACEMENT_3D('',#2125,#1728,#1729);
#1472=AXIS2_PLACEMENT_3D('',#2131,#1733,#1734);
#1473=AXIS2_PLACEMENT_3D('',#2137,#1738,#1739);
#1474=AXIS2_PLACEMENT_3D('',#2139,#1741,#1742);
#1475=AXIS2_PLACEMENT_3D('',#2140,#1743,#1744);
#1476=AXIS2_PLACEMENT_3D('',#2142,#1746,#1747);
#1477=AXIS2_PLACEMENT_3D('',#2144,#1749,#1750);
#1478=AXIS2_PLACEMENT_3D('',#2146,#1752,#1753);
#1479=AXIS2_PLACEMENT_3D('',#2148,#1755,#1756);
#1480=AXIS2_PLACEMENT_3D('',#2152,#1759,#1760);
#1481=AXIS2_PLACEMENT_3D('',#2156,#1763,#1764);
#1482=AXIS2_PLACEMENT_3D('',#2160,#1767,#1768);
#1483=AXIS2_PLACEMENT_3D('',#2164,#1771,#1772);
#1484=AXIS2_PLACEMENT_3D('',#2169,#1777,#1778);
#1485=AXIS2_PLACEMENT_3D('',#2173,#1782,#1783);
#1486=AXIS2_PLACEMENT_3D('',#2179,#1787,#1788);
#1487=AXIS2_PLACEMENT_3D('',#2183,#1791,#1792);
#1488=AXIS2_PLACEMENT_3D('',#2187,#1795,#1796);
#1489=AXIS2_PLACEMENT_3D('',#2189,#1798,#1799);
#1490=AXIS2_PLACEMENT_3D('',#2190,#1800,#1801);
#1491=AXIS2_PLACEMENT_3D('',#2199,#1806,#1807);
#1492=AXIS2_PLACEMENT_3D('',#2205,#1811,#1812);
#1493=AXIS2_PLACEMENT_3D('',#2209,#1815,#1816);
#1494=AXIS2_PLACEMENT_3D('',#2213,#1819,#1820);
#1495=AXIS2_PLACEMENT_3D('',#2215,#1822,#1823);
#1496=AXIS2_PLACEMENT_3D('',#2216,#1824,#1825);
#1497=AXIS2_PLACEMENT_3D('',#2225,#1830,#1831);
#1498=AXIS2_PLACEMENT_3D('',#2231,#1835,#1836);
#1499=AXIS2_PLACEMENT_3D('',#2235,#1839,#1840);
#1500=AXIS2_PLACEMENT_3D('',#2239,#1843,#1844);
#1501=AXIS2_PLACEMENT_3D('',#2241,#1846,#1847);
#1502=DIRECTION('axis',(0.,0.,1.));
#1503=DIRECTION('refdir',(1.,0.,0.));
#1504=DIRECTION('center_axis',(0.,0.,-1.));
#1505=DIRECTION('ref_axis',(-1.,0.,0.));
#1506=DIRECTION('',(0.,1.,0.));
#1507=DIRECTION('',(-1.,0.,0.));
#1508=DIRECTION('',(0.,-1.,0.));
#1509=DIRECTION('',(1.,0.,0.));
#1510=DIRECTION('center_axis',(-1.,0.,0.));
#1511=DIRECTION('ref_axis',(0.,1.,0.));
#1512=DIRECTION('',(0.,-1.,0.));
#1513=DIRECTION('',(0.,0.,-1.));
#1514=DIRECTION('',(0.,0.,-1.));
#1515=DIRECTION('center_axis',(0.,-1.,0.));
#1516=DIRECTION('ref_axis',(-1.,0.,0.));
#1517=DIRECTION('',(1.,0.,0.));
#1518=DIRECTION('',(0.,0.,-1.));
#1519=DIRECTION('center_axis',(0.,1.,0.));
#1520=DIRECTION('ref_axis',(1.,0.,0.));
#1521=DIRECTION('',(-1.,0.,0.));
#1522=DIRECTION('',(0.,0.,-1.));
#1523=DIRECTION('center_axis',(1.,0.,0.));
#1524=DIRECTION('ref_axis',(0.,-1.,0.));
#1525=DIRECTION('',(0.,1.,0.));
#1526=DIRECTION('center_axis',(0.,0.,-1.));
#1527=DIRECTION('ref_axis',(-1.,0.,0.));
#1528=DIRECTION('center_axis',(-1.,0.,0.));
#1529=DIRECTION('ref_axis',(0.,1.,0.));
#1530=DIRECTION('',(0.,1.,0.));
#1531=DIRECTION('',(0.,0.,1.));
#1532=DIRECTION('',(0.,1.,0.));
#1533=DIRECTION('',(0.,0.,-1.));
#1534=DIRECTION('center_axis',(0.,-1.,0.));
#1535=DIRECTION('ref_axis',(-1.,0.,0.));
#1536=DIRECTION('',(-1.,0.,0.));
#1537=DIRECTION('',(-1.,0.,0.));
#1538=DIRECTION('',(0.,0.,-1.));
#1539=DIRECTION('',(1.,0.,0.));
#1540=DIRECTION('',(0.,0.,-1.));
#1541=DIRECTION('center_axis',(0.,0.,-1.));
#1542=DIRECTION('ref_axis',(-1.,0.,0.));
#1543=DIRECTION('center_axis',(0.,0.,-1.));
#1544=DIRECTION('ref_axis',(-1.,0.,0.));
#1545=DIRECTION('',(0.,0.,-1.));
#1546=DIRECTION('center_axis',(0.,0.,-1.));
#1547=DIRECTION('ref_axis',(-1.,0.,0.));
#1548=DIRECTION('center_axis',(0.,0.,1.));
#1549=DIRECTION('ref_axis',(-1.,0.,0.));
#1550=DIRECTION('center_axis',(0.,0.,-1.));
#1551=DIRECTION('ref_axis',(-1.,0.,0.));
#1552=DIRECTION('center_axis',(0.,0.,-1.));
#1553=DIRECTION('ref_axis',(-1.,0.,0.));
#1554=DIRECTION('',(0.,0.,-1.));
#1555=DIRECTION('center_axis',(0.,0.,-1.));
#1556=DIRECTION('ref_axis',(-1.,0.,0.));
#1557=DIRECTION('center_axis',(0.,0.,1.));
#1558=DIRECTION('ref_axis',(-1.,0.,0.));
#1559=DIRECTION('center_axis',(0.,0.,-1.));
#1560=DIRECTION('ref_axis',(-1.,0.,0.));
#1561=DIRECTION('center_axis',(0.,0.,-1.));
#1562=DIRECTION('ref_axis',(-1.,0.,0.));
#1563=DIRECTION('',(0.,0.,-1.));
#1564=DIRECTION('center_axis',(0.,0.,-1.));
#1565=DIRECTION('ref_axis',(-1.,0.,0.));
#1566=DIRECTION('center_axis',(0.,0.,1.));
#1567=DIRECTION('ref_axis',(-1.,0.,0.));
#1568=DIRECTION('center_axis',(-1.,0.,0.));
#1569=DIRECTION('ref_axis',(0.,-1.,0.));
#1570=DIRECTION('',(0.,0.,-1.));
#1571=DIRECTION('',(0.,1.,0.));
#1572=DIRECTION('',(0.,0.,-1.));
#1573=DIRECTION('',(0.,1.,0.));
#1574=DIRECTION('center_axis',(0.,0.,1.));
#1575=DIRECTION('ref_axis',(1.,0.,0.));
#1576=DIRECTION('',(1.,0.,0.));
#1577=DIRECTION('',(0.,1.,0.));
#1578=DIRECTION('',(-1.,0.,0.));
#1579=DIRECTION('',(0.,-1.,0.));
#1580=DIRECTION('',(0.,-1.,0.));
#1581=DIRECTION('',(0.,-1.,0.));
#1582=DIRECTION('',(-1.,0.,0.));
#1583=DIRECTION('',(0.,1.,0.));
#1584=DIRECTION('',(-1.,0.,0.));
#1585=DIRECTION('',(0.,1.,0.));
#1586=DIRECTION('',(-1.,0.,0.));
#1587=DIRECTION('',(1.,0.,0.));
#1588=DIRECTION('',(0.,1.,0.));
#1589=DIRECTION('',(1.,0.,0.));
#1590=DIRECTION('center_axis',(-1.,0.,0.));
#1591=DIRECTION('ref_axis',(0.,1.,0.));
#1592=DIRECTION('',(0.,0.,-1.));
#1593=DIRECTION('',(0.,1.,0.));
#1594=DIRECTION('',(0.,0.,-1.));
#1595=DIRECTION('center_axis',(0.,-1.,0.));
#1596=DIRECTION('ref_axis',(-1.,0.,0.));
#1597=DIRECTION('',(0.,0.,-1.));
#1598=DIRECTION('',(-1.,0.,0.));
#1599=DIRECTION('',(0.,0.,-1.));
#1600=DIRECTION('',(-1.,0.,0.));
#1601=DIRECTION('center_axis',(-1.,0.,0.));
#1602=DIRECTION('ref_axis',(0.,1.,0.));
#1603=DIRECTION('',(0.,1.,0.));
#1604=DIRECTION('',(0.,0.,-1.));
#1605=DIRECTION('',(0.,1.,0.));
#1606=DIRECTION('',(0.,0.,-1.));
#1607=DIRECTION('center_axis',(0.,-1.,0.));
#1608=DIRECTION('ref_axis',(-1.,0.,0.));
#1609=DIRECTION('',(-1.,0.,0.));
#1610=DIRECTION('',(0.,0.,-1.));
#1611=DIRECTION('',(-1.,0.,0.));
#1612=DIRECTION('center_axis',(1.,0.,0.));
#1613=DIRECTION('ref_axis',(0.,-1.,0.));
#1614=DIRECTION('',(0.,-1.,0.));
#1615=DIRECTION('',(0.,-1.,0.));
#1616=DIRECTION('center_axis',(0.,1.,0.));
#1617=DIRECTION('ref_axis',(1.,0.,0.));
#1618=DIRECTION('',(1.,0.,0.));
#1619=DIRECTION('',(0.,0.,-1.));
#1620=DIRECTION('',(1.,0.,0.));
#1621=DIRECTION('',(0.,0.,-1.));
#1622=DIRECTION('center_axis',(1.,0.,0.));
#1623=DIRECTION('ref_axis',(0.,-1.,0.));
#1624=DIRECTION('',(0.,-1.,0.));
#1625=DIRECTION('',(0.,0.,-1.));
#1626=DIRECTION('',(0.,-1.,0.));
#1627=DIRECTION('center_axis',(0.,1.,0.));
#1628=DIRECTION('ref_axis',(1.,0.,0.));
#1629=DIRECTION('',(1.,0.,0.));
#1630=DIRECTION('',(0.,0.,-1.));
#1631=DIRECTION('',(1.,0.,0.));
#1632=DIRECTION('center_axis',(-1.,0.,0.));
#1633=DIRECTION('ref_axis',(0.,1.,0.));
#1634=DIRECTION('',(0.,1.,0.));
#1635=DIRECTION('',(0.,0.,-1.));
#1636=DIRECTION('',(0.,1.,0.));
#1637=DIRECTION('center_axis',(0.,1.,0.));
#1638=DIRECTION('ref_axis',(1.,0.,0.));
#1639=DIRECTION('',(1.,0.,0.));
#1640=DIRECTION('',(1.,0.,0.));
#1641=DIRECTION('center_axis',(0.,-1.,0.));
#1642=DIRECTION('ref_axis',(-1.,0.,0.));
#1643=DIRECTION('',(-1.,0.,0.));
#1644=DIRECTION('',(-1.,0.,0.));
#1645=DIRECTION('',(0.,0.,1.));
#1646=DIRECTION('center_axis',(0.,0.,-1.));
#1647=DIRECTION('ref_axis',(-1.,0.,0.));
#1648=DIRECTION('',(0.,1.,0.));
#1649=DIRECTION('',(-1.,0.,0.));
#1650=DIRECTION('',(0.,-1.,0.));
#1651=DIRECTION('',(1.,0.,0.));
#1652=DIRECTION('',(0.,-1.,0.));
#1653=DIRECTION('',(-1.,0.,0.));
#1654=DIRECTION('',(0.,1.,0.));
#1655=DIRECTION('center_axis',(0.,0.,-1.));
#1656=DIRECTION('ref_axis',(-1.,0.,0.));
#1657=DIRECTION('',(0.,-1.,0.));
#1658=DIRECTION('',(-1.,0.,0.));
#1659=DIRECTION('',(0.,1.,0.));
#1660=DIRECTION('',(1.,0.,0.));
#1661=DIRECTION('',(0.,-1.,0.));
#1662=DIRECTION('',(1.,0.,0.));
#1663=DIRECTION('center_axis',(-1.,0.,0.));
#1664=DIRECTION('ref_axis',(0.,1.,0.));
#1665=DIRECTION('',(0.,0.,1.));
#1666=DIRECTION('',(0.,1.,0.));
#1667=DIRECTION('center_axis',(1.,0.,0.));
#1668=DIRECTION('ref_axis',(0.,-1.,0.));
#1669=DIRECTION('',(0.,0.,-1.));
#1670=DIRECTION('',(0.,-1.,0.));
#1671=DIRECTION('center_axis',(0.,0.,-1.));
#1672=DIRECTION('ref_axis',(-1.,0.,0.));
#1673=DIRECTION('',(0.,-1.,0.));
#1674=DIRECTION('',(-1.,0.,0.));
#1675=DIRECTION('',(-1.,0.,0.));
#1676=DIRECTION('center_axis',(-1.,0.,0.));
#1677=DIRECTION('ref_axis',(0.,1.,0.));
#1678=DIRECTION('',(0.,0.,1.));
#1679=DIRECTION('',(0.,1.,0.));
#1680=DIRECTION('',(0.,0.,-1.));
#1681=DIRECTION('center_axis',(0.,1.,0.));
#1682=DIRECTION('ref_axis',(1.,0.,0.));
#1683=DIRECTION('',(0.,0.,-1.));
#1684=DIRECTION('',(1.,0.,0.));
#1685=DIRECTION('center_axis',(0.,1.,0.));
#1686=DIRECTION('ref_axis',(0.,0.,-1.));
#1687=DIRECTION('',(0.,0.,-1.));
#1688=DIRECTION('',(-1.,0.,0.));
#1689=DIRECTION('',(0.,0.,1.));
#1690=DIRECTION('',(-1.,0.,0.));
#1691=DIRECTION('center_axis',(0.,0.,1.));
#1692=DIRECTION('ref_axis',(0.,1.,0.));
#1693=DIRECTION('',(0.,1.,0.));
#1694=DIRECTION('',(-1.,0.,0.));
#1695=DIRECTION('',(0.,-1.,0.));
#1696=DIRECTION('center_axis',(0.,-1.,0.));
#1697=DIRECTION('ref_axis',(0.,0.,1.));
#1698=DIRECTION('',(0.,0.,1.));
#1699=DIRECTION('',(-1.,0.,0.));
#1700=DIRECTION('',(0.,0.,-1.));
#1701=DIRECTION('center_axis',(0.,1.,0.));
#1702=DIRECTION('ref_axis',(0.,0.,-1.));
#1703=DIRECTION('',(0.,0.,-1.));
#1704=DIRECTION('',(-1.,0.,0.));
#1705=DIRECTION('',(0.,0.,1.));
#1706=DIRECTION('',(-1.,0.,0.));
#1707=DIRECTION('center_axis',(0.,0.,1.));
#1708=DIRECTION('ref_axis',(0.,1.,0.));
#1709=DIRECTION('',(0.,1.,0.));
#1710=DIRECTION('',(-1.,0.,0.));
#1711=DIRECTION('',(0.,-1.,0.));
#1712=DIRECTION('center_axis',(0.,-1.,0.));
#1713=DIRECTION('ref_axis',(0.,0.,1.));
#1714=DIRECTION('',(0.,0.,1.));
#1715=DIRECTION('',(-1.,0.,0.));
#1716=DIRECTION('',(0.,0.,-1.));
#1717=DIRECTION('center_axis',(0.,1.,0.));
#1718=DIRECTION('ref_axis',(0.,0.,-1.));
#1719=DIRECTION('',(0.,0.,-1.));
#1720=DIRECTION('',(-1.,0.,0.));
#1721=DIRECTION('',(0.,0.,1.));
#1722=DIRECTION('',(-1.,0.,0.));
#1723=DIRECTION('center_axis',(0.,0.,1.));
#1724=DIRECTION('ref_axis',(0.,1.,0.));
#1725=DIRECTION('',(0.,1.,0.));
#1726=DIRECTION('',(-1.,0.,0.));
#1727=DIRECTION('',(0.,-1.,0.));
#1728=DIRECTION('center_axis',(0.,-1.,0.));
#1729=DIRECTION('ref_axis',(0.,0.,1.));
#1730=DIRECTION('',(0.,0.,1.));
#1731=DIRECTION('',(-1.,0.,0.));
#1732=DIRECTION('',(0.,0.,-1.));
#1733=DIRECTION('center_axis',(1.,0.,0.));
#1734=DIRECTION('ref_axis',(0.,-1.,0.));
#1735=DIRECTION('',(0.,0.,1.));
#1736=DIRECTION('',(0.,0.,-1.));
#1737=DIRECTION('',(0.,-1.,0.));
#1738=DIRECTION('center_axis',(1.,0.,0.));
#1739=DIRECTION('ref_axis',(0.,-1.,0.));
#1740=DIRECTION('',(0.,0.,-1.));
#1741=DIRECTION('center_axis',(0.,1.,0.));
#1742=DIRECTION('ref_axis',(1.,0.,0.));
#1743=DIRECTION('center_axis',(-1.,0.,0.));
#1744=DIRECTION('ref_axis',(0.,1.,0.));
#1745=DIRECTION('',(0.,0.,-1.));
#1746=DIRECTION('center_axis',(0.,-1.,0.));
#1747=DIRECTION('ref_axis',(-1.,0.,0.));
#1748=DIRECTION('',(0.,0.,1.));
#1749=DIRECTION('center_axis',(0.,1.,0.));
#1750=DIRECTION('ref_axis',(1.,0.,0.));
#1751=DIRECTION('',(1.,0.,0.));
#1752=DIRECTION('center_axis',(0.,1.,0.));
#1753=DIRECTION('ref_axis',(1.,0.,0.));
#1754=DIRECTION('',(1.,0.,0.));
#1755=DIRECTION('center_axis',(-1.,0.,0.));
#1756=DIRECTION('ref_axis',(0.,1.,0.));
#1757=DIRECTION('',(0.,0.,-1.));
#1758=DIRECTION('',(0.,1.,0.));
#1759=DIRECTION('center_axis',(0.,-1.,0.));
#1760=DIRECTION('ref_axis',(-1.,0.,0.));
#1761=DIRECTION('',(0.,0.,-1.));
#1762=DIRECTION('',(-1.,0.,0.));
#1763=DIRECTION('center_axis',(-1.,0.,0.));
#1764=DIRECTION('ref_axis',(0.,1.,0.));
#1765=DIRECTION('',(0.,0.,-1.));
#1766=DIRECTION('',(0.,1.,0.));
#1767=DIRECTION('center_axis',(0.,-1.,0.));
#1768=DIRECTION('ref_axis',(-1.,0.,0.));
#1769=DIRECTION('',(0.,0.,-1.));
#1770=DIRECTION('',(-1.,0.,0.));
#1771=DIRECTION('center_axis',(1.,0.,0.));
#1772=DIRECTION('ref_axis',(0.,-1.,0.));
#1773=DIRECTION('',(0.,-1.,0.));
#1774=DIRECTION('',(0.,-1.,0.));
#1775=DIRECTION('',(0.,-1.,0.));
#1776=DIRECTION('',(0.,-1.,0.));
#1777=DIRECTION('center_axis',(0.,0.,-1.));
#1778=DIRECTION('ref_axis',(-1.,0.,0.));
#1779=DIRECTION('',(0.,-1.,0.));
#1780=DIRECTION('',(0.,-1.,0.));
#1781=DIRECTION('',(0.,-1.,0.));
#1782=DIRECTION('center_axis',(-1.,0.,0.));
#1783=DIRECTION('ref_axis',(0.,-1.,0.));
#1784=DIRECTION('',(0.,1.,0.));
#1785=DIRECTION('',(0.,0.,1.));
#1786=DIRECTION('',(0.,0.,1.));
#1787=DIRECTION('center_axis',(0.,1.,0.));
#1788=DIRECTION('ref_axis',(-1.,0.,0.));
#1789=DIRECTION('',(1.,0.,0.));
#1790=DIRECTION('',(0.,0.,1.));
#1791=DIRECTION('center_axis',(1.,0.,0.));
#1792=DIRECTION('ref_axis',(0.,1.,0.));
#1793=DIRECTION('',(0.,-1.,0.));
#1794=DIRECTION('',(0.,0.,1.));
#1795=DIRECTION('center_axis',(0.,-1.,0.));
#1796=DIRECTION('ref_axis',(1.,0.,0.));
#1797=DIRECTION('',(-1.,0.,0.));
#1798=DIRECTION('center_axis',(0.,0.,1.));
#1799=DIRECTION('ref_axis',(1.,0.,0.));
#1800=DIRECTION('center_axis',(0.,0.,-1.));
#1801=DIRECTION('ref_axis',(-1.,0.,0.));
#1802=DIRECTION('',(-1.,0.,0.));
#1803=DIRECTION('',(0.,-1.,0.));
#1804=DIRECTION('',(1.,0.,0.));
#1805=DIRECTION('',(0.,1.,0.));
#1806=DIRECTION('center_axis',(0.,-1.,0.));
#1807=DIRECTION('ref_axis',(-1.,0.,0.));
#1808=DIRECTION('',(1.,0.,0.));
#1809=DIRECTION('',(0.,0.,-1.));
#1810=DIRECTION('',(0.,0.,-1.));
#1811=DIRECTION('center_axis',(1.,0.,0.));
#1812=DIRECTION('ref_axis',(0.,-1.,0.));
#1813=DIRECTION('',(0.,1.,0.));
#1814=DIRECTION('',(0.,0.,-1.));
#1815=DIRECTION('center_axis',(-1.,0.,0.));
#1816=DIRECTION('ref_axis',(0.,1.,0.));
#1817=DIRECTION('',(0.,-1.,0.));
#1818=DIRECTION('',(0.,0.,-1.));
#1819=DIRECTION('center_axis',(0.,1.,0.));
#1820=DIRECTION('ref_axis',(1.,0.,0.));
#1821=DIRECTION('',(-1.,0.,0.));
#1822=DIRECTION('center_axis',(0.,0.,-1.));
#1823=DIRECTION('ref_axis',(-1.,0.,0.));
#1824=DIRECTION('center_axis',(0.,0.,-1.));
#1825=DIRECTION('ref_axis',(-1.,0.,0.));
#1826=DIRECTION('',(-1.,0.,0.));
#1827=DIRECTION('',(0.,-1.,0.));
#1828=DIRECTION('',(1.,0.,0.));
#1829=DIRECTION('',(0.,1.,0.));
#1830=DIRECTION('center_axis',(0.,-1.,0.));
#1831=DIRECTION('ref_axis',(-1.,0.,0.));
#1832=DIRECTION('',(1.,0.,0.));
#1833=DIRECTION('',(0.,0.,-1.));
#1834=DIRECTION('',(0.,0.,-1.));
#1835=DIRECTION('center_axis',(1.,0.,0.));
#1836=DIRECTION('ref_axis',(0.,-1.,0.));
#1837=DIRECTION('',(0.,1.,0.));
#1838=DIRECTION('',(0.,0.,-1.));
#1839=DIRECTION('center_axis',(-1.,0.,0.));
#1840=DIRECTION('ref_axis',(0.,1.,0.));
#1841=DIRECTION('',(0.,-1.,0.));
#1842=DIRECTION('',(0.,0.,-1.));
#1843=DIRECTION('center_axis',(0.,1.,0.));
#1844=DIRECTION('ref_axis',(1.,0.,0.));
#1845=DIRECTION('',(-1.,0.,0.));
#1846=DIRECTION('center_axis',(0.,0.,-1.));
#1847=DIRECTION('ref_axis',(-1.,0.,0.));
#1848=CARTESIAN_POINT('',(0.,0.,0.));
#1849=CARTESIAN_POINT('Origin',(47.2543377801827,31.231510375134,9.));
#1850=CARTESIAN_POINT('',(46.2543377801827,27.731510375134,9.));
#1851=CARTESIAN_POINT('',(46.2543377801827,34.731510375134,9.));
#1852=CARTESIAN_POINT('',(46.2543377801827,34.731510375134,9.));
#1853=CARTESIAN_POINT('',(48.2543377801827,27.731510375134,9.));
#1854=CARTESIAN_POINT('',(46.2543377801827,27.731510375134,9.));
#1855=CARTESIAN_POINT('',(48.2543377801827,34.731510375134,9.));
#1856=CARTESIAN_POINT('',(48.2543377801827,27.731510375134,9.));
#1857=CARTESIAN_POINT('',(48.2543377801827,34.731510375134,9.));
#1858=CARTESIAN_POINT('Origin',(46.2543377801827,27.731510375134,25.));
#1859=CARTESIAN_POINT('',(46.2543377801827,34.731510375134,9.3));
#1860=CARTESIAN_POINT('',(46.2543377801827,27.731510375134,9.3));
#1861=CARTESIAN_POINT('',(46.2543377801827,29.481510375134,9.3));
#1862=CARTESIAN_POINT('',(46.2543377801827,27.731510375134,25.));
#1863=CARTESIAN_POINT('',(46.2543377801827,34.731510375134,25.));
#1864=CARTESIAN_POINT('Origin',(48.2543377801827,27.731510375134,25.));
#1865=CARTESIAN_POINT('',(48.2543377801827,27.731510375134,9.3));
#1866=CARTESIAN_POINT('',(47.7543377801827,27.731510375134,9.3));
#1867=CARTESIAN_POINT('',(48.2543377801827,27.731510375134,25.));
#1868=CARTESIAN_POINT('Origin',(46.2543377801827,34.731510375134,25.));
#1869=CARTESIAN_POINT('',(48.2543377801827,34.731510375134,9.3));
#1870=CARTESIAN_POINT('',(46.7543377801827,34.731510375134,9.3));
#1871=CARTESIAN_POINT('',(48.2543377801827,34.731510375134,25.));
#1872=CARTESIAN_POINT('Origin',(48.2543377801827,34.731510375134,25.));
#1873=CARTESIAN_POINT('',(48.2543377801827,32.981510375134,9.3));
#1874=CARTESIAN_POINT('Origin',(47.2543377801827,31.231510375134,9.3));
#1875=CARTESIAN_POINT('Origin',(23.7543377801827,5.63151037513402,25.));
#1876=CARTESIAN_POINT('',(23.7543377801827,5.63151037513402,23.8));
#1877=CARTESIAN_POINT('',(23.7543377801827,14.131510375134,23.8));
#1878=CARTESIAN_POINT('',(23.7543377801827,7.75651037513402,23.8));
#1879=CARTESIAN_POINT('',(23.7543377801827,14.131510375134,7.2));
#1880=CARTESIAN_POINT('',(23.7543377801827,14.131510375134,25.));
#1881=CARTESIAN_POINT('',(23.7543377801827,5.63151037513402,7.2));
#1882=CARTESIAN_POINT('',(23.7543377801827,-9.11848962486598,7.2));
#1883=CARTESIAN_POINT('',(23.7543377801827,5.63151037513402,25.));
#1884=CARTESIAN_POINT('Origin',(44.7543377801827,5.63151037513402,25.));
#1885=CARTESIAN_POINT('',(36.6043377801827,5.63151037513402,23.8));
#1886=CARTESIAN_POINT('',(37.4668377801827,5.63151037513402,23.8));
#1887=CARTESIAN_POINT('',(44.7543377801827,5.63151037513402,7.2));
#1888=CARTESIAN_POINT('',(21.5793377801827,5.63151037513402,7.2));
#1889=CARTESIAN_POINT('',(44.7543377801827,5.63151037513402,25.));
#1890=CARTESIAN_POINT('',(44.7543377801827,5.63151037513402,25.));
#1891=CARTESIAN_POINT('',(36.6043377801827,5.63151037513402,25.));
#1892=CARTESIAN_POINT('',(23.7543377801827,5.63151037513402,25.));
#1893=CARTESIAN_POINT('',(36.6043377801827,5.63151037513402,25.));
#1894=CARTESIAN_POINT('Origin',(44.5043377801827,129.081510375134,25.));
#1895=CARTESIAN_POINT('',(47.7543377801827,129.081510375134,25.));
#1896=CARTESIAN_POINT('Origin',(44.5043377801827,129.081510375134,25.));
#1897=CARTESIAN_POINT('',(47.7543377801827,129.081510375134,23.3));
#1898=CARTESIAN_POINT('',(47.7543377801827,129.081510375134,25.));
#1899=CARTESIAN_POINT('Origin',(44.5043377801827,129.081510375134,23.3));
#1900=CARTESIAN_POINT('Origin',(44.5043377801827,129.081510375134,23.3));
#1901=CARTESIAN_POINT('Origin',(43.3246926657026,31.231510375134,25.));
#1902=CARTESIAN_POINT('',(46.5746926657026,31.231510375134,25.));
#1903=CARTESIAN_POINT('Origin',(43.3246926657026,31.231510375134,25.));
#1904=CARTESIAN_POINT('',(46.5746926657026,31.231510375134,23.3));
#1905=CARTESIAN_POINT('',(46.5746926657026,31.231510375134,25.));
#1906=CARTESIAN_POINT('Origin',(43.3246926657026,31.231510375134,23.3));
#1907=CARTESIAN_POINT('Origin',(43.3246926657026,31.231510375134,23.3));
#1908=CARTESIAN_POINT('Origin',(44.5043377801827,-66.618489624866,25.));
#1909=CARTESIAN_POINT('',(47.7543377801827,-66.618489624866,25.));
#1910=CARTESIAN_POINT('Origin',(44.5043377801827,-66.618489624866,25.));
#1911=CARTESIAN_POINT('',(47.7543377801827,-66.618489624866,23.3));
#1912=CARTESIAN_POINT('',(47.7543377801827,-66.618489624866,25.));
#1913=CARTESIAN_POINT('Origin',(44.5043377801827,-66.618489624866,23.3));
#1914=CARTESIAN_POINT('Origin',(44.5043377801827,-66.618489624866,23.3));
#1915=CARTESIAN_POINT('Origin',(-79.5956622198173,56.1398517124924,23.8));
#1916=CARTESIAN_POINT('',(-79.5956622198173,56.1398517124924,25.));
#1917=CARTESIAN_POINT('',(-79.5956622198173,56.1398517124924,18.8));
#1918=CARTESIAN_POINT('',(-79.5956622198173,56.1398517124924,23.8));
#1919=CARTESIAN_POINT('',(-79.5956622198173,37.1398517124924,25.));
#1920=CARTESIAN_POINT('',(-79.5956622198173,43.6856810438132,25.));
#1921=CARTESIAN_POINT('',(-79.5956622198173,37.1398517124924,18.8));
#1922=CARTESIAN_POINT('',(-79.5956622198173,37.1398517124924,23.8));
#1923=CARTESIAN_POINT('',(-79.5956622198173,56.1398517124924,18.8));
#1924=CARTESIAN_POINT('Origin',(-18.9956622198172,31.231510375134,25.));
#1925=CARTESIAN_POINT('',(-87.7456622198172,-71.868489624866,25.));
#1926=CARTESIAN_POINT('',(49.7543377801827,-71.868489624866,25.));
#1927=CARTESIAN_POINT('',(49.7543377801827,-71.868489624866,25.));
#1928=CARTESIAN_POINT('',(49.7543377801827,134.331510375134,25.));
#1929=CARTESIAN_POINT('',(49.7543377801827,134.331510375134,25.));
#1930=CARTESIAN_POINT('',(-87.7456622198172,134.331510375134,25.));
#1931=CARTESIAN_POINT('',(-87.7456622198172,134.331510375134,25.));
#1932=CARTESIAN_POINT('',(-87.7456622198172,-71.868489624866,25.));
#1933=CARTESIAN_POINT('',(36.6043377801827,129.331510375134,25.));
#1934=CARTESIAN_POINT('',(36.6043377801827,22.681510375134,25.));
#1935=CARTESIAN_POINT('',(44.7543377801827,-61.868489624866,25.));
#1936=CARTESIAN_POINT('',(44.7543377801827,22.681510375134,25.));
#1937=CARTESIAN_POINT('',(-43.2456622198173,-61.868489624866,25.));
#1938=CARTESIAN_POINT('',(12.8793377801827,-61.868489624866,25.));
#1939=CARTESIAN_POINT('',(-43.2456622198173,-40.868489624866,25.));
#1940=CARTESIAN_POINT('',(-43.2456622198173,-15.318489624866,25.));
#1941=CARTESIAN_POINT('',(-74.5956622198173,-40.868489624866,25.));
#1942=CARTESIAN_POINT('',(8.80433778018275,-40.868489624866,25.));
#1943=CARTESIAN_POINT('',(-74.5956622198173,37.1398517124924,25.));
#1944=CARTESIAN_POINT('',(-74.5956622198173,-4.81848962486597,25.));
#1945=CARTESIAN_POINT('',(-49.2956622198173,37.1398517124924,25.));
#1946=CARTESIAN_POINT('',(-74.5956622198173,56.1398517124924,25.));
#1947=CARTESIAN_POINT('',(-46.7956622198173,56.1398517124924,25.));
#1948=CARTESIAN_POINT('',(-74.5956622198173,129.331510375134,25.));
#1949=CARTESIAN_POINT('',(-74.5956622198173,-4.81848962486597,25.));
#1950=CARTESIAN_POINT('',(-46.7956622198173,129.331510375134,25.));
#1951=CARTESIAN_POINT('Origin',(-74.5956622198173,-40.868489624866,25.));
#1952=CARTESIAN_POINT('',(-74.5956622198173,56.1398517124924,23.8));
#1953=CARTESIAN_POINT('',(-74.5956622198173,56.1398517124924,24.4));
#1954=CARTESIAN_POINT('',(-74.5956622198173,129.331510375134,23.8));
#1955=CARTESIAN_POINT('',(-74.5956622198173,-40.868489624866,23.8));
#1956=CARTESIAN_POINT('',(-74.5956622198173,129.331510375134,25.));
#1957=CARTESIAN_POINT('Origin',(-8.94566221981727,37.731510375134,23.8));
#1958=CARTESIAN_POINT('',(-21.9456622198173,37.731510375134,23.8));
#1959=CARTESIAN_POINT('',(-21.9456622198173,37.731510375134,18.8));
#1960=CARTESIAN_POINT('',(-21.9456622198173,37.731510375134,23.8));
#1961=CARTESIAN_POINT('',(-44.0956622198173,37.731510375134,18.8));
#1962=CARTESIAN_POINT('',(-8.94566221981727,37.731510375134,18.8));
#1963=CARTESIAN_POINT('',(-44.0956622198173,37.731510375134,23.8));
#1964=CARTESIAN_POINT('',(-44.0956622198173,37.731510375134,23.8));
#1965=CARTESIAN_POINT('',(-13.9706622198173,37.731510375134,23.8));
#1966=CARTESIAN_POINT('Origin',(-61.5956622198173,28.356510375134,23.8));
#1967=CARTESIAN_POINT('',(-61.5956622198173,28.356510375134,23.8));
#1968=CARTESIAN_POINT('',(-61.5956622198173,37.1398517124924,23.8));
#1969=CARTESIAN_POINT('',(-61.5956622198173,36.294010375134,23.8));
#1970=CARTESIAN_POINT('',(-61.5956622198173,28.356510375134,18.8));
#1971=CARTESIAN_POINT('',(-61.5956622198173,28.356510375134,23.8));
#1972=CARTESIAN_POINT('',(-61.5956622198173,37.1398517124924,18.8));
#1973=CARTESIAN_POINT('',(-61.5956622198173,28.356510375134,18.8));
#1974=CARTESIAN_POINT('',(-61.5956622198173,37.1398517124924,23.8));
#1975=CARTESIAN_POINT('Origin',(-44.0956622198173,28.356510375134,23.8));
#1976=CARTESIAN_POINT('',(-44.0956622198173,28.356510375134,23.8));
#1977=CARTESIAN_POINT('',(-31.5456622198173,28.356510375134,23.8));
#1978=CARTESIAN_POINT('',(-44.0956622198173,28.356510375134,18.8));
#1979=CARTESIAN_POINT('',(-44.0956622198173,28.356510375134,23.8));
#1980=CARTESIAN_POINT('',(-44.0956622198173,28.356510375134,18.8));
#1981=CARTESIAN_POINT('Origin',(-44.0956622198173,37.731510375134,23.8));
#1982=CARTESIAN_POINT('',(-44.0956622198173,40.981510375134,23.8));
#1983=CARTESIAN_POINT('',(-44.0956622198173,60.106510375134,18.8));
#1984=CARTESIAN_POINT('Origin',(-44.0956622198173,50.731510375134,23.8));
#1985=CARTESIAN_POINT('',(-44.0956622198173,50.731510375134,23.8));
#1986=CARTESIAN_POINT('',(-8.94566221981727,50.731510375134,23.8));
#1987=CARTESIAN_POINT('',(-31.5456622198173,50.731510375134,23.8));
#1988=CARTESIAN_POINT('',(-44.0956622198173,50.731510375134,18.8));
#1989=CARTESIAN_POINT('',(-44.0956622198173,50.731510375134,23.8));
#1990=CARTESIAN_POINT('',(-8.94566221981727,50.731510375134,18.8));
#1991=CARTESIAN_POINT('',(-44.0956622198173,50.731510375134,18.8));
#1992=CARTESIAN_POINT('',(-8.94566221981727,50.731510375134,23.8));
#1993=CARTESIAN_POINT('Origin',(-44.0956622198173,60.106510375134,23.8));
#1994=CARTESIAN_POINT('',(-44.0956622198173,60.106510375134,23.8));
#1995=CARTESIAN_POINT('',(-44.0956622198173,52.169010375134,23.8));
#1996=CARTESIAN_POINT('',(-44.0956622198173,60.106510375134,18.8));
#1997=CARTESIAN_POINT('',(-44.0956622198173,60.106510375134,23.8));
#1998=CARTESIAN_POINT('',(-44.0956622198173,60.106510375134,18.8));
#1999=CARTESIAN_POINT('Origin',(-61.5956622198173,60.106510375134,23.8));
#2000=CARTESIAN_POINT('',(-61.5956622198173,60.106510375134,23.8));
#2001=CARTESIAN_POINT('',(-40.2956622198173,60.106510375134,23.8));
#2002=CARTESIAN_POINT('',(-61.5956622198173,60.106510375134,18.8));
#2003=CARTESIAN_POINT('',(-61.5956622198173,60.106510375134,23.8));
#2004=CARTESIAN_POINT('',(-61.5956622198173,60.106510375134,18.8));
#2005=CARTESIAN_POINT('Origin',(-61.5956622198173,56.1398517124924,23.8));
#2006=CARTESIAN_POINT('',(-61.5956622198173,56.1398517124924,23.8));
#2007=CARTESIAN_POINT('',(-61.5956622198173,50.1856810438132,23.8));
#2008=CARTESIAN_POINT('',(-61.5956622198173,56.1398517124924,18.8));
#2009=CARTESIAN_POINT('',(-61.5956622198173,56.1398517124924,23.8));
#2010=CARTESIAN_POINT('',(-61.5956622198173,28.356510375134,18.8));
#2011=CARTESIAN_POINT('Origin',(-74.5956622198173,56.1398517124924,23.8));
#2012=CARTESIAN_POINT('',(-46.7956622198173,56.1398517124924,23.8));
#2013=CARTESIAN_POINT('',(-74.5956622198173,56.1398517124924,18.8));
#2014=CARTESIAN_POINT('Origin',(-61.5956622198173,37.1398517124924,23.8));
#2015=CARTESIAN_POINT('',(-74.5956622198173,37.1398517124924,23.8));
#2016=CARTESIAN_POINT('',(-40.2956622198173,37.1398517124924,23.8));
#2017=CARTESIAN_POINT('',(-79.5956622198173,37.1398517124924,18.8));
#2018=CARTESIAN_POINT('',(-74.5956622198173,37.1398517124924,24.4));
#2019=CARTESIAN_POINT('Origin',(-18.9956622198173,44.231510375134,23.8));
#2020=CARTESIAN_POINT('',(-74.5956622198173,-40.868489624866,23.8));
#2021=CARTESIAN_POINT('',(-74.5956622198173,-40.868489624866,23.8));
#2022=CARTESIAN_POINT('',(-43.2456622198173,-40.868489624866,23.8));
#2023=CARTESIAN_POINT('',(36.6043377801827,-40.868489624866,23.8));
#2024=CARTESIAN_POINT('',(-43.2456622198173,-40.568489624866,23.8));
#2025=CARTESIAN_POINT('',(-43.2456622198173,-8.81848962486598,23.8));
#2026=CARTESIAN_POINT('',(-47.9456622198173,-40.568489624866,23.8));
#2027=CARTESIAN_POINT('',(-31.1206622198173,-40.568489624866,23.8));
#2028=CARTESIAN_POINT('',(-47.9456622198173,-8.36848962486597,23.8));
#2029=CARTESIAN_POINT('',(-47.9456622198173,1.83151037513403,23.8));
#2030=CARTESIAN_POINT('',(-21.9456622198173,-8.36848962486597,23.8));
#2031=CARTESIAN_POINT('',(-33.4706622198173,-8.36848962486597,23.8));
#2032=CARTESIAN_POINT('',(-21.9456622198173,17.931510375134,23.8));
#2033=CARTESIAN_POINT('Origin',(-18.9956622198173,44.231510375134,23.8));
#2034=CARTESIAN_POINT('',(-8.94566221981727,34.131510375134,23.8));
#2035=CARTESIAN_POINT('',(-8.94566221981727,47.481510375134,23.8));
#2036=CARTESIAN_POINT('',(18.7543377801827,34.131510375134,23.8));
#2037=CARTESIAN_POINT('',(-17.6206622198173,34.131510375134,23.8));
#2038=CARTESIAN_POINT('',(18.7543377801827,14.131510375134,23.8));
#2039=CARTESIAN_POINT('',(18.7543377801827,39.181510375134,23.8));
#2040=CARTESIAN_POINT('',(-0.120662219817262,14.131510375134,23.8));
#2041=CARTESIAN_POINT('',(36.6043377801827,129.331510375134,23.8));
#2042=CARTESIAN_POINT('',(36.6043377801827,129.331510375134,23.8));
#2043=CARTESIAN_POINT('',(-74.5956622198173,129.331510375134,23.8));
#2044=CARTESIAN_POINT('Origin',(-21.9456622198173,-8.36848962486597,23.8));
#2045=CARTESIAN_POINT('',(-21.9456622198173,-8.36848962486597,18.8));
#2046=CARTESIAN_POINT('',(-21.9456622198173,-8.36848962486597,24.4));
#2047=CARTESIAN_POINT('',(-21.9456622198173,-8.36848962486597,18.8));
#2048=CARTESIAN_POINT('Origin',(-8.94566221981727,37.731510375134,23.8));
#2049=CARTESIAN_POINT('',(-8.94566221981727,34.131510375134,18.8));
#2050=CARTESIAN_POINT('',(-8.94566221981727,34.131510375134,24.4));
#2051=CARTESIAN_POINT('',(-8.94566221981727,37.731510375134,18.8));
#2052=CARTESIAN_POINT('Origin',(-15.4456622198173,14.681510375134,18.8));
#2053=CARTESIAN_POINT('',(-16.2456622198173,34.131510375134,18.8));
#2054=CARTESIAN_POINT('',(-16.2456622198173,-8.36848962486597,18.8));
#2055=CARTESIAN_POINT('',(-16.2456622198173,-8.09348962486597,18.8));
#2056=CARTESIAN_POINT('',(-15.8456622198173,34.131510375134,18.8));
#2057=CARTESIAN_POINT('',(-31.6956622198173,-8.36848962486597,18.8));
#2058=CARTESIAN_POINT('Origin',(-16.2456622198173,-30.868489624866,25.));
#2059=CARTESIAN_POINT('',(-16.2456622198173,-8.36848962486597,7.2));
#2060=CARTESIAN_POINT('',(-16.2456622198173,-8.36848962486597,25.));
#2061=CARTESIAN_POINT('',(-16.2456622198173,34.131510375134,7.2));
#2062=CARTESIAN_POINT('',(-16.2456622198173,-30.868489624866,7.2));
#2063=CARTESIAN_POINT('',(-16.2456622198173,34.131510375134,25.));
#2064=CARTESIAN_POINT('Origin',(-47.9456622198173,-8.36848962486597,25.));
#2065=CARTESIAN_POINT('',(-47.9456622198173,-8.36848962486597,7.2));
#2066=CARTESIAN_POINT('',(-47.9456622198173,-8.36848962486597,25.));
#2067=CARTESIAN_POINT('',(-47.9456622198173,-8.36848962486597,7.2));
#2068=CARTESIAN_POINT('Origin',(49.7543377801827,-37.868489624866,17.2));
#2069=CARTESIAN_POINT('',(49.7543377801827,-37.868489624866,17.2));
#2070=CARTESIAN_POINT('',(49.7543377801827,-37.868489624866,7.2));
#2071=CARTESIAN_POINT('',(49.7543377801827,-37.868489624866,8.6));
#2072=CARTESIAN_POINT('',(44.7543377801827,-37.868489624866,17.2));
#2073=CARTESIAN_POINT('',(49.7543377801827,-37.868489624866,17.2));
#2074=CARTESIAN_POINT('',(44.7543377801827,-37.868489624866,7.2));
#2075=CARTESIAN_POINT('',(44.7543377801827,-37.868489624866,21.1));
#2076=CARTESIAN_POINT('',(49.7543377801827,-37.868489624866,7.2));
#2077=CARTESIAN_POINT('Origin',(49.7543377801827,-51.868489624866,17.2));
#2078=CARTESIAN_POINT('',(49.7543377801827,-51.868489624866,17.2));
#2079=CARTESIAN_POINT('',(49.7543377801827,-61.868489624866,17.2));
#2080=CARTESIAN_POINT('',(44.7543377801827,-51.868489624866,17.2));
#2081=CARTESIAN_POINT('',(49.7543377801827,-51.868489624866,17.2));
#2082=CARTESIAN_POINT('',(44.7543377801827,-18.868489624866,17.2));
#2083=CARTESIAN_POINT('Origin',(49.7543377801827,-51.868489624866,7.2));
#2084=CARTESIAN_POINT('',(49.7543377801827,-51.868489624866,7.2));
#2085=CARTESIAN_POINT('',(49.7543377801827,-51.868489624866,3.6));
#2086=CARTESIAN_POINT('',(44.7543377801827,-51.868489624866,7.2));
#2087=CARTESIAN_POINT('',(49.7543377801827,-51.868489624866,7.2));
#2088=CARTESIAN_POINT('',(44.7543377801827,-51.868489624866,16.1));
#2089=CARTESIAN_POINT('Origin',(49.7543377801827,-16.868489624866,14.2));
#2090=CARTESIAN_POINT('',(49.7543377801827,-16.868489624866,14.2));
#2091=CARTESIAN_POINT('',(49.7543377801827,-16.868489624866,7.2));
#2092=CARTESIAN_POINT('',(49.7543377801827,-16.868489624866,7.1));
#2093=CARTESIAN_POINT('',(44.7543377801827,-16.868489624866,14.2));
#2094=CARTESIAN_POINT('',(49.7543377801827,-16.868489624866,14.2));
#2095=CARTESIAN_POINT('',(44.7543377801827,-16.868489624866,7.2));
#2096=CARTESIAN_POINT('',(44.7543377801827,-16.868489624866,19.6));
#2097=CARTESIAN_POINT('',(49.7543377801827,-16.868489624866,7.2));
#2098=CARTESIAN_POINT('Origin',(49.7543377801827,-30.868489624866,14.2));
#2099=CARTESIAN_POINT('',(49.7543377801827,-30.868489624866,14.2));
#2100=CARTESIAN_POINT('',(49.7543377801827,-51.368489624866,14.2));
#2101=CARTESIAN_POINT('',(44.7543377801827,-30.868489624866,14.2));
#2102=CARTESIAN_POINT('',(49.7543377801827,-30.868489624866,14.2));
#2103=CARTESIAN_POINT('',(44.7543377801827,-8.36848962486598,14.2));
#2104=CARTESIAN_POINT('Origin',(49.7543377801827,-30.868489624866,7.2));
#2105=CARTESIAN_POINT('',(49.7543377801827,-30.868489624866,7.2));
#2106=CARTESIAN_POINT('',(49.7543377801827,-30.868489624866,3.6));
#2107=CARTESIAN_POINT('',(44.7543377801827,-30.868489624866,7.2));
#2108=CARTESIAN_POINT('',(49.7543377801827,-30.868489624866,7.2));
#2109=CARTESIAN_POINT('',(44.7543377801827,-30.868489624866,16.1));
#2110=CARTESIAN_POINT('Origin',(49.7543377801827,-4.36848962486598,14.2));
#2111=CARTESIAN_POINT('',(49.7543377801827,-4.36848962486598,14.2));
#2112=CARTESIAN_POINT('',(49.7543377801827,-4.36848962486598,7.2));
#2113=CARTESIAN_POINT('',(49.7543377801827,-4.36848962486597,7.1));
#2114=CARTESIAN_POINT('',(44.7543377801827,-4.36848962486598,14.2));
#2115=CARTESIAN_POINT('',(49.7543377801827,-4.36848962486598,14.2));
#2116=CARTESIAN_POINT('',(44.7543377801827,-4.36848962486598,7.2));
#2117=CARTESIAN_POINT('',(44.7543377801827,-4.36848962486598,19.6));
#2118=CARTESIAN_POINT('',(49.7543377801827,-4.36848962486598,7.2));
#2119=CARTESIAN_POINT('Origin',(49.7543377801827,-12.368489624866,14.2));
#2120=CARTESIAN_POINT('',(49.7543377801827,-12.368489624866,14.2));
#2121=CARTESIAN_POINT('',(49.7543377801827,-42.118489624866,14.2));
#2122=CARTESIAN_POINT('',(44.7543377801827,-12.368489624866,14.2));
#2123=CARTESIAN_POINT('',(49.7543377801827,-12.368489624866,14.2));
#2124=CARTESIAN_POINT('',(44.7543377801827,0.881510375134023,14.2));
#2125=CARTESIAN_POINT('Origin',(49.7543377801827,-12.368489624866,7.2));
#2126=CARTESIAN_POINT('',(49.7543377801827,-12.368489624866,7.2));
#2127=CARTESIAN_POINT('',(49.7543377801827,-12.368489624866,3.6));
#2128=CARTESIAN_POINT('',(44.7543377801827,-12.368489624866,7.2));
#2129=CARTESIAN_POINT('',(49.7543377801827,-12.368489624866,7.2));
#2130=CARTESIAN_POINT('',(44.7543377801827,-12.368489624866,16.1));
#2131=CARTESIAN_POINT('Origin',(18.7543377801827,34.131510375134,25.));
#2132=CARTESIAN_POINT('',(18.7543377801827,14.131510375134,7.2));
#2133=CARTESIAN_POINT('',(18.7543377801827,14.131510375134,25.));
#2134=CARTESIAN_POINT('',(18.7543377801827,34.131510375134,7.2));
#2135=CARTESIAN_POINT('',(18.7543377801827,34.131510375134,25.));
#2136=CARTESIAN_POINT('',(18.7543377801827,34.131510375134,7.2));
#2137=CARTESIAN_POINT('Origin',(36.6043377801827,129.331510375134,25.));
#2138=CARTESIAN_POINT('',(36.6043377801827,129.331510375134,25.));
#2139=CARTESIAN_POINT('Origin',(-74.5956622198173,129.331510375134,25.));
#2140=CARTESIAN_POINT('Origin',(-74.5956622198173,-40.868489624866,25.));
#2141=CARTESIAN_POINT('',(-74.5956622198173,-40.868489624866,25.));
#2142=CARTESIAN_POINT('Origin',(36.6043377801827,-40.868489624866,25.));
#2143=CARTESIAN_POINT('',(-43.2456622198173,-40.868489624866,25.));
#2144=CARTESIAN_POINT('Origin',(23.7543377801827,14.131510375134,25.));
#2145=CARTESIAN_POINT('',(-43.2456622198173,14.131510375134,7.2));
#2146=CARTESIAN_POINT('Origin',(-16.2456622198173,34.131510375134,25.));
#2147=CARTESIAN_POINT('',(-16.2456622198173,34.131510375134,7.2));
#2148=CARTESIAN_POINT('Origin',(-47.9456622198173,-40.568489624866,25.));
#2149=CARTESIAN_POINT('',(-47.9456622198173,-40.568489624866,7.2));
#2150=CARTESIAN_POINT('',(-47.9456622198173,-40.568489624866,25.));
#2151=CARTESIAN_POINT('',(-47.9456622198173,-40.568489624866,7.2));
#2152=CARTESIAN_POINT('Origin',(-43.2456622198173,-40.568489624866,25.));
#2153=CARTESIAN_POINT('',(-43.2456622198173,-40.568489624866,7.2));
#2154=CARTESIAN_POINT('',(-43.2456622198173,-40.568489624866,25.));
#2155=CARTESIAN_POINT('',(17.0543377801827,-40.568489624866,7.2));
#2156=CARTESIAN_POINT('Origin',(-43.2456622198173,-61.868489624866,25.));
#2157=CARTESIAN_POINT('',(-43.2456622198173,-61.868489624866,7.2));
#2158=CARTESIAN_POINT('',(-43.2456622198173,-61.868489624866,25.));
#2159=CARTESIAN_POINT('',(-43.2456622198173,-61.868489624866,7.2));
#2160=CARTESIAN_POINT('Origin',(44.7543377801827,-61.868489624866,25.));
#2161=CARTESIAN_POINT('',(44.7543377801827,-61.868489624866,7.2));
#2162=CARTESIAN_POINT('',(44.7543377801827,-61.868489624866,25.));
#2163=CARTESIAN_POINT('',(44.7543377801827,-61.868489624866,7.2));
#2164=CARTESIAN_POINT('Origin',(44.7543377801827,14.131510375134,25.));
#2165=CARTESIAN_POINT('',(44.7543377801827,14.131510375134,7.2));
#2166=CARTESIAN_POINT('',(44.7543377801827,14.131510375134,7.2));
#2167=CARTESIAN_POINT('',(44.7543377801827,14.131510375134,7.2));
#2168=CARTESIAN_POINT('',(44.7543377801827,14.131510375134,7.2));
#2169=CARTESIAN_POINT('Origin',(-1.59566221981726,-23.868489624866,7.2));
#2170=CARTESIAN_POINT('',(49.7543377801827,-54.868489624866,7.2));
#2171=CARTESIAN_POINT('',(49.7543377801827,-44.368489624866,7.2));
#2172=CARTESIAN_POINT('',(49.7543377801827,-38.118489624866,7.2));
#2173=CARTESIAN_POINT('Origin',(-87.7456622198172,134.331510375134,0.));
#2174=CARTESIAN_POINT('',(-87.7456622198172,-71.868489624866,0.));
#2175=CARTESIAN_POINT('',(-87.7456622198172,134.331510375134,0.));
#2176=CARTESIAN_POINT('',(-87.7456622198172,-71.868489624866,0.));
#2177=CARTESIAN_POINT('',(-87.7456622198172,-71.868489624866,0.));
#2178=CARTESIAN_POINT('',(-87.7456622198172,134.331510375134,0.));
#2179=CARTESIAN_POINT('Origin',(49.7543377801827,134.331510375134,0.));
#2180=CARTESIAN_POINT('',(49.7543377801827,134.331510375134,0.));
#2181=CARTESIAN_POINT('',(-87.7456622198172,134.331510375134,0.));
#2182=CARTESIAN_POINT('',(49.7543377801827,134.331510375134,0.));
#2183=CARTESIAN_POINT('Origin',(49.7543377801827,-71.868489624866,0.));
#2184=CARTESIAN_POINT('',(49.7543377801827,-71.868489624866,0.));
#2185=CARTESIAN_POINT('',(49.7543377801827,134.331510375134,0.));
#2186=CARTESIAN_POINT('',(49.7543377801827,-71.868489624866,0.));
#2187=CARTESIAN_POINT('Origin',(-87.7456622198172,-71.868489624866,0.));
#2188=CARTESIAN_POINT('',(49.7543377801827,-71.868489624866,0.));
#2189=CARTESIAN_POINT('Origin',(-18.9956622198172,31.231510375134,0.));
#2190=CARTESIAN_POINT('Origin',(47.2543377801827,126.831510375134,9.));
#2191=CARTESIAN_POINT('',(48.2543377801827,123.331510375134,9.));
#2192=CARTESIAN_POINT('',(46.2543377801827,123.331510375134,9.));
#2193=CARTESIAN_POINT('',(48.2543377801827,123.331510375134,9.));
#2194=CARTESIAN_POINT('',(48.2543377801827,130.331510375134,9.));
#2195=CARTESIAN_POINT('',(48.2543377801827,130.331510375134,9.));
#2196=CARTESIAN_POINT('',(46.2543377801827,130.331510375134,9.));
#2197=CARTESIAN_POINT('',(46.2543377801827,130.331510375134,9.));
#2198=CARTESIAN_POINT('',(46.2543377801827,123.331510375134,9.));
#2199=CARTESIAN_POINT('Origin',(48.2543377801827,123.331510375134,25.));
#2200=CARTESIAN_POINT('',(46.2543377801827,123.331510375134,9.3));
#2201=CARTESIAN_POINT('',(48.2543377801827,123.331510375134,9.3));
#2202=CARTESIAN_POINT('',(47.7543377801827,123.331510375134,9.3));
#2203=CARTESIAN_POINT('',(48.2543377801827,123.331510375134,25.));
#2204=CARTESIAN_POINT('',(46.2543377801827,123.331510375134,25.));
#2205=CARTESIAN_POINT('Origin',(48.2543377801827,130.331510375134,25.));
#2206=CARTESIAN_POINT('',(48.2543377801827,130.331510375134,9.3));
#2207=CARTESIAN_POINT('',(48.2543377801827,128.581510375134,9.3));
#2208=CARTESIAN_POINT('',(48.2543377801827,130.331510375134,25.));
#2209=CARTESIAN_POINT('Origin',(46.2543377801827,123.331510375134,25.));
#2210=CARTESIAN_POINT('',(46.2543377801827,130.331510375134,9.3));
#2211=CARTESIAN_POINT('',(46.2543377801827,125.081510375134,9.3));
#2212=CARTESIAN_POINT('',(46.2543377801827,130.331510375134,25.));
#2213=CARTESIAN_POINT('Origin',(46.2543377801827,130.331510375134,25.));
#2214=CARTESIAN_POINT('',(46.7543377801827,130.331510375134,9.3));
#2215=CARTESIAN_POINT('Origin',(47.2543377801827,126.831510375134,9.3));
#2216=CARTESIAN_POINT('Origin',(47.2543377801827,-64.368489624866,9.));
#2217=CARTESIAN_POINT('',(48.2543377801827,-67.868489624866,9.));
#2218=CARTESIAN_POINT('',(46.2543377801827,-67.868489624866,9.));
#2219=CARTESIAN_POINT('',(48.2543377801827,-67.868489624866,9.));
#2220=CARTESIAN_POINT('',(48.2543377801827,-60.868489624866,9.));
#2221=CARTESIAN_POINT('',(48.2543377801827,-60.868489624866,9.));
#2222=CARTESIAN_POINT('',(46.2543377801827,-60.868489624866,9.));
#2223=CARTESIAN_POINT('',(46.2543377801827,-60.868489624866,9.));
#2224=CARTESIAN_POINT('',(46.2543377801827,-67.868489624866,9.));
#2225=CARTESIAN_POINT('Origin',(48.2543377801827,-67.868489624866,25.));
#2226=CARTESIAN_POINT('',(46.2543377801827,-67.868489624866,9.3));
#2227=CARTESIAN_POINT('',(48.2543377801827,-67.868489624866,9.3));
#2228=CARTESIAN_POINT('',(47.7543377801827,-67.868489624866,9.3));
#2229=CARTESIAN_POINT('',(48.2543377801827,-67.868489624866,25.));
#2230=CARTESIAN_POINT('',(46.2543377801827,-67.868489624866,25.));
#2231=CARTESIAN_POINT('Origin',(48.2543377801827,-60.868489624866,25.));
#2232=CARTESIAN_POINT('',(48.2543377801827,-60.868489624866,9.3));
#2233=CARTESIAN_POINT('',(48.2543377801827,-62.618489624866,9.3));
#2234=CARTESIAN_POINT('',(48.2543377801827,-60.868489624866,25.));
#2235=CARTESIAN_POINT('Origin',(46.2543377801827,-67.868489624866,25.));
#2236=CARTESIAN_POINT('',(46.2543377801827,-60.868489624866,9.3));
#2237=CARTESIAN_POINT('',(46.2543377801827,-66.118489624866,9.3));
#2238=CARTESIAN_POINT('',(46.2543377801827,-60.868489624866,25.));
#2239=CARTESIAN_POINT('Origin',(46.2543377801827,-60.868489624866,25.));
#2240=CARTESIAN_POINT('',(46.7543377801827,-60.868489624866,9.3));
#2241=CARTESIAN_POINT('Origin',(47.2543377801827,-64.368489624866,9.3));
#2242=UNCERTAINTY_MEASURE_WITH_UNIT(LENGTH_MEASURE(0.01),#2246,
'DISTANCE_ACCURACY_VALUE',
'Maximum model space distance between geometric entities at asserted c
onnectivities');
#2243=UNCERTAINTY_MEASURE_WITH_UNIT(LENGTH_MEASURE(0.01),#2246,
'DISTANCE_ACCURACY_VALUE',
'Maximum model space distance between geometric entities at asserted c
onnectivities');
#2244=(
GEOMETRIC_REPRESENTATION_CONTEXT(3)
GLOBAL_UNCERTAINTY_ASSIGNED_CONTEXT((#2242))
GLOBAL_UNIT_ASSIGNED_CONTEXT((#2246,#2248,#2249))
REPRESENTATION_CONTEXT('','3D')
);
#2245=(
GEOMETRIC_REPRESENTATION_CONTEXT(3)
GLOBAL_UNCERTAINTY_ASSIGNED_CONTEXT((#2243))
GLOBAL_UNIT_ASSIGNED_CONTEXT((#2246,#2248,#2249))
REPRESENTATION_CONTEXT('','3D')
);
#2246=(
LENGTH_UNIT()
NAMED_UNIT(*)
SI_UNIT(.MILLI.,.METRE.)
);
#2247=(
LENGTH_UNIT()
NAMED_UNIT(*)
SI_UNIT($,.METRE.)
);
#2248=(
NAMED_UNIT(*)
PLANE_ANGLE_UNIT()
SI_UNIT($,.RADIAN.)
);
#2249=(
NAMED_UNIT(*)
SI_UNIT($,.STERADIAN.)
SOLID_ANGLE_UNIT()
);
#2250=SHAPE_DEFINITION_REPRESENTATION(#2251,#2252);
#2251=PRODUCT_DEFINITION_SHAPE('',$,#2254);
#2252=SHAPE_REPRESENTATION('',(#1422),#2244);
#2253=PRODUCT_DEFINITION_CONTEXT('part definition',#2258,'design');
#2254=PRODUCT_DEFINITION('2026-08-16-07-33-37-758','Case Bottom',#2255,
#2253);
#2255=PRODUCT_DEFINITION_FORMATION('',$,#2260);
#2256=PRODUCT_RELATED_PRODUCT_CATEGORY('Case Bottom','Case Bottom',(#2260));
#2257=APPLICATION_PROTOCOL_DEFINITION('international standard',
'automotive_design',2009,#2258);
#2258=APPLICATION_CONTEXT(
'Core Data for Automotive Mechanical Design Process');
#2259=PRODUCT_CONTEXT('part definition',#2258,'mechanical');
#2260=PRODUCT('2026-08-16-07-33-37-758','Case Bottom',$,(#2259));
#2261=PRESENTATION_STYLE_ASSIGNMENT((#2262));
#2262=SURFACE_STYLE_USAGE(.BOTH.,#2263);
#2263=SURFACE_SIDE_STYLE('',(#2264));
#2264=SURFACE_STYLE_FILL_AREA(#2265);
#2265=FILL_AREA_STYLE('Steel - Satin',(#2266));
#2266=FILL_AREA_STYLE_COLOUR('Steel - Satin',#2267);
#2267=COLOUR_RGB('Steel - Satin',0.627450980392157,0.627450980392157,0.627450980392157);
ENDSEC;
END-ISO-10303-21;
