ISO-10303-21;
HEADER;
/* Generated by software containing ST-Developer
 * from STEP Tools, Inc. (www.steptools.com) 
 */

FILE_DESCRIPTION(
/* description */ (''),
/* implementation_level */ '2;1');

FILE_NAME(
/* name */ 'Case Top.step',
/* time_stamp */ '2026-08-26T13:36:47-05:00',
/* author */ (''),
/* organization */ (''),
/* preprocessor_version */ 'ST-DEVELOPER v20.1',
/* originating_system */ 'Autodesk Translation Framework v15.8.0.0',
/* authorisation */ '');

FILE_SCHEMA (('AUTOMOTIVE_DESIGN { 1 0 10303 214 3 1 1 }'));
ENDSEC;

DATA;
#10=MECHANICAL_DESIGN_GEOMETRIC_PRESENTATION_REPRESENTATION('',(#13),#533);
#11=SHAPE_REPRESENTATION_RELATIONSHIP('SRR','None',#540,#12);
#12=ADVANCED_BREP_SHAPE_REPRESENTATION('',(#14),#532);
#13=STYLED_ITEM('',(#549),#14);
#14=MANIFOLD_SOLID_BREP('Body3',#329);
#15=FACE_BOUND('',#60,.T.);
#16=FACE_BOUND('',#61,.T.);
#17=FACE_BOUND('',#62,.T.);
#18=FACE_BOUND('',#63,.T.);
#19=FACE_BOUND('',#65,.T.);
#20=FACE_BOUND('',#66,.T.);
#21=FACE_BOUND('',#67,.T.);
#22=FACE_BOUND('',#68,.T.);
#23=CIRCLE('',#352,1.00000000000001);
#24=CIRCLE('',#353,1.00000000000001);
#25=CIRCLE('',#355,0.999999999999996);
#26=CIRCLE('',#356,0.999999999999996);
#27=CYLINDRICAL_SURFACE('',#351,1.00000000000001);
#28=CYLINDRICAL_SURFACE('',#354,0.999999999999996);
#29=FACE_OUTER_BOUND('',#45,.T.);
#30=FACE_OUTER_BOUND('',#46,.T.);
#31=FACE_OUTER_BOUND('',#47,.T.);
#32=FACE_OUTER_BOUND('',#48,.T.);
#33=FACE_OUTER_BOUND('',#49,.T.);
#34=FACE_OUTER_BOUND('',#50,.T.);
#35=FACE_OUTER_BOUND('',#51,.T.);
#36=FACE_OUTER_BOUND('',#52,.T.);
#37=FACE_OUTER_BOUND('',#53,.T.);
#38=FACE_OUTER_BOUND('',#54,.T.);
#39=FACE_OUTER_BOUND('',#55,.T.);
#40=FACE_OUTER_BOUND('',#56,.T.);
#41=FACE_OUTER_BOUND('',#57,.T.);
#42=FACE_OUTER_BOUND('',#58,.T.);
#43=FACE_OUTER_BOUND('',#59,.T.);
#44=FACE_OUTER_BOUND('',#64,.T.);
#45=EDGE_LOOP('',(#215,#216,#217,#218));
#46=EDGE_LOOP('',(#219,#220,#221,#222));
#47=EDGE_LOOP('',(#223,#224,#225,#226));
#48=EDGE_LOOP('',(#227,#228,#229,#230));
#49=EDGE_LOOP('',(#231,#232,#233,#234));
#50=EDGE_LOOP('',(#235,#236,#237,#238));
#51=EDGE_LOOP('',(#239,#240,#241,#242));
#52=EDGE_LOOP('',(#243,#244,#245,#246));
#53=EDGE_LOOP('',(#247,#248,#249,#250));
#54=EDGE_LOOP('',(#251,#252,#253,#254));
#55=EDGE_LOOP('',(#255,#256,#257,#258));
#56=EDGE_LOOP('',(#259,#260,#261,#262));
#57=EDGE_LOOP('',(#263,#264,#265,#266));
#58=EDGE_LOOP('',(#267,#268,#269,#270));
#59=EDGE_LOOP('',(#271,#272,#273,#274));
#60=EDGE_LOOP('',(#275));
#61=EDGE_LOOP('',(#276));
#62=EDGE_LOOP('',(#277,#278,#279,#280));
#63=EDGE_LOOP('',(#281,#282,#283,#284));
#64=EDGE_LOOP('',(#285,#286,#287,#288));
#65=EDGE_LOOP('',(#289));
#66=EDGE_LOOP('',(#290));
#67=EDGE_LOOP('',(#291,#292,#293,#294));
#68=EDGE_LOOP('',(#295,#296,#297,#298));
#69=LINE('',#447,#107);
#70=LINE('',#449,#108);
#71=LINE('',#451,#109);
#72=LINE('',#452,#110);
#73=LINE('',#455,#111);
#74=LINE('',#457,#112);
#75=LINE('',#458,#113);
#76=LINE('',#461,#114);
#77=LINE('',#463,#115);
#78=LINE('',#464,#116);
#79=LINE('',#466,#117);
#80=LINE('',#467,#118);
#81=LINE('',#471,#119);
#82=LINE('',#473,#120);
#83=LINE('',#475,#121);
#84=LINE('',#476,#122);
#85=LINE('',#479,#123);
#86=LINE('',#481,#124);
#87=LINE('',#482,#125);
#88=LINE('',#485,#126);
#89=LINE('',#487,#127);
#90=LINE('',#488,#128);
#91=LINE('',#490,#129);
#92=LINE('',#491,#130);
#93=LINE('',#496,#131);
#94=LINE('',#502,#132);
#95=LINE('',#507,#133);
#96=LINE('',#509,#134);
#97=LINE('',#511,#135);
#98=LINE('',#512,#136);
#99=LINE('',#515,#137);
#100=LINE('',#517,#138);
#101=LINE('',#518,#139);
#102=LINE('',#521,#140);
#103=LINE('',#523,#141);
#104=LINE('',#524,#142);
#105=LINE('',#526,#143);
#106=LINE('',#527,#144);
#107=VECTOR('',#367,10.);
#108=VECTOR('',#368,10.);
#109=VECTOR('',#369,10.);
#110=VECTOR('',#370,10.);
#111=VECTOR('',#373,10.);
#112=VECTOR('',#374,10.);
#113=VECTOR('',#375,10.);
#114=VECTOR('',#378,10.);
#115=VECTOR('',#379,10.);
#116=VECTOR('',#380,10.);
#117=VECTOR('',#383,10.);
#118=VECTOR('',#384,10.);
#119=VECTOR('',#387,10.);
#120=VECTOR('',#388,10.);
#121=VECTOR('',#389,10.);
#122=VECTOR('',#390,10.);
#123=VECTOR('',#393,10.);
#124=VECTOR('',#394,10.);
#125=VECTOR('',#395,10.);
#126=VECTOR('',#398,10.);
#127=VECTOR('',#399,10.);
#128=VECTOR('',#400,10.);
#129=VECTOR('',#403,10.);
#130=VECTOR('',#404,10.);
#131=VECTOR('',#409,1.00000000000001);
#132=VECTOR('',#416,0.999999999999996);
#133=VECTOR('',#421,10.);
#134=VECTOR('',#422,10.);
#135=VECTOR('',#423,10.);
#136=VECTOR('',#424,10.);
#137=VECTOR('',#427,10.);
#138=VECTOR('',#428,10.);
#139=VECTOR('',#429,10.);
#140=VECTOR('',#432,10.);
#141=VECTOR('',#433,10.);
#142=VECTOR('',#434,10.);
#143=VECTOR('',#437,10.);
#144=VECTOR('',#438,10.);
#145=VERTEX_POINT('',#445);
#146=VERTEX_POINT('',#446);
#147=VERTEX_POINT('',#448);
#148=VERTEX_POINT('',#450);
#149=VERTEX_POINT('',#454);
#150=VERTEX_POINT('',#456);
#151=VERTEX_POINT('',#460);
#152=VERTEX_POINT('',#462);
#153=VERTEX_POINT('',#469);
#154=VERTEX_POINT('',#470);
#155=VERTEX_POINT('',#472);
#156=VERTEX_POINT('',#474);
#157=VERTEX_POINT('',#478);
#158=VERTEX_POINT('',#480);
#159=VERTEX_POINT('',#484);
#160=VERTEX_POINT('',#486);
#161=VERTEX_POINT('',#493);
#162=VERTEX_POINT('',#495);
#163=VERTEX_POINT('',#499);
#164=VERTEX_POINT('',#501);
#165=VERTEX_POINT('',#505);
#166=VERTEX_POINT('',#506);
#167=VERTEX_POINT('',#508);
#168=VERTEX_POINT('',#510);
#169=VERTEX_POINT('',#514);
#170=VERTEX_POINT('',#516);
#171=VERTEX_POINT('',#520);
#172=VERTEX_POINT('',#522);
#173=EDGE_CURVE('',#145,#146,#69,.T.);
#174=EDGE_CURVE('',#146,#147,#70,.T.);
#175=EDGE_CURVE('',#148,#147,#71,.T.);
#176=EDGE_CURVE('',#145,#148,#72,.T.);
#177=EDGE_CURVE('',#149,#145,#73,.T.);
#178=EDGE_CURVE('',#150,#148,#74,.T.);
#179=EDGE_CURVE('',#149,#150,#75,.T.);
#180=EDGE_CURVE('',#151,#149,#76,.T.);
#181=EDGE_CURVE('',#152,#150,#77,.T.);
#182=EDGE_CURVE('',#151,#152,#78,.T.);
#183=EDGE_CURVE('',#146,#151,#79,.T.);
#184=EDGE_CURVE('',#147,#152,#80,.T.);
#185=EDGE_CURVE('',#153,#154,#81,.T.);
#186=EDGE_CURVE('',#154,#155,#82,.T.);
#187=EDGE_CURVE('',#156,#155,#83,.T.);
#188=EDGE_CURVE('',#153,#156,#84,.T.);
#189=EDGE_CURVE('',#157,#153,#85,.T.);
#190=EDGE_CURVE('',#158,#156,#86,.T.);
#191=EDGE_CURVE('',#157,#158,#87,.T.);
#192=EDGE_CURVE('',#159,#157,#88,.T.);
#193=EDGE_CURVE('',#160,#158,#89,.T.);
#194=EDGE_CURVE('',#159,#160,#90,.T.);
#195=EDGE_CURVE('',#154,#159,#91,.T.);
#196=EDGE_CURVE('',#155,#160,#92,.T.);
#197=EDGE_CURVE('',#161,#161,#23,.T.);
#198=EDGE_CURVE('',#161,#162,#93,.T.);
#199=EDGE_CURVE('',#162,#162,#24,.T.);
#200=EDGE_CURVE('',#163,#163,#25,.T.);
#201=EDGE_CURVE('',#163,#164,#94,.T.);
#202=EDGE_CURVE('',#164,#164,#26,.T.);
#203=EDGE_CURVE('',#165,#166,#95,.T.);
#204=EDGE_CURVE('',#165,#167,#96,.T.);
#205=EDGE_CURVE('',#168,#167,#97,.T.);
#206=EDGE_CURVE('',#166,#168,#98,.T.);
#207=EDGE_CURVE('',#166,#169,#99,.T.);
#208=EDGE_CURVE('',#170,#168,#100,.T.);
#209=EDGE_CURVE('',#169,#170,#101,.T.);
#210=EDGE_CURVE('',#169,#171,#102,.T.);
#211=EDGE_CURVE('',#172,#170,#103,.T.);
#212=EDGE_CURVE('',#171,#172,#104,.T.);
#213=EDGE_CURVE('',#171,#165,#105,.T.);
#214=EDGE_CURVE('',#167,#172,#106,.T.);
#215=ORIENTED_EDGE('',*,*,#173,.T.);
#216=ORIENTED_EDGE('',*,*,#174,.T.);
#217=ORIENTED_EDGE('',*,*,#175,.F.);
#218=ORIENTED_EDGE('',*,*,#176,.F.);
#219=ORIENTED_EDGE('',*,*,#177,.T.);
#220=ORIENTED_EDGE('',*,*,#176,.T.);
#221=ORIENTED_EDGE('',*,*,#178,.F.);
#222=ORIENTED_EDGE('',*,*,#179,.F.);
#223=ORIENTED_EDGE('',*,*,#180,.T.);
#224=ORIENTED_EDGE('',*,*,#179,.T.);
#225=ORIENTED_EDGE('',*,*,#181,.F.);
#226=ORIENTED_EDGE('',*,*,#182,.F.);
#227=ORIENTED_EDGE('',*,*,#183,.T.);
#228=ORIENTED_EDGE('',*,*,#182,.T.);
#229=ORIENTED_EDGE('',*,*,#184,.F.);
#230=ORIENTED_EDGE('',*,*,#174,.F.);
#231=ORIENTED_EDGE('',*,*,#185,.T.);
#232=ORIENTED_EDGE('',*,*,#186,.T.);
#233=ORIENTED_EDGE('',*,*,#187,.F.);
#234=ORIENTED_EDGE('',*,*,#188,.F.);
#235=ORIENTED_EDGE('',*,*,#189,.T.);
#236=ORIENTED_EDGE('',*,*,#188,.T.);
#237=ORIENTED_EDGE('',*,*,#190,.F.);
#238=ORIENTED_EDGE('',*,*,#191,.F.);
#239=ORIENTED_EDGE('',*,*,#192,.T.);
#240=ORIENTED_EDGE('',*,*,#191,.T.);
#241=ORIENTED_EDGE('',*,*,#193,.F.);
#242=ORIENTED_EDGE('',*,*,#194,.F.);
#243=ORIENTED_EDGE('',*,*,#195,.T.);
#244=ORIENTED_EDGE('',*,*,#194,.T.);
#245=ORIENTED_EDGE('',*,*,#196,.F.);
#246=ORIENTED_EDGE('',*,*,#186,.F.);
#247=ORIENTED_EDGE('',*,*,#197,.F.);
#248=ORIENTED_EDGE('',*,*,#198,.T.);
#249=ORIENTED_EDGE('',*,*,#199,.T.);
#250=ORIENTED_EDGE('',*,*,#198,.F.);
#251=ORIENTED_EDGE('',*,*,#200,.F.);
#252=ORIENTED_EDGE('',*,*,#201,.T.);
#253=ORIENTED_EDGE('',*,*,#202,.T.);
#254=ORIENTED_EDGE('',*,*,#201,.F.);
#255=ORIENTED_EDGE('',*,*,#203,.F.);
#256=ORIENTED_EDGE('',*,*,#204,.T.);
#257=ORIENTED_EDGE('',*,*,#205,.F.);
#258=ORIENTED_EDGE('',*,*,#206,.F.);
#259=ORIENTED_EDGE('',*,*,#207,.F.);
#260=ORIENTED_EDGE('',*,*,#206,.T.);
#261=ORIENTED_EDGE('',*,*,#208,.F.);
#262=ORIENTED_EDGE('',*,*,#209,.F.);
#263=ORIENTED_EDGE('',*,*,#210,.F.);
#264=ORIENTED_EDGE('',*,*,#209,.T.);
#265=ORIENTED_EDGE('',*,*,#211,.F.);
#266=ORIENTED_EDGE('',*,*,#212,.F.);
#267=ORIENTED_EDGE('',*,*,#213,.F.);
#268=ORIENTED_EDGE('',*,*,#212,.T.);
#269=ORIENTED_EDGE('',*,*,#214,.F.);
#270=ORIENTED_EDGE('',*,*,#204,.F.);
#271=ORIENTED_EDGE('',*,*,#214,.T.);
#272=ORIENTED_EDGE('',*,*,#211,.T.);
#273=ORIENTED_EDGE('',*,*,#208,.T.);
#274=ORIENTED_EDGE('',*,*,#205,.T.);
#275=ORIENTED_EDGE('',*,*,#200,.T.);
#276=ORIENTED_EDGE('',*,*,#197,.T.);
#277=ORIENTED_EDGE('',*,*,#196,.T.);
#278=ORIENTED_EDGE('',*,*,#193,.T.);
#279=ORIENTED_EDGE('',*,*,#190,.T.);
#280=ORIENTED_EDGE('',*,*,#187,.T.);
#281=ORIENTED_EDGE('',*,*,#184,.T.);
#282=ORIENTED_EDGE('',*,*,#181,.T.);
#283=ORIENTED_EDGE('',*,*,#178,.T.);
#284=ORIENTED_EDGE('',*,*,#175,.T.);
#285=ORIENTED_EDGE('',*,*,#213,.T.);
#286=ORIENTED_EDGE('',*,*,#203,.T.);
#287=ORIENTED_EDGE('',*,*,#207,.T.);
#288=ORIENTED_EDGE('',*,*,#210,.T.);
#289=ORIENTED_EDGE('',*,*,#202,.F.);
#290=ORIENTED_EDGE('',*,*,#199,.F.);
#291=ORIENTED_EDGE('',*,*,#195,.F.);
#292=ORIENTED_EDGE('',*,*,#185,.F.);
#293=ORIENTED_EDGE('',*,*,#189,.F.);
#294=ORIENTED_EDGE('',*,*,#192,.F.);
#295=ORIENTED_EDGE('',*,*,#183,.F.);
#296=ORIENTED_EDGE('',*,*,#173,.F.);
#297=ORIENTED_EDGE('',*,*,#177,.F.);
#298=ORIENTED_EDGE('',*,*,#180,.F.);
#299=PLANE('',#343);
#300=PLANE('',#344);
#301=PLANE('',#345);
#302=PLANE('',#346);
#303=PLANE('',#347);
#304=PLANE('',#348);
#305=PLANE('',#349);
#306=PLANE('',#350);
#307=PLANE('',#357);
#308=PLANE('',#358);
#309=PLANE('',#359);
#310=PLANE('',#360);
#311=PLANE('',#361);
#312=PLANE('',#362);
#313=ADVANCED_FACE('',(#29),#299,.T.);
#314=ADVANCED_FACE('',(#30),#300,.T.);
#315=ADVANCED_FACE('',(#31),#301,.T.);
#316=ADVANCED_FACE('',(#32),#302,.T.);
#317=ADVANCED_FACE('',(#33),#303,.T.);
#318=ADVANCED_FACE('',(#34),#304,.T.);
#319=ADVANCED_FACE('',(#35),#305,.T.);
#320=ADVANCED_FACE('',(#36),#306,.T.);
#321=ADVANCED_FACE('',(#37),#27,.F.);
#322=ADVANCED_FACE('',(#38),#28,.F.);
#323=ADVANCED_FACE('',(#39),#307,.T.);
#324=ADVANCED_FACE('',(#40),#308,.T.);
#325=ADVANCED_FACE('',(#41),#309,.T.);
#326=ADVANCED_FACE('',(#42),#310,.T.);
#327=ADVANCED_FACE('',(#43,#15,#16,#17,#18),#311,.T.);
#328=ADVANCED_FACE('',(#44,#19,#20,#21,#22),#312,.F.);
#329=CLOSED_SHELL('',(#313,#314,#315,#316,#317,#318,#319,#320,#321,#322,
#323,#324,#325,#326,#327,#328));
#330=DERIVED_UNIT_ELEMENT(#332,1.);
#331=DERIVED_UNIT_ELEMENT(#535,-3.);
#332=(
MASS_UNIT()
NAMED_UNIT(*)
SI_UNIT(.KILO.,.GRAM.)
);
#333=DERIVED_UNIT((#330,#331));
#334=MEASURE_REPRESENTATION_ITEM('density measure',
POSITIVE_RATIO_MEASURE(7850.),#333);
#335=PROPERTY_DEFINITION_REPRESENTATION(#340,#337);
#336=PROPERTY_DEFINITION_REPRESENTATION(#341,#338);
#337=REPRESENTATION('material name',(#339),#532);
#338=REPRESENTATION('density',(#334),#532);
#339=DESCRIPTIVE_REPRESENTATION_ITEM('Steel','Steel');
#340=PROPERTY_DEFINITION('material property','material name',#542);
#341=PROPERTY_DEFINITION('material property','density of part',#542);
#342=AXIS2_PLACEMENT_3D('',#443,#363,#364);
#343=AXIS2_PLACEMENT_3D('',#444,#365,#366);
#344=AXIS2_PLACEMENT_3D('',#453,#371,#372);
#345=AXIS2_PLACEMENT_3D('',#459,#376,#377);
#346=AXIS2_PLACEMENT_3D('',#465,#381,#382);
#347=AXIS2_PLACEMENT_3D('',#468,#385,#386);
#348=AXIS2_PLACEMENT_3D('',#477,#391,#392);
#349=AXIS2_PLACEMENT_3D('',#483,#396,#397);
#350=AXIS2_PLACEMENT_3D('',#489,#401,#402);
#351=AXIS2_PLACEMENT_3D('',#492,#405,#406);
#352=AXIS2_PLACEMENT_3D('',#494,#407,#408);
#353=AXIS2_PLACEMENT_3D('',#497,#410,#411);
#354=AXIS2_PLACEMENT_3D('',#498,#412,#413);
#355=AXIS2_PLACEMENT_3D('',#500,#414,#415);
#356=AXIS2_PLACEMENT_3D('',#503,#417,#418);
#357=AXIS2_PLACEMENT_3D('',#504,#419,#420);
#358=AXIS2_PLACEMENT_3D('',#513,#425,#426);
#359=AXIS2_PLACEMENT_3D('',#519,#430,#431);
#360=AXIS2_PLACEMENT_3D('',#525,#435,#436);
#361=AXIS2_PLACEMENT_3D('',#528,#439,#440);
#362=AXIS2_PLACEMENT_3D('',#529,#441,#442);
#363=DIRECTION('axis',(0.,0.,1.));
#364=DIRECTION('refdir',(1.,0.,0.));
#365=DIRECTION('center_axis',(-1.,0.,0.));
#366=DIRECTION('ref_axis',(0.,-1.,0.));
#367=DIRECTION('',(0.,-1.,0.));
#368=DIRECTION('',(0.,0.,1.));
#369=DIRECTION('',(0.,-1.,0.));
#370=DIRECTION('',(0.,0.,1.));
#371=DIRECTION('center_axis',(0.,-1.,0.));
#372=DIRECTION('ref_axis',(1.,0.,0.));
#373=DIRECTION('',(1.,0.,0.));
#374=DIRECTION('',(1.,0.,0.));
#375=DIRECTION('',(0.,0.,1.));
#376=DIRECTION('center_axis',(1.,0.,0.));
#377=DIRECTION('ref_axis',(0.,1.,0.));
#378=DIRECTION('',(0.,1.,0.));
#379=DIRECTION('',(0.,1.,0.));
#380=DIRECTION('',(0.,0.,1.));
#381=DIRECTION('center_axis',(0.,1.,0.));
#382=DIRECTION('ref_axis',(-1.,0.,0.));
#383=DIRECTION('',(-1.,0.,0.));
#384=DIRECTION('',(-1.,0.,0.));
#385=DIRECTION('center_axis',(-1.,0.,0.));
#386=DIRECTION('ref_axis',(0.,-1.,0.));
#387=DIRECTION('',(0.,-1.,0.));
#388=DIRECTION('',(0.,0.,1.));
#389=DIRECTION('',(0.,-1.,0.));
#390=DIRECTION('',(0.,0.,1.));
#391=DIRECTION('center_axis',(0.,-1.,0.));
#392=DIRECTION('ref_axis',(1.,0.,0.));
#393=DIRECTION('',(1.,0.,0.));
#394=DIRECTION('',(1.,0.,0.));
#395=DIRECTION('',(0.,0.,1.));
#396=DIRECTION('center_axis',(1.,0.,0.));
#397=DIRECTION('ref_axis',(0.,1.,0.));
#398=DIRECTION('',(0.,1.,0.));
#399=DIRECTION('',(0.,1.,0.));
#400=DIRECTION('',(0.,0.,1.));
#401=DIRECTION('center_axis',(0.,1.,0.));
#402=DIRECTION('ref_axis',(-1.,0.,0.));
#403=DIRECTION('',(-1.,0.,0.));
#404=DIRECTION('',(-1.,0.,0.));
#405=DIRECTION('center_axis',(0.,0.,1.));
#406=DIRECTION('ref_axis',(1.,0.,0.));
#407=DIRECTION('center_axis',(0.,0.,-1.));
#408=DIRECTION('ref_axis',(1.,0.,0.));
#409=DIRECTION('',(0.,0.,-1.));
#410=DIRECTION('center_axis',(0.,0.,-1.));
#411=DIRECTION('ref_axis',(1.,0.,0.));
#412=DIRECTION('center_axis',(0.,0.,1.));
#413=DIRECTION('ref_axis',(1.,0.,0.));
#414=DIRECTION('center_axis',(0.,0.,-1.));
#415=DIRECTION('ref_axis',(1.,0.,0.));
#416=DIRECTION('',(0.,0.,-1.));
#417=DIRECTION('center_axis',(0.,0.,-1.));
#418=DIRECTION('ref_axis',(1.,0.,0.));
#419=DIRECTION('center_axis',(-1.,0.,0.));
#420=DIRECTION('ref_axis',(0.,-1.,0.));
#421=DIRECTION('',(0.,1.,0.));
#422=DIRECTION('',(0.,0.,1.));
#423=DIRECTION('',(0.,-1.,0.));
#424=DIRECTION('',(0.,0.,1.));
#425=DIRECTION('center_axis',(0.,1.,0.));
#426=DIRECTION('ref_axis',(-1.,0.,0.));
#427=DIRECTION('',(1.,0.,0.));
#428=DIRECTION('',(-1.,0.,0.));
#429=DIRECTION('',(0.,0.,1.));
#430=DIRECTION('center_axis',(1.,0.,0.));
#431=DIRECTION('ref_axis',(0.,1.,0.));
#432=DIRECTION('',(0.,-1.,0.));
#433=DIRECTION('',(0.,1.,0.));
#434=DIRECTION('',(0.,0.,1.));
#435=DIRECTION('center_axis',(0.,-1.,0.));
#436=DIRECTION('ref_axis',(1.,0.,0.));
#437=DIRECTION('',(-1.,0.,0.));
#438=DIRECTION('',(1.,0.,0.));
#439=DIRECTION('center_axis',(0.,0.,1.));
#440=DIRECTION('ref_axis',(1.,0.,0.));
#441=DIRECTION('center_axis',(0.,0.,1.));
#442=DIRECTION('ref_axis',(1.,0.,0.));
#443=CARTESIAN_POINT('',(0.,0.,0.));
#444=CARTESIAN_POINT('Origin',(96.1974507897333,54.2137385647871,0.));
#445=CARTESIAN_POINT('',(96.1974507897333,54.2137385647871,0.));
#446=CARTESIAN_POINT('',(96.1974507897333,-113.786261435213,0.));
#447=CARTESIAN_POINT('',(96.1974507897333,54.2137385647871,0.));
#448=CARTESIAN_POINT('',(96.1974507897333,-113.786261435213,3.));
#449=CARTESIAN_POINT('',(96.1974507897333,-113.786261435213,0.));
#450=CARTESIAN_POINT('',(96.1974507897333,54.2137385647871,3.));
#451=CARTESIAN_POINT('',(96.1974507897333,54.2137385647871,3.));
#452=CARTESIAN_POINT('',(96.1974507897333,54.2137385647871,0.));
#453=CARTESIAN_POINT('Origin',(-12.8025492102667,54.2137385647871,0.));
#454=CARTESIAN_POINT('',(-12.8025492102667,54.2137385647871,0.));
#455=CARTESIAN_POINT('',(-12.8025492102667,54.2137385647871,0.));
#456=CARTESIAN_POINT('',(-12.8025492102667,54.2137385647871,3.));
#457=CARTESIAN_POINT('',(-12.8025492102667,54.2137385647871,3.));
#458=CARTESIAN_POINT('',(-12.8025492102667,54.2137385647871,0.));
#459=CARTESIAN_POINT('Origin',(-12.8025492102667,-113.786261435213,0.));
#460=CARTESIAN_POINT('',(-12.8025492102667,-113.786261435213,0.));
#461=CARTESIAN_POINT('',(-12.8025492102667,-113.786261435213,0.));
#462=CARTESIAN_POINT('',(-12.8025492102667,-113.786261435213,3.));
#463=CARTESIAN_POINT('',(-12.8025492102667,-113.786261435213,3.));
#464=CARTESIAN_POINT('',(-12.8025492102667,-113.786261435213,0.));
#465=CARTESIAN_POINT('Origin',(96.1974507897333,-113.786261435213,0.));
#466=CARTESIAN_POINT('',(96.1974507897333,-113.786261435213,0.));
#467=CARTESIAN_POINT('',(96.1974507897333,-113.786261435213,3.));
#468=CARTESIAN_POINT('Origin',(63.2474507897333,-115.186261435213,0.));
#469=CARTESIAN_POINT('',(63.2474507897333,-115.186261435213,0.));
#470=CARTESIAN_POINT('',(63.2474507897333,-133.486261435213,0.));
#471=CARTESIAN_POINT('',(63.2474507897333,-115.186261435213,0.));
#472=CARTESIAN_POINT('',(63.2474507897333,-133.486261435213,3.));
#473=CARTESIAN_POINT('',(63.2474507897333,-133.486261435213,0.));
#474=CARTESIAN_POINT('',(63.2474507897333,-115.186261435213,3.));
#475=CARTESIAN_POINT('',(63.2474507897333,-115.186261435213,3.));
#476=CARTESIAN_POINT('',(63.2474507897333,-115.186261435213,0.));
#477=CARTESIAN_POINT('Origin',(25.9474507897333,-115.186261435213,0.));
#478=CARTESIAN_POINT('',(25.9474507897333,-115.186261435213,0.));
#479=CARTESIAN_POINT('',(25.9474507897333,-115.186261435213,0.));
#480=CARTESIAN_POINT('',(25.9474507897333,-115.186261435213,3.));
#481=CARTESIAN_POINT('',(25.9474507897333,-115.186261435213,3.));
#482=CARTESIAN_POINT('',(25.9474507897333,-115.186261435213,0.));
#483=CARTESIAN_POINT('Origin',(25.9474507897333,-133.486261435213,0.));
#484=CARTESIAN_POINT('',(25.9474507897333,-133.486261435213,0.));
#485=CARTESIAN_POINT('',(25.9474507897333,-133.486261435213,0.));
#486=CARTESIAN_POINT('',(25.9474507897333,-133.486261435213,3.));
#487=CARTESIAN_POINT('',(25.9474507897333,-133.486261435213,3.));
#488=CARTESIAN_POINT('',(25.9474507897333,-133.486261435213,0.));
#489=CARTESIAN_POINT('Origin',(63.2474507897333,-133.486261435213,0.));
#490=CARTESIAN_POINT('',(63.2474507897333,-133.486261435213,0.));
#491=CARTESIAN_POINT('',(63.2474507897333,-133.486261435213,3.));
#492=CARTESIAN_POINT('Origin',(65.4474507897333,-132.986261435213,0.));
#493=CARTESIAN_POINT('',(64.4474507897333,-132.986261435213,3.));
#494=CARTESIAN_POINT('Origin',(65.4474507897333,-132.986261435213,3.));
#495=CARTESIAN_POINT('',(64.4474507897333,-132.986261435213,0.));
#496=CARTESIAN_POINT('',(64.4474507897333,-132.986261435213,0.));
#497=CARTESIAN_POINT('Origin',(65.4474507897333,-132.986261435213,0.));
#498=CARTESIAN_POINT('Origin',(87.4474507897333,-132.986261435213,0.));
#499=CARTESIAN_POINT('',(86.4474507897333,-132.986261435213,3.));
#500=CARTESIAN_POINT('Origin',(87.4474507897333,-132.986261435213,3.));
#501=CARTESIAN_POINT('',(86.4474507897333,-132.986261435213,0.));
#502=CARTESIAN_POINT('',(86.4474507897333,-132.986261435213,0.));
#503=CARTESIAN_POINT('Origin',(87.4474507897333,-132.986261435213,0.));
#504=CARTESIAN_POINT('Origin',(-27.0525492102667,60.2137385647871,0.));
#505=CARTESIAN_POINT('',(-27.0525492102667,-145.986261435213,0.));
#506=CARTESIAN_POINT('',(-27.0525492102667,60.2137385647871,0.));
#507=CARTESIAN_POINT('',(-27.0525492102667,-145.986261435213,0.));
#508=CARTESIAN_POINT('',(-27.0525492102667,-145.986261435213,3.));
#509=CARTESIAN_POINT('',(-27.0525492102667,-145.986261435213,0.));
#510=CARTESIAN_POINT('',(-27.0525492102667,60.2137385647871,3.));
#511=CARTESIAN_POINT('',(-27.0525492102667,-145.986261435213,3.));
#512=CARTESIAN_POINT('',(-27.0525492102667,60.2137385647871,0.));
#513=CARTESIAN_POINT('Origin',(110.447450789733,60.2137385647871,0.));
#514=CARTESIAN_POINT('',(110.447450789733,60.2137385647871,0.));
#515=CARTESIAN_POINT('',(-27.0525492102667,60.2137385647871,0.));
#516=CARTESIAN_POINT('',(110.447450789733,60.2137385647871,3.));
#517=CARTESIAN_POINT('',(-27.0525492102667,60.2137385647871,3.));
#518=CARTESIAN_POINT('',(110.447450789733,60.2137385647871,0.));
#519=CARTESIAN_POINT('Origin',(110.447450789733,-145.986261435213,0.));
#520=CARTESIAN_POINT('',(110.447450789733,-145.986261435213,0.));
#521=CARTESIAN_POINT('',(110.447450789733,60.2137385647871,0.));
#522=CARTESIAN_POINT('',(110.447450789733,-145.986261435213,3.));
#523=CARTESIAN_POINT('',(110.447450789733,60.2137385647871,3.));
#524=CARTESIAN_POINT('',(110.447450789733,-145.986261435213,0.));
#525=CARTESIAN_POINT('Origin',(-27.0525492102667,-145.986261435213,0.));
#526=CARTESIAN_POINT('',(110.447450789733,-145.986261435213,0.));
#527=CARTESIAN_POINT('',(110.447450789733,-145.986261435213,3.));
#528=CARTESIAN_POINT('Origin',(41.6974507897333,-42.8862614352129,3.));
#529=CARTESIAN_POINT('Origin',(41.6974507897333,-42.8862614352129,0.));
#530=UNCERTAINTY_MEASURE_WITH_UNIT(LENGTH_MEASURE(0.01),#534,
'DISTANCE_ACCURACY_VALUE',
'Maximum model space distance between geometric entities at asserted c
onnectivities');
#531=UNCERTAINTY_MEASURE_WITH_UNIT(LENGTH_MEASURE(0.01),#534,
'DISTANCE_ACCURACY_VALUE',
'Maximum model space distance between geometric entities at asserted c
onnectivities');
#532=(
GEOMETRIC_REPRESENTATION_CONTEXT(3)
GLOBAL_UNCERTAINTY_ASSIGNED_CONTEXT((#530))
GLOBAL_UNIT_ASSIGNED_CONTEXT((#534,#536,#537))
REPRESENTATION_CONTEXT('','3D')
);
#533=(
GEOMETRIC_REPRESENTATION_CONTEXT(3)
GLOBAL_UNCERTAINTY_ASSIGNED_CONTEXT((#531))
GLOBAL_UNIT_ASSIGNED_CONTEXT((#534,#536,#537))
REPRESENTATION_CONTEXT('','3D')
);
#534=(
LENGTH_UNIT()
NAMED_UNIT(*)
SI_UNIT(.MILLI.,.METRE.)
);
#535=(
LENGTH_UNIT()
NAMED_UNIT(*)
SI_UNIT($,.METRE.)
);
#536=(
NAMED_UNIT(*)
PLANE_ANGLE_UNIT()
SI_UNIT($,.RADIAN.)
);
#537=(
NAMED_UNIT(*)
SI_UNIT($,.STERADIAN.)
SOLID_ANGLE_UNIT()
);
#538=SHAPE_DEFINITION_REPRESENTATION(#539,#540);
#539=PRODUCT_DEFINITION_SHAPE('',$,#542);
#540=SHAPE_REPRESENTATION('',(#342),#532);
#541=PRODUCT_DEFINITION_CONTEXT('part definition',#546,'design');
#542=PRODUCT_DEFINITION('2026-08-18-07-15-52-968','Case Top',#543,#541);
#543=PRODUCT_DEFINITION_FORMATION('',$,#548);
#544=PRODUCT_RELATED_PRODUCT_CATEGORY('Case Top','Case Top',(#548));
#545=APPLICATION_PROTOCOL_DEFINITION('international standard',
'automotive_design',2009,#546);
#546=APPLICATION_CONTEXT(
'Core Data for Automotive Mechanical Design Process');
#547=PRODUCT_CONTEXT('part definition',#546,'mechanical');
#548=PRODUCT('2026-08-18-07-15-52-968','Case Top',$,(#547));
#549=PRESENTATION_STYLE_ASSIGNMENT((#550));
#550=SURFACE_STYLE_USAGE(.BOTH.,#551);
#551=SURFACE_SIDE_STYLE('',(#552));
#552=SURFACE_STYLE_FILL_AREA(#553);
#553=FILL_AREA_STYLE('Steel - Satin',(#554));
#554=FILL_AREA_STYLE_COLOUR('Steel - Satin',#555);
#555=COLOUR_RGB('Steel - Satin',0.627450980392157,0.627450980392157,0.627450980392157);
ENDSEC;
END-ISO-10303-21;
