%TF.GenerationSoftware,KiCad,Pcbnew,10.0.4*%
%TF.CreationDate,2026-08-21T09:53:59-05:00*%
%TF.ProjectId,TheTomeOfBoundlessKnowlage,54686554-6f6d-4654-9f66-426f756e646c,rev?*%
%TF.SameCoordinates,Original*%
%TF.FileFunction,Soldermask,Bot*%
%TF.FilePolarity,Negative*%
%FSLAX46Y46*%
G04 Gerber Fmt 4.6, Leading zero omitted, Abs format (unit mm)*
G04 Created by KiCad (PCBNEW 10.0.4) date 2026-08-21 09:53:59*
%MOMM*%
%LPD*%
G01*
G04 APERTURE LIST*
%ADD10C,1.700000*%
%ADD11C,4.000000*%
%ADD12C,2.200000*%
%ADD13C,0.900000*%
%ADD14R,1.700000X1.700000*%
G04 APERTURE END LIST*
D10*
%TO.C,SW2*%
X129248843Y-138978171D03*
D11*
X134328843Y-138978171D03*
D10*
X139408843Y-138978171D03*
D12*
X136868843Y-133898171D03*
X130518843Y-136438171D03*
%TD*%
D10*
%TO.C,SW3*%
X148328843Y-138978171D03*
D11*
X153408843Y-138978171D03*
D10*
X158488843Y-138978171D03*
D12*
X155948843Y-133898171D03*
X149598843Y-136438171D03*
%TD*%
D13*
%TO.C,SW1*%
X202726463Y-98166139D03*
X202726463Y-95166139D03*
%TD*%
D14*
%TO.C,J1*%
X168027701Y-123753167D03*
D10*
X168027701Y-126293167D03*
X165487701Y-123753167D03*
X165487701Y-126293167D03*
X162947701Y-123753167D03*
X162947701Y-126293167D03*
X160407701Y-123753167D03*
X160407701Y-126293167D03*
X157867701Y-123753167D03*
X157867701Y-126293167D03*
X155327701Y-123753167D03*
X155327701Y-126293167D03*
X152787701Y-123753167D03*
X152787701Y-126293167D03*
X150247701Y-123753167D03*
X150247701Y-126293167D03*
X147707701Y-123753167D03*
X147707701Y-126293167D03*
X145167701Y-123753167D03*
X145167701Y-126293167D03*
X142627701Y-123753167D03*
X142627701Y-126293167D03*
X140087701Y-123753167D03*
X140087701Y-126293167D03*
X137547701Y-123753167D03*
X137547701Y-126293167D03*
X135007701Y-123753167D03*
X135007701Y-126293167D03*
X132467701Y-123753167D03*
X132467701Y-126293167D03*
X129927701Y-123753167D03*
X129927701Y-126293167D03*
X127387701Y-123753167D03*
X127387701Y-126293167D03*
X124847701Y-123753167D03*
X124847701Y-126293167D03*
X122307701Y-123753167D03*
X122307701Y-126293167D03*
X119767701Y-123753167D03*
X119767701Y-126293167D03*
%TD*%
M02*
