%TF.GenerationSoftware,KiCad,Pcbnew,10.0.4*%
%TF.CreationDate,2026-08-21T09:53:59-05:00*%
%TF.ProjectId,TheTomeOfBoundlessKnowlage,54686554-6f6d-4654-9f66-426f756e646c,rev?*%
%TF.SameCoordinates,Original*%
%TF.FileFunction,Legend,Top*%
%TF.FilePolarity,Positive*%
%FSLAX46Y46*%
G04 Gerber Fmt 4.6, Leading zero omitted, Abs format (unit mm)*
G04 Created by KiCad (PCBNEW 10.0.4) date 2026-08-21 09:53:59*
%MOMM*%
%LPD*%
G01*
G04 APERTURE LIST*
%ADD10C,0.200000*%
%ADD11C,0.150000*%
%ADD12C,0.106680*%
%ADD13C,0.152400*%
%ADD14C,0.120000*%
%ADD15C,0.100000*%
%ADD16C,0.127000*%
%ADD17C,0.504000*%
G04 APERTURE END LIST*
D10*
X176255161Y-125607768D02*
X178255161Y-125607768D01*
X178255161Y-125607768D02*
X178255161Y-126369673D01*
X178255161Y-126369673D02*
X178159923Y-126560149D01*
X178159923Y-126560149D02*
X178064685Y-126655387D01*
X178064685Y-126655387D02*
X177874209Y-126750625D01*
X177874209Y-126750625D02*
X177588495Y-126750625D01*
X177588495Y-126750625D02*
X177398019Y-126655387D01*
X177398019Y-126655387D02*
X177302780Y-126560149D01*
X177302780Y-126560149D02*
X177207542Y-126369673D01*
X177207542Y-126369673D02*
X177207542Y-125607768D01*
X176350400Y-128369673D02*
X176255161Y-128179197D01*
X176255161Y-128179197D02*
X176255161Y-127798244D01*
X176255161Y-127798244D02*
X176350400Y-127607768D01*
X176350400Y-127607768D02*
X176540876Y-127512530D01*
X176540876Y-127512530D02*
X177302780Y-127512530D01*
X177302780Y-127512530D02*
X177493257Y-127607768D01*
X177493257Y-127607768D02*
X177588495Y-127798244D01*
X177588495Y-127798244D02*
X177588495Y-128179197D01*
X177588495Y-128179197D02*
X177493257Y-128369673D01*
X177493257Y-128369673D02*
X177302780Y-128464911D01*
X177302780Y-128464911D02*
X177112304Y-128464911D01*
X177112304Y-128464911D02*
X176921828Y-127512530D01*
X177588495Y-129322054D02*
X176255161Y-129322054D01*
X177398019Y-129322054D02*
X177493257Y-129417292D01*
X177493257Y-129417292D02*
X177588495Y-129607768D01*
X177588495Y-129607768D02*
X177588495Y-129893483D01*
X177588495Y-129893483D02*
X177493257Y-130083959D01*
X177493257Y-130083959D02*
X177302780Y-130179197D01*
X177302780Y-130179197D02*
X176255161Y-130179197D01*
X176255161Y-131988721D02*
X178255161Y-131988721D01*
X176350400Y-131988721D02*
X176255161Y-131798245D01*
X176255161Y-131798245D02*
X176255161Y-131417292D01*
X176255161Y-131417292D02*
X176350400Y-131226816D01*
X176350400Y-131226816D02*
X176445638Y-131131578D01*
X176445638Y-131131578D02*
X176636114Y-131036340D01*
X176636114Y-131036340D02*
X177207542Y-131036340D01*
X177207542Y-131036340D02*
X177398019Y-131131578D01*
X177398019Y-131131578D02*
X177493257Y-131226816D01*
X177493257Y-131226816D02*
X177588495Y-131417292D01*
X177588495Y-131417292D02*
X177588495Y-131798245D01*
X177588495Y-131798245D02*
X177493257Y-131988721D01*
X176255161Y-132941102D02*
X177588495Y-132941102D01*
X177207542Y-132941102D02*
X177398019Y-133036340D01*
X177398019Y-133036340D02*
X177493257Y-133131578D01*
X177493257Y-133131578D02*
X177588495Y-133322054D01*
X177588495Y-133322054D02*
X177588495Y-133512531D01*
X177588495Y-133988721D02*
X176255161Y-134464911D01*
X177588495Y-134941102D02*
X176255161Y-134464911D01*
X176255161Y-134464911D02*
X175778971Y-134274435D01*
X175778971Y-134274435D02*
X175683733Y-134179197D01*
X175683733Y-134179197D02*
X175588495Y-133988721D01*
X176255161Y-135512531D02*
X177588495Y-136560150D01*
X177588495Y-135512531D02*
X176255161Y-136560150D01*
X178064685Y-138750627D02*
X178159923Y-138845865D01*
X178159923Y-138845865D02*
X178255161Y-139036341D01*
X178255161Y-139036341D02*
X178255161Y-139512532D01*
X178255161Y-139512532D02*
X178159923Y-139703008D01*
X178159923Y-139703008D02*
X178064685Y-139798246D01*
X178064685Y-139798246D02*
X177874209Y-139893484D01*
X177874209Y-139893484D02*
X177683733Y-139893484D01*
X177683733Y-139893484D02*
X177398019Y-139798246D01*
X177398019Y-139798246D02*
X176255161Y-138655389D01*
X176255161Y-138655389D02*
X176255161Y-139893484D01*
X178255161Y-141131579D02*
X178255161Y-141322056D01*
X178255161Y-141322056D02*
X178159923Y-141512532D01*
X178159923Y-141512532D02*
X178064685Y-141607770D01*
X178064685Y-141607770D02*
X177874209Y-141703008D01*
X177874209Y-141703008D02*
X177493257Y-141798246D01*
X177493257Y-141798246D02*
X177017066Y-141798246D01*
X177017066Y-141798246D02*
X176636114Y-141703008D01*
X176636114Y-141703008D02*
X176445638Y-141607770D01*
X176445638Y-141607770D02*
X176350400Y-141512532D01*
X176350400Y-141512532D02*
X176255161Y-141322056D01*
X176255161Y-141322056D02*
X176255161Y-141131579D01*
X176255161Y-141131579D02*
X176350400Y-140941103D01*
X176350400Y-140941103D02*
X176445638Y-140845865D01*
X176445638Y-140845865D02*
X176636114Y-140750627D01*
X176636114Y-140750627D02*
X177017066Y-140655389D01*
X177017066Y-140655389D02*
X177493257Y-140655389D01*
X177493257Y-140655389D02*
X177874209Y-140750627D01*
X177874209Y-140750627D02*
X178064685Y-140845865D01*
X178064685Y-140845865D02*
X178159923Y-140941103D01*
X178159923Y-140941103D02*
X178255161Y-141131579D01*
X178064685Y-142560151D02*
X178159923Y-142655389D01*
X178159923Y-142655389D02*
X178255161Y-142845865D01*
X178255161Y-142845865D02*
X178255161Y-143322056D01*
X178255161Y-143322056D02*
X178159923Y-143512532D01*
X178159923Y-143512532D02*
X178064685Y-143607770D01*
X178064685Y-143607770D02*
X177874209Y-143703008D01*
X177874209Y-143703008D02*
X177683733Y-143703008D01*
X177683733Y-143703008D02*
X177398019Y-143607770D01*
X177398019Y-143607770D02*
X176255161Y-142464913D01*
X176255161Y-142464913D02*
X176255161Y-143703008D01*
X178255161Y-145417294D02*
X178255161Y-145036341D01*
X178255161Y-145036341D02*
X178159923Y-144845865D01*
X178159923Y-144845865D02*
X178064685Y-144750627D01*
X178064685Y-144750627D02*
X177778971Y-144560151D01*
X177778971Y-144560151D02*
X177398019Y-144464913D01*
X177398019Y-144464913D02*
X176636114Y-144464913D01*
X176636114Y-144464913D02*
X176445638Y-144560151D01*
X176445638Y-144560151D02*
X176350400Y-144655389D01*
X176350400Y-144655389D02*
X176255161Y-144845865D01*
X176255161Y-144845865D02*
X176255161Y-145226818D01*
X176255161Y-145226818D02*
X176350400Y-145417294D01*
X176350400Y-145417294D02*
X176445638Y-145512532D01*
X176445638Y-145512532D02*
X176636114Y-145607770D01*
X176636114Y-145607770D02*
X177112304Y-145607770D01*
X177112304Y-145607770D02*
X177302780Y-145512532D01*
X177302780Y-145512532D02*
X177398019Y-145417294D01*
X177398019Y-145417294D02*
X177493257Y-145226818D01*
X177493257Y-145226818D02*
X177493257Y-144845865D01*
X177493257Y-144845865D02*
X177398019Y-144655389D01*
X177398019Y-144655389D02*
X177302780Y-144560151D01*
X177302780Y-144560151D02*
X177112304Y-144464913D01*
D11*
X185952381Y-144954819D02*
X185952381Y-143954819D01*
X185952381Y-143954819D02*
X186285714Y-144669104D01*
X186285714Y-144669104D02*
X186619047Y-143954819D01*
X186619047Y-143954819D02*
X186619047Y-144954819D01*
X187095238Y-144954819D02*
X187095238Y-143954819D01*
X188142856Y-144859580D02*
X188095237Y-144907200D01*
X188095237Y-144907200D02*
X187952380Y-144954819D01*
X187952380Y-144954819D02*
X187857142Y-144954819D01*
X187857142Y-144954819D02*
X187714285Y-144907200D01*
X187714285Y-144907200D02*
X187619047Y-144811961D01*
X187619047Y-144811961D02*
X187571428Y-144716723D01*
X187571428Y-144716723D02*
X187523809Y-144526247D01*
X187523809Y-144526247D02*
X187523809Y-144383390D01*
X187523809Y-144383390D02*
X187571428Y-144192914D01*
X187571428Y-144192914D02*
X187619047Y-144097676D01*
X187619047Y-144097676D02*
X187714285Y-144002438D01*
X187714285Y-144002438D02*
X187857142Y-143954819D01*
X187857142Y-143954819D02*
X187952380Y-143954819D01*
X187952380Y-143954819D02*
X188095237Y-144002438D01*
X188095237Y-144002438D02*
X188142856Y-144050057D01*
X188523809Y-144050057D02*
X188571428Y-144002438D01*
X188571428Y-144002438D02*
X188666666Y-143954819D01*
X188666666Y-143954819D02*
X188904761Y-143954819D01*
X188904761Y-143954819D02*
X188999999Y-144002438D01*
X188999999Y-144002438D02*
X189047618Y-144050057D01*
X189047618Y-144050057D02*
X189095237Y-144145295D01*
X189095237Y-144145295D02*
X189095237Y-144240533D01*
X189095237Y-144240533D02*
X189047618Y-144383390D01*
X189047618Y-144383390D02*
X188476190Y-144954819D01*
X188476190Y-144954819D02*
X189095237Y-144954819D01*
X190746798Y-122369290D02*
X190270607Y-122702623D01*
X190746798Y-122940718D02*
X189746798Y-122940718D01*
X189746798Y-122940718D02*
X189746798Y-122559766D01*
X189746798Y-122559766D02*
X189794417Y-122464528D01*
X189794417Y-122464528D02*
X189842036Y-122416909D01*
X189842036Y-122416909D02*
X189937274Y-122369290D01*
X189937274Y-122369290D02*
X190080131Y-122369290D01*
X190080131Y-122369290D02*
X190175369Y-122416909D01*
X190175369Y-122416909D02*
X190222988Y-122464528D01*
X190222988Y-122464528D02*
X190270607Y-122559766D01*
X190270607Y-122559766D02*
X190270607Y-122940718D01*
X190746798Y-121416909D02*
X190746798Y-121988337D01*
X190746798Y-121702623D02*
X189746798Y-121702623D01*
X189746798Y-121702623D02*
X189889655Y-121797861D01*
X189889655Y-121797861D02*
X189984893Y-121893099D01*
X189984893Y-121893099D02*
X190032512Y-121988337D01*
X142388420Y-144411618D02*
X141388420Y-144411618D01*
X141388420Y-144411618D02*
X141388420Y-144173523D01*
X141388420Y-144173523D02*
X141436039Y-144030666D01*
X141436039Y-144030666D02*
X141531277Y-143935428D01*
X141531277Y-143935428D02*
X141626515Y-143887809D01*
X141626515Y-143887809D02*
X141816991Y-143840190D01*
X141816991Y-143840190D02*
X141959848Y-143840190D01*
X141959848Y-143840190D02*
X142150324Y-143887809D01*
X142150324Y-143887809D02*
X142245562Y-143935428D01*
X142245562Y-143935428D02*
X142340801Y-144030666D01*
X142340801Y-144030666D02*
X142388420Y-144173523D01*
X142388420Y-144173523D02*
X142388420Y-144411618D01*
X141721753Y-142983047D02*
X142388420Y-142983047D01*
X141340801Y-143221142D02*
X142055086Y-143459237D01*
X142055086Y-143459237D02*
X142055086Y-142840190D01*
X156978559Y-120859580D02*
X156930940Y-120907200D01*
X156930940Y-120907200D02*
X156788083Y-120954819D01*
X156788083Y-120954819D02*
X156692845Y-120954819D01*
X156692845Y-120954819D02*
X156549988Y-120907200D01*
X156549988Y-120907200D02*
X156454750Y-120811961D01*
X156454750Y-120811961D02*
X156407131Y-120716723D01*
X156407131Y-120716723D02*
X156359512Y-120526247D01*
X156359512Y-120526247D02*
X156359512Y-120383390D01*
X156359512Y-120383390D02*
X156407131Y-120192914D01*
X156407131Y-120192914D02*
X156454750Y-120097676D01*
X156454750Y-120097676D02*
X156549988Y-120002438D01*
X156549988Y-120002438D02*
X156692845Y-119954819D01*
X156692845Y-119954819D02*
X156788083Y-119954819D01*
X156788083Y-119954819D02*
X156930940Y-120002438D01*
X156930940Y-120002438D02*
X156978559Y-120050057D01*
X157835702Y-119954819D02*
X157645226Y-119954819D01*
X157645226Y-119954819D02*
X157549988Y-120002438D01*
X157549988Y-120002438D02*
X157502369Y-120050057D01*
X157502369Y-120050057D02*
X157407131Y-120192914D01*
X157407131Y-120192914D02*
X157359512Y-120383390D01*
X157359512Y-120383390D02*
X157359512Y-120764342D01*
X157359512Y-120764342D02*
X157407131Y-120859580D01*
X157407131Y-120859580D02*
X157454750Y-120907200D01*
X157454750Y-120907200D02*
X157549988Y-120954819D01*
X157549988Y-120954819D02*
X157740464Y-120954819D01*
X157740464Y-120954819D02*
X157835702Y-120907200D01*
X157835702Y-120907200D02*
X157883321Y-120859580D01*
X157883321Y-120859580D02*
X157930940Y-120764342D01*
X157930940Y-120764342D02*
X157930940Y-120526247D01*
X157930940Y-120526247D02*
X157883321Y-120431009D01*
X157883321Y-120431009D02*
X157835702Y-120383390D01*
X157835702Y-120383390D02*
X157740464Y-120335771D01*
X157740464Y-120335771D02*
X157549988Y-120335771D01*
X157549988Y-120335771D02*
X157454750Y-120383390D01*
X157454750Y-120383390D02*
X157407131Y-120431009D01*
X157407131Y-120431009D02*
X157359512Y-120526247D01*
X163527381Y-144804819D02*
X163527381Y-143804819D01*
X163527381Y-143804819D02*
X163860714Y-144519104D01*
X163860714Y-144519104D02*
X164194047Y-143804819D01*
X164194047Y-143804819D02*
X164194047Y-144804819D01*
X164670238Y-144804819D02*
X164670238Y-143804819D01*
X165717856Y-144709580D02*
X165670237Y-144757200D01*
X165670237Y-144757200D02*
X165527380Y-144804819D01*
X165527380Y-144804819D02*
X165432142Y-144804819D01*
X165432142Y-144804819D02*
X165289285Y-144757200D01*
X165289285Y-144757200D02*
X165194047Y-144661961D01*
X165194047Y-144661961D02*
X165146428Y-144566723D01*
X165146428Y-144566723D02*
X165098809Y-144376247D01*
X165098809Y-144376247D02*
X165098809Y-144233390D01*
X165098809Y-144233390D02*
X165146428Y-144042914D01*
X165146428Y-144042914D02*
X165194047Y-143947676D01*
X165194047Y-143947676D02*
X165289285Y-143852438D01*
X165289285Y-143852438D02*
X165432142Y-143804819D01*
X165432142Y-143804819D02*
X165527380Y-143804819D01*
X165527380Y-143804819D02*
X165670237Y-143852438D01*
X165670237Y-143852438D02*
X165717856Y-143900057D01*
X166670237Y-144804819D02*
X166098809Y-144804819D01*
X166384523Y-144804819D02*
X166384523Y-143804819D01*
X166384523Y-143804819D02*
X166289285Y-143947676D01*
X166289285Y-143947676D02*
X166194047Y-144042914D01*
X166194047Y-144042914D02*
X166098809Y-144090533D01*
X163527306Y-143463865D02*
X163574926Y-143511484D01*
X163574926Y-143511484D02*
X163622545Y-143654341D01*
X163622545Y-143654341D02*
X163622545Y-143749579D01*
X163622545Y-143749579D02*
X163574926Y-143892436D01*
X163574926Y-143892436D02*
X163479687Y-143987674D01*
X163479687Y-143987674D02*
X163384449Y-144035293D01*
X163384449Y-144035293D02*
X163193973Y-144082912D01*
X163193973Y-144082912D02*
X163051116Y-144082912D01*
X163051116Y-144082912D02*
X162860640Y-144035293D01*
X162860640Y-144035293D02*
X162765402Y-143987674D01*
X162765402Y-143987674D02*
X162670164Y-143892436D01*
X162670164Y-143892436D02*
X162622545Y-143749579D01*
X162622545Y-143749579D02*
X162622545Y-143654341D01*
X162622545Y-143654341D02*
X162670164Y-143511484D01*
X162670164Y-143511484D02*
X162717783Y-143463865D01*
X162955878Y-142606722D02*
X163622545Y-142606722D01*
X162574926Y-142844817D02*
X163289211Y-143082912D01*
X163289211Y-143082912D02*
X163289211Y-142463865D01*
X126954819Y-139738094D02*
X125954819Y-139738094D01*
X125954819Y-139738094D02*
X125954819Y-139499999D01*
X125954819Y-139499999D02*
X126002438Y-139357142D01*
X126002438Y-139357142D02*
X126097676Y-139261904D01*
X126097676Y-139261904D02*
X126192914Y-139214285D01*
X126192914Y-139214285D02*
X126383390Y-139166666D01*
X126383390Y-139166666D02*
X126526247Y-139166666D01*
X126526247Y-139166666D02*
X126716723Y-139214285D01*
X126716723Y-139214285D02*
X126811961Y-139261904D01*
X126811961Y-139261904D02*
X126907200Y-139357142D01*
X126907200Y-139357142D02*
X126954819Y-139499999D01*
X126954819Y-139499999D02*
X126954819Y-139738094D01*
X125954819Y-138833332D02*
X125954819Y-138214285D01*
X125954819Y-138214285D02*
X126335771Y-138547618D01*
X126335771Y-138547618D02*
X126335771Y-138404761D01*
X126335771Y-138404761D02*
X126383390Y-138309523D01*
X126383390Y-138309523D02*
X126431009Y-138261904D01*
X126431009Y-138261904D02*
X126526247Y-138214285D01*
X126526247Y-138214285D02*
X126764342Y-138214285D01*
X126764342Y-138214285D02*
X126859580Y-138261904D01*
X126859580Y-138261904D02*
X126907200Y-138309523D01*
X126907200Y-138309523D02*
X126954819Y-138404761D01*
X126954819Y-138404761D02*
X126954819Y-138690475D01*
X126954819Y-138690475D02*
X126907200Y-138785713D01*
X126907200Y-138785713D02*
X126859580Y-138833332D01*
X132995510Y-131511371D02*
X133138367Y-131558990D01*
X133138367Y-131558990D02*
X133376462Y-131558990D01*
X133376462Y-131558990D02*
X133471700Y-131511371D01*
X133471700Y-131511371D02*
X133519319Y-131463751D01*
X133519319Y-131463751D02*
X133566938Y-131368513D01*
X133566938Y-131368513D02*
X133566938Y-131273275D01*
X133566938Y-131273275D02*
X133519319Y-131178037D01*
X133519319Y-131178037D02*
X133471700Y-131130418D01*
X133471700Y-131130418D02*
X133376462Y-131082799D01*
X133376462Y-131082799D02*
X133185986Y-131035180D01*
X133185986Y-131035180D02*
X133090748Y-130987561D01*
X133090748Y-130987561D02*
X133043129Y-130939942D01*
X133043129Y-130939942D02*
X132995510Y-130844704D01*
X132995510Y-130844704D02*
X132995510Y-130749466D01*
X132995510Y-130749466D02*
X133043129Y-130654228D01*
X133043129Y-130654228D02*
X133090748Y-130606609D01*
X133090748Y-130606609D02*
X133185986Y-130558990D01*
X133185986Y-130558990D02*
X133424081Y-130558990D01*
X133424081Y-130558990D02*
X133566938Y-130606609D01*
X133900272Y-130558990D02*
X134138367Y-131558990D01*
X134138367Y-131558990D02*
X134328843Y-130844704D01*
X134328843Y-130844704D02*
X134519319Y-131558990D01*
X134519319Y-131558990D02*
X134757415Y-130558990D01*
X135090748Y-130654228D02*
X135138367Y-130606609D01*
X135138367Y-130606609D02*
X135233605Y-130558990D01*
X135233605Y-130558990D02*
X135471700Y-130558990D01*
X135471700Y-130558990D02*
X135566938Y-130606609D01*
X135566938Y-130606609D02*
X135614557Y-130654228D01*
X135614557Y-130654228D02*
X135662176Y-130749466D01*
X135662176Y-130749466D02*
X135662176Y-130844704D01*
X135662176Y-130844704D02*
X135614557Y-130987561D01*
X135614557Y-130987561D02*
X135043129Y-131558990D01*
X135043129Y-131558990D02*
X135662176Y-131558990D01*
X172413222Y-126338801D02*
X172460842Y-126386420D01*
X172460842Y-126386420D02*
X172508461Y-126529277D01*
X172508461Y-126529277D02*
X172508461Y-126624515D01*
X172508461Y-126624515D02*
X172460842Y-126767372D01*
X172460842Y-126767372D02*
X172365603Y-126862610D01*
X172365603Y-126862610D02*
X172270365Y-126910229D01*
X172270365Y-126910229D02*
X172079889Y-126957848D01*
X172079889Y-126957848D02*
X171937032Y-126957848D01*
X171937032Y-126957848D02*
X171746556Y-126910229D01*
X171746556Y-126910229D02*
X171651318Y-126862610D01*
X171651318Y-126862610D02*
X171556080Y-126767372D01*
X171556080Y-126767372D02*
X171508461Y-126624515D01*
X171508461Y-126624515D02*
X171508461Y-126529277D01*
X171508461Y-126529277D02*
X171556080Y-126386420D01*
X171556080Y-126386420D02*
X171603699Y-126338801D01*
X171603699Y-125957848D02*
X171556080Y-125910229D01*
X171556080Y-125910229D02*
X171508461Y-125814991D01*
X171508461Y-125814991D02*
X171508461Y-125576896D01*
X171508461Y-125576896D02*
X171556080Y-125481658D01*
X171556080Y-125481658D02*
X171603699Y-125434039D01*
X171603699Y-125434039D02*
X171698937Y-125386420D01*
X171698937Y-125386420D02*
X171794175Y-125386420D01*
X171794175Y-125386420D02*
X171937032Y-125434039D01*
X171937032Y-125434039D02*
X172508461Y-126005467D01*
X172508461Y-126005467D02*
X172508461Y-125386420D01*
X187954819Y-112833333D02*
X188669104Y-112833333D01*
X188669104Y-112833333D02*
X188811961Y-112880952D01*
X188811961Y-112880952D02*
X188907200Y-112976190D01*
X188907200Y-112976190D02*
X188954819Y-113119047D01*
X188954819Y-113119047D02*
X188954819Y-113214285D01*
X188050057Y-112404761D02*
X188002438Y-112357142D01*
X188002438Y-112357142D02*
X187954819Y-112261904D01*
X187954819Y-112261904D02*
X187954819Y-112023809D01*
X187954819Y-112023809D02*
X188002438Y-111928571D01*
X188002438Y-111928571D02*
X188050057Y-111880952D01*
X188050057Y-111880952D02*
X188145295Y-111833333D01*
X188145295Y-111833333D02*
X188240533Y-111833333D01*
X188240533Y-111833333D02*
X188383390Y-111880952D01*
X188383390Y-111880952D02*
X188954819Y-112452380D01*
X188954819Y-112452380D02*
X188954819Y-111833333D01*
X154008333Y-120954819D02*
X153675000Y-120478628D01*
X153436905Y-120954819D02*
X153436905Y-119954819D01*
X153436905Y-119954819D02*
X153817857Y-119954819D01*
X153817857Y-119954819D02*
X153913095Y-120002438D01*
X153913095Y-120002438D02*
X153960714Y-120050057D01*
X153960714Y-120050057D02*
X154008333Y-120145295D01*
X154008333Y-120145295D02*
X154008333Y-120288152D01*
X154008333Y-120288152D02*
X153960714Y-120383390D01*
X153960714Y-120383390D02*
X153913095Y-120431009D01*
X153913095Y-120431009D02*
X153817857Y-120478628D01*
X153817857Y-120478628D02*
X153436905Y-120478628D01*
X154913095Y-119954819D02*
X154436905Y-119954819D01*
X154436905Y-119954819D02*
X154389286Y-120431009D01*
X154389286Y-120431009D02*
X154436905Y-120383390D01*
X154436905Y-120383390D02*
X154532143Y-120335771D01*
X154532143Y-120335771D02*
X154770238Y-120335771D01*
X154770238Y-120335771D02*
X154865476Y-120383390D01*
X154865476Y-120383390D02*
X154913095Y-120431009D01*
X154913095Y-120431009D02*
X154960714Y-120526247D01*
X154960714Y-120526247D02*
X154960714Y-120764342D01*
X154960714Y-120764342D02*
X154913095Y-120859580D01*
X154913095Y-120859580D02*
X154865476Y-120907200D01*
X154865476Y-120907200D02*
X154770238Y-120954819D01*
X154770238Y-120954819D02*
X154532143Y-120954819D01*
X154532143Y-120954819D02*
X154436905Y-120907200D01*
X154436905Y-120907200D02*
X154389286Y-120859580D01*
X193262674Y-149347095D02*
X193215055Y-149394715D01*
X193215055Y-149394715D02*
X193072198Y-149442334D01*
X193072198Y-149442334D02*
X192976960Y-149442334D01*
X192976960Y-149442334D02*
X192834103Y-149394715D01*
X192834103Y-149394715D02*
X192738865Y-149299476D01*
X192738865Y-149299476D02*
X192691246Y-149204238D01*
X192691246Y-149204238D02*
X192643627Y-149013762D01*
X192643627Y-149013762D02*
X192643627Y-148870905D01*
X192643627Y-148870905D02*
X192691246Y-148680429D01*
X192691246Y-148680429D02*
X192738865Y-148585191D01*
X192738865Y-148585191D02*
X192834103Y-148489953D01*
X192834103Y-148489953D02*
X192976960Y-148442334D01*
X192976960Y-148442334D02*
X193072198Y-148442334D01*
X193072198Y-148442334D02*
X193215055Y-148489953D01*
X193215055Y-148489953D02*
X193262674Y-148537572D01*
X193738865Y-149442334D02*
X193929341Y-149442334D01*
X193929341Y-149442334D02*
X194024579Y-149394715D01*
X194024579Y-149394715D02*
X194072198Y-149347095D01*
X194072198Y-149347095D02*
X194167436Y-149204238D01*
X194167436Y-149204238D02*
X194215055Y-149013762D01*
X194215055Y-149013762D02*
X194215055Y-148632810D01*
X194215055Y-148632810D02*
X194167436Y-148537572D01*
X194167436Y-148537572D02*
X194119817Y-148489953D01*
X194119817Y-148489953D02*
X194024579Y-148442334D01*
X194024579Y-148442334D02*
X193834103Y-148442334D01*
X193834103Y-148442334D02*
X193738865Y-148489953D01*
X193738865Y-148489953D02*
X193691246Y-148537572D01*
X193691246Y-148537572D02*
X193643627Y-148632810D01*
X193643627Y-148632810D02*
X193643627Y-148870905D01*
X193643627Y-148870905D02*
X193691246Y-148966143D01*
X193691246Y-148966143D02*
X193738865Y-149013762D01*
X193738865Y-149013762D02*
X193834103Y-149061381D01*
X193834103Y-149061381D02*
X194024579Y-149061381D01*
X194024579Y-149061381D02*
X194119817Y-149013762D01*
X194119817Y-149013762D02*
X194167436Y-148966143D01*
X194167436Y-148966143D02*
X194215055Y-148870905D01*
D12*
X182032547Y-134948557D02*
X182680166Y-134948557D01*
X182680166Y-134948557D02*
X182756356Y-134911304D01*
X182756356Y-134911304D02*
X182794452Y-134874050D01*
X182794452Y-134874050D02*
X182832547Y-134799544D01*
X182832547Y-134799544D02*
X182832547Y-134650530D01*
X182832547Y-134650530D02*
X182794452Y-134576024D01*
X182794452Y-134576024D02*
X182756356Y-134538770D01*
X182756356Y-134538770D02*
X182680166Y-134501517D01*
X182680166Y-134501517D02*
X182032547Y-134501517D01*
X182032547Y-134203491D02*
X182032547Y-133719197D01*
X182032547Y-133719197D02*
X182337309Y-133979971D01*
X182337309Y-133979971D02*
X182337309Y-133868211D01*
X182337309Y-133868211D02*
X182375404Y-133793704D01*
X182375404Y-133793704D02*
X182413499Y-133756451D01*
X182413499Y-133756451D02*
X182489690Y-133719197D01*
X182489690Y-133719197D02*
X182680166Y-133719197D01*
X182680166Y-133719197D02*
X182756356Y-133756451D01*
X182756356Y-133756451D02*
X182794452Y-133793704D01*
X182794452Y-133793704D02*
X182832547Y-133868211D01*
X182832547Y-133868211D02*
X182832547Y-134091731D01*
X182832547Y-134091731D02*
X182794452Y-134166237D01*
X182794452Y-134166237D02*
X182756356Y-134203491D01*
D11*
X152075510Y-131511371D02*
X152218367Y-131558990D01*
X152218367Y-131558990D02*
X152456462Y-131558990D01*
X152456462Y-131558990D02*
X152551700Y-131511371D01*
X152551700Y-131511371D02*
X152599319Y-131463751D01*
X152599319Y-131463751D02*
X152646938Y-131368513D01*
X152646938Y-131368513D02*
X152646938Y-131273275D01*
X152646938Y-131273275D02*
X152599319Y-131178037D01*
X152599319Y-131178037D02*
X152551700Y-131130418D01*
X152551700Y-131130418D02*
X152456462Y-131082799D01*
X152456462Y-131082799D02*
X152265986Y-131035180D01*
X152265986Y-131035180D02*
X152170748Y-130987561D01*
X152170748Y-130987561D02*
X152123129Y-130939942D01*
X152123129Y-130939942D02*
X152075510Y-130844704D01*
X152075510Y-130844704D02*
X152075510Y-130749466D01*
X152075510Y-130749466D02*
X152123129Y-130654228D01*
X152123129Y-130654228D02*
X152170748Y-130606609D01*
X152170748Y-130606609D02*
X152265986Y-130558990D01*
X152265986Y-130558990D02*
X152504081Y-130558990D01*
X152504081Y-130558990D02*
X152646938Y-130606609D01*
X152980272Y-130558990D02*
X153218367Y-131558990D01*
X153218367Y-131558990D02*
X153408843Y-130844704D01*
X153408843Y-130844704D02*
X153599319Y-131558990D01*
X153599319Y-131558990D02*
X153837415Y-130558990D01*
X154123129Y-130558990D02*
X154742176Y-130558990D01*
X154742176Y-130558990D02*
X154408843Y-130939942D01*
X154408843Y-130939942D02*
X154551700Y-130939942D01*
X154551700Y-130939942D02*
X154646938Y-130987561D01*
X154646938Y-130987561D02*
X154694557Y-131035180D01*
X154694557Y-131035180D02*
X154742176Y-131130418D01*
X154742176Y-131130418D02*
X154742176Y-131368513D01*
X154742176Y-131368513D02*
X154694557Y-131463751D01*
X154694557Y-131463751D02*
X154646938Y-131511371D01*
X154646938Y-131511371D02*
X154551700Y-131558990D01*
X154551700Y-131558990D02*
X154265986Y-131558990D01*
X154265986Y-131558990D02*
X154170748Y-131511371D01*
X154170748Y-131511371D02*
X154123129Y-131463751D01*
X197627721Y-145359580D02*
X197580102Y-145407200D01*
X197580102Y-145407200D02*
X197437245Y-145454819D01*
X197437245Y-145454819D02*
X197342007Y-145454819D01*
X197342007Y-145454819D02*
X197199150Y-145407200D01*
X197199150Y-145407200D02*
X197103912Y-145311961D01*
X197103912Y-145311961D02*
X197056293Y-145216723D01*
X197056293Y-145216723D02*
X197008674Y-145026247D01*
X197008674Y-145026247D02*
X197008674Y-144883390D01*
X197008674Y-144883390D02*
X197056293Y-144692914D01*
X197056293Y-144692914D02*
X197103912Y-144597676D01*
X197103912Y-144597676D02*
X197199150Y-144502438D01*
X197199150Y-144502438D02*
X197342007Y-144454819D01*
X197342007Y-144454819D02*
X197437245Y-144454819D01*
X197437245Y-144454819D02*
X197580102Y-144502438D01*
X197580102Y-144502438D02*
X197627721Y-144550057D01*
X198532483Y-144454819D02*
X198056293Y-144454819D01*
X198056293Y-144454819D02*
X198008674Y-144931009D01*
X198008674Y-144931009D02*
X198056293Y-144883390D01*
X198056293Y-144883390D02*
X198151531Y-144835771D01*
X198151531Y-144835771D02*
X198389626Y-144835771D01*
X198389626Y-144835771D02*
X198484864Y-144883390D01*
X198484864Y-144883390D02*
X198532483Y-144931009D01*
X198532483Y-144931009D02*
X198580102Y-145026247D01*
X198580102Y-145026247D02*
X198580102Y-145264342D01*
X198580102Y-145264342D02*
X198532483Y-145359580D01*
X198532483Y-145359580D02*
X198484864Y-145407200D01*
X198484864Y-145407200D02*
X198389626Y-145454819D01*
X198389626Y-145454819D02*
X198151531Y-145454819D01*
X198151531Y-145454819D02*
X198056293Y-145407200D01*
X198056293Y-145407200D02*
X198008674Y-145359580D01*
X126720371Y-135280151D02*
X126244180Y-135613484D01*
X126720371Y-135851579D02*
X125720371Y-135851579D01*
X125720371Y-135851579D02*
X125720371Y-135470627D01*
X125720371Y-135470627D02*
X125767990Y-135375389D01*
X125767990Y-135375389D02*
X125815609Y-135327770D01*
X125815609Y-135327770D02*
X125910847Y-135280151D01*
X125910847Y-135280151D02*
X126053704Y-135280151D01*
X126053704Y-135280151D02*
X126148942Y-135327770D01*
X126148942Y-135327770D02*
X126196561Y-135375389D01*
X126196561Y-135375389D02*
X126244180Y-135470627D01*
X126244180Y-135470627D02*
X126244180Y-135851579D01*
X126053704Y-134423008D02*
X126720371Y-134423008D01*
X125672752Y-134661103D02*
X126387037Y-134899198D01*
X126387037Y-134899198D02*
X126387037Y-134280151D01*
X188193383Y-122340919D02*
X187717192Y-122674252D01*
X188193383Y-122912347D02*
X187193383Y-122912347D01*
X187193383Y-122912347D02*
X187193383Y-122531395D01*
X187193383Y-122531395D02*
X187241002Y-122436157D01*
X187241002Y-122436157D02*
X187288621Y-122388538D01*
X187288621Y-122388538D02*
X187383859Y-122340919D01*
X187383859Y-122340919D02*
X187526716Y-122340919D01*
X187526716Y-122340919D02*
X187621954Y-122388538D01*
X187621954Y-122388538D02*
X187669573Y-122436157D01*
X187669573Y-122436157D02*
X187717192Y-122531395D01*
X187717192Y-122531395D02*
X187717192Y-122912347D01*
X187288621Y-121959966D02*
X187241002Y-121912347D01*
X187241002Y-121912347D02*
X187193383Y-121817109D01*
X187193383Y-121817109D02*
X187193383Y-121579014D01*
X187193383Y-121579014D02*
X187241002Y-121483776D01*
X187241002Y-121483776D02*
X187288621Y-121436157D01*
X187288621Y-121436157D02*
X187383859Y-121388538D01*
X187383859Y-121388538D02*
X187479097Y-121388538D01*
X187479097Y-121388538D02*
X187621954Y-121436157D01*
X187621954Y-121436157D02*
X188193383Y-122007585D01*
X188193383Y-122007585D02*
X188193383Y-121388538D01*
X199603663Y-97999471D02*
X199651282Y-97856614D01*
X199651282Y-97856614D02*
X199651282Y-97618519D01*
X199651282Y-97618519D02*
X199603663Y-97523281D01*
X199603663Y-97523281D02*
X199556043Y-97475662D01*
X199556043Y-97475662D02*
X199460805Y-97428043D01*
X199460805Y-97428043D02*
X199365567Y-97428043D01*
X199365567Y-97428043D02*
X199270329Y-97475662D01*
X199270329Y-97475662D02*
X199222710Y-97523281D01*
X199222710Y-97523281D02*
X199175091Y-97618519D01*
X199175091Y-97618519D02*
X199127472Y-97808995D01*
X199127472Y-97808995D02*
X199079853Y-97904233D01*
X199079853Y-97904233D02*
X199032234Y-97951852D01*
X199032234Y-97951852D02*
X198936996Y-97999471D01*
X198936996Y-97999471D02*
X198841758Y-97999471D01*
X198841758Y-97999471D02*
X198746520Y-97951852D01*
X198746520Y-97951852D02*
X198698901Y-97904233D01*
X198698901Y-97904233D02*
X198651282Y-97808995D01*
X198651282Y-97808995D02*
X198651282Y-97570900D01*
X198651282Y-97570900D02*
X198698901Y-97428043D01*
X198651282Y-97094709D02*
X199651282Y-96856614D01*
X199651282Y-96856614D02*
X198936996Y-96666138D01*
X198936996Y-96666138D02*
X199651282Y-96475662D01*
X199651282Y-96475662D02*
X198651282Y-96237567D01*
X199651282Y-95332805D02*
X199651282Y-95904233D01*
X199651282Y-95618519D02*
X198651282Y-95618519D01*
X198651282Y-95618519D02*
X198794139Y-95713757D01*
X198794139Y-95713757D02*
X198889377Y-95808995D01*
X198889377Y-95808995D02*
X198936996Y-95904233D01*
X185252428Y-89234279D02*
X185300047Y-89091422D01*
X185300047Y-89091422D02*
X185347666Y-89043803D01*
X185347666Y-89043803D02*
X185442904Y-88996184D01*
X185442904Y-88996184D02*
X185585761Y-88996184D01*
X185585761Y-88996184D02*
X185680999Y-89043803D01*
X185680999Y-89043803D02*
X185728619Y-89091422D01*
X185728619Y-89091422D02*
X185776238Y-89186660D01*
X185776238Y-89186660D02*
X185776238Y-89567612D01*
X185776238Y-89567612D02*
X184776238Y-89567612D01*
X184776238Y-89567612D02*
X184776238Y-89234279D01*
X184776238Y-89234279D02*
X184823857Y-89139041D01*
X184823857Y-89139041D02*
X184871476Y-89091422D01*
X184871476Y-89091422D02*
X184966714Y-89043803D01*
X184966714Y-89043803D02*
X185061952Y-89043803D01*
X185061952Y-89043803D02*
X185157190Y-89091422D01*
X185157190Y-89091422D02*
X185204809Y-89139041D01*
X185204809Y-89139041D02*
X185252428Y-89234279D01*
X185252428Y-89234279D02*
X185252428Y-89567612D01*
X184776238Y-88710469D02*
X184776238Y-88139041D01*
X185776238Y-88424755D02*
X184776238Y-88424755D01*
X185776238Y-87281898D02*
X185776238Y-87853326D01*
X185776238Y-87567612D02*
X184776238Y-87567612D01*
X184776238Y-87567612D02*
X184919095Y-87662850D01*
X184919095Y-87662850D02*
X185014333Y-87758088D01*
X185014333Y-87758088D02*
X185061952Y-87853326D01*
X142288141Y-135077463D02*
X141288141Y-135077463D01*
X141288141Y-135077463D02*
X141288141Y-134839368D01*
X141288141Y-134839368D02*
X141335760Y-134696511D01*
X141335760Y-134696511D02*
X141430998Y-134601273D01*
X141430998Y-134601273D02*
X141526236Y-134553654D01*
X141526236Y-134553654D02*
X141716712Y-134506035D01*
X141716712Y-134506035D02*
X141859569Y-134506035D01*
X141859569Y-134506035D02*
X142050045Y-134553654D01*
X142050045Y-134553654D02*
X142145283Y-134601273D01*
X142145283Y-134601273D02*
X142240522Y-134696511D01*
X142240522Y-134696511D02*
X142288141Y-134839368D01*
X142288141Y-134839368D02*
X142288141Y-135077463D01*
X141288141Y-133601273D02*
X141288141Y-134077463D01*
X141288141Y-134077463D02*
X141764331Y-134125082D01*
X141764331Y-134125082D02*
X141716712Y-134077463D01*
X141716712Y-134077463D02*
X141669093Y-133982225D01*
X141669093Y-133982225D02*
X141669093Y-133744130D01*
X141669093Y-133744130D02*
X141716712Y-133648892D01*
X141716712Y-133648892D02*
X141764331Y-133601273D01*
X141764331Y-133601273D02*
X141859569Y-133553654D01*
X141859569Y-133553654D02*
X142097664Y-133553654D01*
X142097664Y-133553654D02*
X142192902Y-133601273D01*
X142192902Y-133601273D02*
X142240522Y-133648892D01*
X142240522Y-133648892D02*
X142288141Y-133744130D01*
X142288141Y-133744130D02*
X142288141Y-133982225D01*
X142288141Y-133982225D02*
X142240522Y-134077463D01*
X142240522Y-134077463D02*
X142192902Y-134125082D01*
X169862520Y-125356500D02*
X170576805Y-125356500D01*
X170576805Y-125356500D02*
X170719662Y-125404119D01*
X170719662Y-125404119D02*
X170814901Y-125499357D01*
X170814901Y-125499357D02*
X170862520Y-125642214D01*
X170862520Y-125642214D02*
X170862520Y-125737452D01*
X170862520Y-124356500D02*
X170862520Y-124927928D01*
X170862520Y-124642214D02*
X169862520Y-124642214D01*
X169862520Y-124642214D02*
X170005377Y-124737452D01*
X170005377Y-124737452D02*
X170100615Y-124832690D01*
X170100615Y-124832690D02*
X170148234Y-124927928D01*
X195333333Y-122859580D02*
X195285714Y-122907200D01*
X195285714Y-122907200D02*
X195142857Y-122954819D01*
X195142857Y-122954819D02*
X195047619Y-122954819D01*
X195047619Y-122954819D02*
X194904762Y-122907200D01*
X194904762Y-122907200D02*
X194809524Y-122811961D01*
X194809524Y-122811961D02*
X194761905Y-122716723D01*
X194761905Y-122716723D02*
X194714286Y-122526247D01*
X194714286Y-122526247D02*
X194714286Y-122383390D01*
X194714286Y-122383390D02*
X194761905Y-122192914D01*
X194761905Y-122192914D02*
X194809524Y-122097676D01*
X194809524Y-122097676D02*
X194904762Y-122002438D01*
X194904762Y-122002438D02*
X195047619Y-121954819D01*
X195047619Y-121954819D02*
X195142857Y-121954819D01*
X195142857Y-121954819D02*
X195285714Y-122002438D01*
X195285714Y-122002438D02*
X195333333Y-122050057D01*
X195666667Y-121954819D02*
X196285714Y-121954819D01*
X196285714Y-121954819D02*
X195952381Y-122335771D01*
X195952381Y-122335771D02*
X196095238Y-122335771D01*
X196095238Y-122335771D02*
X196190476Y-122383390D01*
X196190476Y-122383390D02*
X196238095Y-122431009D01*
X196238095Y-122431009D02*
X196285714Y-122526247D01*
X196285714Y-122526247D02*
X196285714Y-122764342D01*
X196285714Y-122764342D02*
X196238095Y-122859580D01*
X196238095Y-122859580D02*
X196190476Y-122907200D01*
X196190476Y-122907200D02*
X196095238Y-122954819D01*
X196095238Y-122954819D02*
X195809524Y-122954819D01*
X195809524Y-122954819D02*
X195714286Y-122907200D01*
X195714286Y-122907200D02*
X195666667Y-122859580D01*
X161363662Y-139716265D02*
X160363662Y-139716265D01*
X160363662Y-139716265D02*
X160363662Y-139478170D01*
X160363662Y-139478170D02*
X160411281Y-139335313D01*
X160411281Y-139335313D02*
X160506519Y-139240075D01*
X160506519Y-139240075D02*
X160601757Y-139192456D01*
X160601757Y-139192456D02*
X160792233Y-139144837D01*
X160792233Y-139144837D02*
X160935090Y-139144837D01*
X160935090Y-139144837D02*
X161125566Y-139192456D01*
X161125566Y-139192456D02*
X161220804Y-139240075D01*
X161220804Y-139240075D02*
X161316043Y-139335313D01*
X161316043Y-139335313D02*
X161363662Y-139478170D01*
X161363662Y-139478170D02*
X161363662Y-139716265D01*
X160363662Y-138287694D02*
X160363662Y-138478170D01*
X160363662Y-138478170D02*
X160411281Y-138573408D01*
X160411281Y-138573408D02*
X160458900Y-138621027D01*
X160458900Y-138621027D02*
X160601757Y-138716265D01*
X160601757Y-138716265D02*
X160792233Y-138763884D01*
X160792233Y-138763884D02*
X161173185Y-138763884D01*
X161173185Y-138763884D02*
X161268423Y-138716265D01*
X161268423Y-138716265D02*
X161316043Y-138668646D01*
X161316043Y-138668646D02*
X161363662Y-138573408D01*
X161363662Y-138573408D02*
X161363662Y-138382932D01*
X161363662Y-138382932D02*
X161316043Y-138287694D01*
X161316043Y-138287694D02*
X161268423Y-138240075D01*
X161268423Y-138240075D02*
X161173185Y-138192456D01*
X161173185Y-138192456D02*
X160935090Y-138192456D01*
X160935090Y-138192456D02*
X160839852Y-138240075D01*
X160839852Y-138240075D02*
X160792233Y-138287694D01*
X160792233Y-138287694D02*
X160744614Y-138382932D01*
X160744614Y-138382932D02*
X160744614Y-138573408D01*
X160744614Y-138573408D02*
X160792233Y-138668646D01*
X160792233Y-138668646D02*
X160839852Y-138716265D01*
X160839852Y-138716265D02*
X160935090Y-138763884D01*
X121669864Y-138296613D02*
X121717484Y-138344232D01*
X121717484Y-138344232D02*
X121765103Y-138487089D01*
X121765103Y-138487089D02*
X121765103Y-138582327D01*
X121765103Y-138582327D02*
X121717484Y-138725184D01*
X121717484Y-138725184D02*
X121622245Y-138820422D01*
X121622245Y-138820422D02*
X121527007Y-138868041D01*
X121527007Y-138868041D02*
X121336531Y-138915660D01*
X121336531Y-138915660D02*
X121193674Y-138915660D01*
X121193674Y-138915660D02*
X121003198Y-138868041D01*
X121003198Y-138868041D02*
X120907960Y-138820422D01*
X120907960Y-138820422D02*
X120812722Y-138725184D01*
X120812722Y-138725184D02*
X120765103Y-138582327D01*
X120765103Y-138582327D02*
X120765103Y-138487089D01*
X120765103Y-138487089D02*
X120812722Y-138344232D01*
X120812722Y-138344232D02*
X120860341Y-138296613D01*
X121765103Y-137344232D02*
X121765103Y-137915660D01*
X121765103Y-137629946D02*
X120765103Y-137629946D01*
X120765103Y-137629946D02*
X120907960Y-137725184D01*
X120907960Y-137725184D02*
X121003198Y-137820422D01*
X121003198Y-137820422D02*
X121050817Y-137915660D01*
X193326674Y-144674372D02*
X192850483Y-145007705D01*
X193326674Y-145245800D02*
X192326674Y-145245800D01*
X192326674Y-145245800D02*
X192326674Y-144864848D01*
X192326674Y-144864848D02*
X192374293Y-144769610D01*
X192374293Y-144769610D02*
X192421912Y-144721991D01*
X192421912Y-144721991D02*
X192517150Y-144674372D01*
X192517150Y-144674372D02*
X192660007Y-144674372D01*
X192660007Y-144674372D02*
X192755245Y-144721991D01*
X192755245Y-144721991D02*
X192802864Y-144769610D01*
X192802864Y-144769610D02*
X192850483Y-144864848D01*
X192850483Y-144864848D02*
X192850483Y-145245800D01*
X192326674Y-144341038D02*
X192326674Y-143721991D01*
X192326674Y-143721991D02*
X192707626Y-144055324D01*
X192707626Y-144055324D02*
X192707626Y-143912467D01*
X192707626Y-143912467D02*
X192755245Y-143817229D01*
X192755245Y-143817229D02*
X192802864Y-143769610D01*
X192802864Y-143769610D02*
X192898102Y-143721991D01*
X192898102Y-143721991D02*
X193136197Y-143721991D01*
X193136197Y-143721991D02*
X193231435Y-143769610D01*
X193231435Y-143769610D02*
X193279055Y-143817229D01*
X193279055Y-143817229D02*
X193326674Y-143912467D01*
X193326674Y-143912467D02*
X193326674Y-144198181D01*
X193326674Y-144198181D02*
X193279055Y-144293419D01*
X193279055Y-144293419D02*
X193231435Y-144341038D01*
%TO.C,MIC2*%
D13*
X185898600Y-145153300D02*
X185898600Y-149496700D01*
X185898600Y-149496700D02*
X187198235Y-149496700D01*
X187198235Y-145153300D02*
X185898600Y-145153300D01*
X187951765Y-149496700D02*
X189251400Y-149496700D01*
X189251400Y-145153300D02*
X187951765Y-145153300D01*
X189251400Y-149496700D02*
X189251400Y-145153300D01*
X186043200Y-146650000D02*
G75*
G02*
X185789200Y-146650000I-127000J0D01*
G01*
X185789200Y-146650000D02*
G75*
G02*
X186043200Y-146650000I127000J0D01*
G01*
%TO.C,R1*%
D14*
X188339479Y-121965366D02*
X188339479Y-122439882D01*
X189384479Y-121965366D02*
X189384479Y-122439882D01*
%TO.C,D4*%
X142783601Y-142073524D02*
X145083601Y-142073524D01*
X142783601Y-144973524D02*
X142783601Y-142073524D01*
X142783601Y-144973524D02*
X143083601Y-145273524D01*
X145083601Y-145273524D02*
X143083601Y-145273524D01*
X145083601Y-145273524D02*
X145083601Y-142073524D01*
%TO.C,C6*%
X157004646Y-120695424D02*
X157285806Y-120695424D01*
X157004646Y-121715424D02*
X157285806Y-121715424D01*
%TO.C,MIC1*%
D13*
X163398600Y-145003300D02*
X163398600Y-149346700D01*
X163398600Y-149346700D02*
X164698235Y-149346700D01*
X164698235Y-145003300D02*
X163398600Y-145003300D01*
X165451765Y-149346700D02*
X166751400Y-149346700D01*
X166751400Y-145003300D02*
X165451765Y-145003300D01*
X166751400Y-149346700D02*
X166751400Y-145003300D01*
X163543200Y-146500000D02*
G75*
G02*
X163289200Y-146500000I-127000J0D01*
G01*
X163289200Y-146500000D02*
G75*
G02*
X163543200Y-146500000I127000J0D01*
G01*
%TO.C,C4*%
D14*
X164087726Y-143437779D02*
X164087726Y-143156619D01*
X165107726Y-143437779D02*
X165107726Y-143156619D01*
%TO.C,D3*%
X123708843Y-137378171D02*
X126008843Y-137378171D01*
X123708843Y-140278171D02*
X123708843Y-137378171D01*
X123708843Y-140278171D02*
X124008843Y-140578171D01*
X126008843Y-140578171D02*
X124008843Y-140578171D01*
X126008843Y-140578171D02*
X126008843Y-137378171D01*
%TO.C,SW2*%
X127343843Y-131993171D02*
X141313843Y-131993171D01*
X127343843Y-145963171D02*
X127343843Y-131993171D01*
X141313843Y-131993171D02*
X141313843Y-145963171D01*
X141313843Y-145963171D02*
X127343843Y-145963171D01*
%TO.C,C2*%
X170113642Y-126031555D02*
X170113642Y-126312715D01*
X171133642Y-126031555D02*
X171133642Y-126312715D01*
%TO.C,J2*%
X190196206Y-118987368D02*
X190196206Y-105167368D01*
X192896206Y-105167368D02*
X190196206Y-105167368D01*
X192896206Y-118987368D02*
X190196206Y-118987368D01*
X201196206Y-105167368D02*
X195416206Y-105167368D01*
X201196206Y-118987368D02*
X195416206Y-118987368D01*
X204116206Y-105167368D02*
X203716206Y-105167368D01*
X204116206Y-105167368D02*
X204116206Y-118987368D01*
X204116206Y-106577368D02*
X205116206Y-106577368D01*
X204116206Y-117577368D02*
X205116206Y-117577368D01*
X204116206Y-118987368D02*
X203716206Y-118987368D01*
X204316206Y-111177368D02*
X204316206Y-112977368D01*
X204316206Y-112977368D02*
X204416206Y-114277368D01*
X204416206Y-109877368D02*
X204316206Y-111177368D01*
X204416206Y-114277368D02*
X204616206Y-115777368D01*
X204516206Y-109077368D02*
X204416206Y-109877368D01*
X204616206Y-115777368D02*
X204916206Y-117077368D01*
X204816206Y-107377368D02*
X204516206Y-109077368D01*
X204916206Y-117077368D02*
X205016206Y-117577368D01*
X205016206Y-106577368D02*
X204816206Y-107377368D01*
X205616206Y-107077368D02*
X205616206Y-117077368D01*
X205116206Y-106577368D02*
G75*
G02*
X205616206Y-107077368I-1J-500001D01*
G01*
X205616206Y-117077368D02*
G75*
G02*
X205116206Y-117577368I-500000J0D01*
G01*
%TO.C,R5*%
X153937742Y-120682579D02*
X154412258Y-120682579D01*
X153937742Y-121727579D02*
X154412258Y-121727579D01*
%TO.C,C9*%
X190836235Y-148418369D02*
X191117395Y-148418369D01*
X190836235Y-149438369D02*
X191117395Y-149438369D01*
%TO.C,U3*%
D15*
X183542000Y-126405000D02*
X183542000Y-140375000D01*
X185447000Y-124500000D02*
X202592000Y-124500000D01*
X185447000Y-142280000D02*
X202592000Y-142280000D01*
D16*
X204497000Y-128895000D02*
X205507272Y-128898728D01*
D15*
X204497000Y-140375000D02*
X204497000Y-126405000D01*
D16*
X205507000Y-137894000D02*
X204497000Y-137894000D01*
X206007000Y-129398728D02*
X206007000Y-137394000D01*
D15*
X183542000Y-126405000D02*
G75*
G02*
X185447000Y-124500000I1905000J0D01*
G01*
X185447000Y-142280000D02*
G75*
G02*
X183542000Y-140375000I0J1905000D01*
G01*
X202596000Y-124500000D02*
G75*
G02*
X204501000Y-126405000I-1J-1905001D01*
G01*
X204497000Y-140375000D02*
G75*
G02*
X202592000Y-142280000I-1905000J0D01*
G01*
D16*
X205507272Y-128898728D02*
G75*
G02*
X206007002Y-129398728I-292J-500022D01*
G01*
X206007000Y-137394000D02*
G75*
G02*
X205507000Y-137894000I-500000J0D01*
G01*
D17*
X203610000Y-125507000D02*
G75*
G02*
X203106000Y-125507000I-252000J0D01*
G01*
X203106000Y-125507000D02*
G75*
G02*
X203610000Y-125507000I252000J0D01*
G01*
X204333000Y-124290000D02*
G75*
G02*
X203829000Y-124290000I-252000J0D01*
G01*
X203829000Y-124290000D02*
G75*
G02*
X204333000Y-124290000I252000J0D01*
G01*
%TO.C,SW3*%
D14*
X146423843Y-131993171D02*
X160393843Y-131993171D01*
X146423843Y-145963171D02*
X146423843Y-131993171D01*
X160393843Y-131993171D02*
X160393843Y-145963171D01*
X160393843Y-145963171D02*
X146423843Y-145963171D01*
%TO.C,C5*%
X197653808Y-143460328D02*
X197934968Y-143460328D01*
X197653808Y-144480328D02*
X197934968Y-144480328D01*
%TO.C,R4*%
X124313052Y-134876227D02*
X124313052Y-135350743D01*
X125358052Y-134876227D02*
X125358052Y-135350743D01*
%TO.C,R2*%
X185786064Y-121936995D02*
X185786064Y-122411511D01*
X186831064Y-121936995D02*
X186831064Y-122411511D01*
%TO.C,SW1*%
X201276463Y-95266139D02*
X201276463Y-95066139D01*
X201276463Y-98266139D02*
X201276463Y-96566139D01*
X202326463Y-100116139D02*
X203116463Y-100116139D01*
X203116463Y-93216139D02*
X202326463Y-93216139D01*
X204126463Y-98066139D02*
X205416463Y-98066139D01*
X204126463Y-99516139D02*
X204126463Y-93816139D01*
X205416463Y-96766139D02*
X204126463Y-96766139D01*
X205416463Y-96766139D02*
X205626463Y-96966139D01*
X205416463Y-98066139D02*
X205626463Y-97866139D01*
X205626463Y-97866139D02*
X205626463Y-96966139D01*
%TO.C,BT1*%
X186261419Y-86733565D02*
X186261419Y-90163565D01*
X189081419Y-85463565D02*
X190531419Y-85463565D01*
X189081419Y-91433565D02*
X190531419Y-91433565D01*
X190531419Y-85463565D02*
X190531419Y-87263565D01*
X190531419Y-87263565D02*
X191521419Y-87263565D01*
X190531419Y-91433565D02*
X190531419Y-89633565D01*
%TO.C,D5*%
X142683322Y-132739369D02*
X144983322Y-132739369D01*
X142683322Y-135639369D02*
X142683322Y-132739369D01*
X142683322Y-135639369D02*
X142983322Y-135939369D01*
X144983322Y-135939369D02*
X142983322Y-135939369D01*
X144983322Y-135939369D02*
X144983322Y-132739369D01*
%TO.C,J1*%
X118387701Y-122373167D02*
X118387701Y-127673167D01*
X166757701Y-122373167D02*
X118387701Y-122373167D01*
X166757701Y-122373167D02*
X166757701Y-125023167D01*
X166757701Y-125023167D02*
X169407701Y-125023167D01*
X168027701Y-122373167D02*
X169407701Y-122373167D01*
X169407701Y-122373167D02*
X169407701Y-123753167D01*
X169407701Y-125023167D02*
X169407701Y-127673167D01*
X169407701Y-127673167D02*
X118387701Y-127673167D01*
%TO.C,C3*%
X194859420Y-120490000D02*
X195140580Y-120490000D01*
X194859420Y-121510000D02*
X195140580Y-121510000D01*
%TO.C,D6*%
X161758843Y-137378171D02*
X164058843Y-137378171D01*
X161758843Y-140278171D02*
X161758843Y-137378171D01*
X161758843Y-140278171D02*
X162058843Y-140578171D01*
X164058843Y-140578171D02*
X162058843Y-140578171D01*
X164058843Y-140578171D02*
X164058843Y-137378171D01*
%TO.C,C1*%
X122230284Y-138270527D02*
X122230284Y-137989367D01*
X123250284Y-138270527D02*
X123250284Y-137989367D01*
%TO.C,R3*%
X190919355Y-144270448D02*
X190919355Y-144744964D01*
X191964355Y-144270448D02*
X191964355Y-144744964D01*
%TD*%
M02*
