%TF.GenerationSoftware,KiCad,Pcbnew,10.0.4*%
%TF.CreationDate,2026-08-21T09:53:59-05:00*%
%TF.ProjectId,TheTomeOfBoundlessKnowlage,54686554-6f6d-4654-9f66-426f756e646c,rev?*%
%TF.SameCoordinates,Original*%
%TF.FileFunction,Copper,L2,Bot*%
%TF.FilePolarity,Positive*%
%FSLAX46Y46*%
G04 Gerber Fmt 4.6, Leading zero omitted, Abs format (unit mm)*
G04 Created by KiCad (PCBNEW 10.0.4) date 2026-08-21 09:53:59*
%MOMM*%
%LPD*%
G01*
G04 APERTURE LIST*
%TA.AperFunction,ComponentPad*%
%ADD10C,2.200000*%
%TD*%
%TA.AperFunction,ComponentPad*%
%ADD11R,1.700000X1.700000*%
%TD*%
%TA.AperFunction,ComponentPad*%
%ADD12C,1.700000*%
%TD*%
%TA.AperFunction,ViaPad*%
%ADD13C,0.600000*%
%TD*%
%TA.AperFunction,Conductor*%
%ADD14C,0.300000*%
%TD*%
G04 APERTURE END LIST*
D10*
%TO.P,SW2,1,1_1*%
%TO.N,GND*%
X136868843Y-133898171D03*
%TO.P,SW2,2,2_2*%
%TO.N,Net-(U3-D0)*%
X130518843Y-136438171D03*
%TD*%
%TO.P,SW3,1,1_1*%
%TO.N,GND*%
X155948843Y-133898171D03*
%TO.P,SW3,2,2_2*%
%TO.N,Net-(U3-D3)*%
X149598843Y-136438171D03*
%TD*%
D11*
%TO.P,J1,1,Pin_1_1*%
%TO.N,/3.3V*%
X168027701Y-123753167D03*
D12*
%TO.P,J1,2,Pin_2_2*%
%TO.N,unconnected-(J1-Pin_2-Pad2)*%
X168027701Y-126293167D03*
%TO.P,J1,3,Pin_3_3*%
%TO.N,unconnected-(J1-Pin_3-Pad3)*%
X165487701Y-123753167D03*
%TO.P,J1,4,Pin_4_4*%
%TO.N,unconnected-(J1-Pin_4-Pad4)*%
X165487701Y-126293167D03*
%TO.P,J1,5,Pin_5_5*%
%TO.N,unconnected-(J1-Pin_5-Pad5)*%
X162947701Y-123753167D03*
%TO.P,J1,6,Pin_6_6*%
%TO.N,GND*%
X162947701Y-126293167D03*
%TO.P,J1,7,Pin_7_7*%
%TO.N,unconnected-(J1-Pin_7-Pad7)*%
X160407701Y-123753167D03*
%TO.P,J1,8,Pin_8_8*%
%TO.N,unconnected-(J1-Pin_8-Pad8)*%
X160407701Y-126293167D03*
%TO.P,J1,9,Pin_9_9*%
%TO.N,unconnected-(J1-Pin_9-Pad9)*%
X157867701Y-123753167D03*
%TO.P,J1,10,Pin_10_10*%
%TO.N,unconnected-(J1-Pin_10-Pad10)*%
X157867701Y-126293167D03*
%TO.P,J1,11,Pin_11_11*%
%TO.N,Net-(J1-Pin_11)*%
X155327701Y-123753167D03*
%TO.P,J1,12,Pin_12_12*%
%TO.N,/3.3V*%
X155327701Y-126293167D03*
%TO.P,J1,13,Pin_13_13*%
%TO.N,unconnected-(J1-Pin_13-Pad13)*%
X152787701Y-123753167D03*
%TO.P,J1,14,Pin_14_14*%
%TO.N,unconnected-(J1-Pin_14-Pad14)*%
X152787701Y-126293167D03*
%TO.P,J1,15,Pin_15_15*%
%TO.N,unconnected-(J1-Pin_15-Pad15)*%
X150247701Y-123753167D03*
%TO.P,J1,16,Pin_16_16*%
%TO.N,unconnected-(J1-Pin_16-Pad16)*%
X150247701Y-126293167D03*
%TO.P,J1,17,Pin_17_17*%
%TO.N,unconnected-(J1-Pin_17-Pad17)*%
X147707701Y-123753167D03*
%TO.P,J1,18,Pin_18_18*%
%TO.N,unconnected-(J1-Pin_18-Pad18)*%
X147707701Y-126293167D03*
%TO.P,J1,19,Pin_19_19*%
%TO.N,/MOSI*%
X145167701Y-123753167D03*
%TO.P,J1,20,Pin_20_20*%
%TO.N,unconnected-(J1-Pin_20-Pad20)*%
X145167701Y-126293167D03*
%TO.P,J1,21,Pin_21_21*%
%TO.N,unconnected-(J1-Pin_21-Pad21)*%
X142627701Y-123753167D03*
%TO.P,J1,22,Pin_22_22*%
%TO.N,/EPD_DC*%
X142627701Y-126293167D03*
%TO.P,J1,23,Pin_23_23*%
%TO.N,/SCK*%
X140087701Y-123753167D03*
%TO.P,J1,24,Pin_24_24*%
%TO.N,/EPD_CS*%
X140087701Y-126293167D03*
%TO.P,J1,25,Pin_25_25*%
%TO.N,unconnected-(J1-Pin_25-Pad25)*%
X137547701Y-123753167D03*
%TO.P,J1,26,Pin_26_26*%
%TO.N,unconnected-(J1-Pin_26-Pad26)*%
X137547701Y-126293167D03*
%TO.P,J1,27,Pin_27_27*%
%TO.N,unconnected-(J1-Pin_27-Pad27)*%
X135007701Y-123753167D03*
%TO.P,J1,28,Pin_28_28*%
%TO.N,unconnected-(J1-Pin_28-Pad28)*%
X135007701Y-126293167D03*
%TO.P,J1,29,Pin_29_29*%
%TO.N,unconnected-(J1-Pin_29-Pad29)*%
X132467701Y-123753167D03*
%TO.P,J1,30,Pin_30_30*%
%TO.N,unconnected-(J1-Pin_30-Pad30)*%
X132467701Y-126293167D03*
%TO.P,J1,31,Pin_31_31*%
%TO.N,unconnected-(J1-Pin_31-Pad31)*%
X129927701Y-123753167D03*
%TO.P,J1,32,Pin_32_32*%
%TO.N,unconnected-(J1-Pin_32-Pad32)*%
X129927701Y-126293167D03*
%TO.P,J1,33,Pin_33_33*%
%TO.N,unconnected-(J1-Pin_33-Pad33)*%
X127387701Y-123753167D03*
%TO.P,J1,34,Pin_34_34*%
%TO.N,unconnected-(J1-Pin_34-Pad34)*%
X127387701Y-126293167D03*
%TO.P,J1,35,Pin_35_35*%
%TO.N,unconnected-(J1-Pin_35-Pad35)*%
X124847701Y-123753167D03*
%TO.P,J1,36,Pin_36_36*%
%TO.N,unconnected-(J1-Pin_36-Pad36)*%
X124847701Y-126293167D03*
%TO.P,J1,37,Pin_37_37*%
%TO.N,unconnected-(J1-Pin_37-Pad37)*%
X122307701Y-123753167D03*
%TO.P,J1,38,Pin_38_38*%
%TO.N,unconnected-(J1-Pin_38-Pad38)*%
X122307701Y-126293167D03*
%TO.P,J1,39,Pin_39_39*%
%TO.N,unconnected-(J1-Pin_39-Pad39)*%
X119767701Y-123753167D03*
%TO.P,J1,40,Pin_40_40*%
%TO.N,unconnected-(J1-Pin_40-Pad40)*%
X119767701Y-126293167D03*
%TD*%
D13*
%TO.N,/3.3V*%
X128500000Y-146500000D03*
X130000000Y-145500000D03*
X147150000Y-143000000D03*
X192500000Y-128000000D03*
X196500000Y-118000000D03*
X164650000Y-146500000D03*
X189500000Y-149700000D03*
X187150000Y-148000000D03*
X142302918Y-141197081D03*
X164500000Y-144500000D03*
X189350000Y-120500000D03*
X141500000Y-136000000D03*
X192850000Y-122500000D03*
X185500000Y-148000000D03*
X141000000Y-142758524D03*
X196000000Y-119602368D03*
%TO.N,/BCLK*%
X165500000Y-147850000D03*
X188034620Y-147965380D03*
X197500000Y-127500000D03*
%TO.N,/DOUT*%
X189539338Y-139634107D03*
X188000000Y-146650000D03*
X165500000Y-146500000D03*
%TO.N,GND*%
X192500000Y-119000000D03*
X191000000Y-148000000D03*
X194500000Y-122000000D03*
X146500000Y-140728171D03*
X189500000Y-147500000D03*
X160000000Y-129800000D03*
X146500000Y-142028171D03*
X195500000Y-127500000D03*
X184500000Y-121999253D03*
%TO.N,Net-(D4-DOUT)*%
X145290380Y-141709620D03*
X145595534Y-138904466D03*
%TO.N,Net-(U3-D0)*%
X192850000Y-114000000D03*
X201000000Y-123000000D03*
X165000000Y-130500000D03*
X187350000Y-118000000D03*
X173000000Y-123000000D03*
X194150000Y-113500000D03*
%TO.N,/MOSI*%
X169500000Y-128143167D03*
X191843759Y-123460000D03*
X191699997Y-128000000D03*
%TO.N,/SCK*%
X188000000Y-127500000D03*
X188000000Y-120500000D03*
X153418145Y-122192464D03*
%TO.N,/MISO*%
X200956204Y-118302368D03*
X200000000Y-137500000D03*
X201500000Y-120177370D03*
X192207880Y-139292120D03*
%TO.N,Net-(U3-D1)*%
X194500000Y-112500000D03*
X201500000Y-128000000D03*
X152000000Y-121500000D03*
X192709620Y-112709620D03*
%TO.N,Net-(U3-D3)*%
X168889790Y-129610210D03*
X171273642Y-132000000D03*
X191000000Y-127500000D03*
X187000000Y-128500000D03*
%TO.N,/EPD_CS*%
X171518232Y-127597135D03*
X168000000Y-129150000D03*
%TO.N,/EPD_DC*%
X185500000Y-139500000D03*
X168848820Y-128650000D03*
%TO.N,Net-(SW1-C)*%
X199650921Y-94849079D03*
X193500000Y-128000000D03*
%TO.N,Net-(D5-DOUT)*%
X144444084Y-134404370D03*
X161059243Y-135559243D03*
%TD*%
%TO.N,/3.3V*%
D14*
X187150000Y-148000000D02*
X185500000Y-148000000D01*
X164500000Y-144500000D02*
X164500000Y-146350000D01*
X190850000Y-120500000D02*
X192850000Y-122500000D01*
X164500000Y-146350000D02*
X164650000Y-146500000D01*
X142302918Y-141197081D02*
X142302918Y-140802918D01*
X192500000Y-122850000D02*
X192850000Y-122500000D01*
X189500000Y-149700000D02*
X188850000Y-149700000D01*
X147150000Y-143000000D02*
X141241476Y-143000000D01*
X141241476Y-143000000D02*
X141000000Y-142758524D01*
X129000000Y-146500000D02*
X130000000Y-145500000D01*
X128500000Y-146500000D02*
X129000000Y-146500000D01*
X142302918Y-140802918D02*
X141500000Y-140000000D01*
X196000000Y-118500000D02*
X196500000Y-118000000D01*
X188850000Y-149700000D02*
X187150000Y-148000000D01*
X141500000Y-140000000D02*
X141500000Y-136000000D01*
X192500000Y-128000000D02*
X192500000Y-122850000D01*
X196000000Y-119602368D02*
X196000000Y-118500000D01*
X189350000Y-120500000D02*
X190850000Y-120500000D01*
%TO.N,/BCLK*%
X197500000Y-127500000D02*
X196000000Y-129000000D01*
X188034620Y-147965380D02*
X187419240Y-147350000D01*
X192000000Y-129000000D02*
X191500000Y-129500000D01*
X187419240Y-147350000D02*
X166000000Y-147350000D01*
X166000000Y-147350000D02*
X165500000Y-147850000D01*
X191500000Y-144500000D02*
X188034620Y-147965380D01*
X191500000Y-129500000D02*
X191500000Y-144500000D01*
X196000000Y-129000000D02*
X192000000Y-129000000D01*
%TO.N,/DOUT*%
X189539338Y-139634107D02*
X189539338Y-145110662D01*
X188000000Y-146650000D02*
X165650000Y-146650000D01*
X189539338Y-145110662D02*
X188000000Y-146650000D01*
X165650000Y-146650000D02*
X165500000Y-146500000D01*
%TO.N,GND*%
X194500000Y-126500000D02*
X194500000Y-122000000D01*
X191000000Y-148000000D02*
X190000000Y-148000000D01*
X160000000Y-129800000D02*
X160000000Y-129240868D01*
X192452368Y-118952368D02*
X192500000Y-119000000D01*
X184500000Y-121999253D02*
X187546885Y-118952368D01*
X146500000Y-142028171D02*
X146500000Y-140728171D01*
X190000000Y-148000000D02*
X189500000Y-147500000D01*
X195500000Y-127500000D02*
X194500000Y-126500000D01*
X160000000Y-129240868D02*
X162947701Y-126293167D01*
X187546885Y-118952368D02*
X192452368Y-118952368D01*
%TO.N,Net-(D4-DOUT)*%
X145290380Y-139209620D02*
X145595534Y-138904466D01*
X145290380Y-141709620D02*
X145290380Y-139209620D01*
%TO.N,Net-(U3-D0)*%
X167530644Y-125093167D02*
X170906833Y-125093167D01*
X197000000Y-116350000D02*
X194150000Y-113500000D01*
X166827701Y-128672299D02*
X166827701Y-125796110D01*
X188850000Y-118000000D02*
X192850000Y-114000000D01*
X170906833Y-125093167D02*
X173000000Y-123000000D01*
X201000000Y-120596609D02*
X201000000Y-123000000D01*
X187350000Y-118000000D02*
X188850000Y-118000000D01*
X166827701Y-125796110D02*
X167530644Y-125093167D01*
X165000000Y-130500000D02*
X166827701Y-128672299D01*
X197000000Y-116596609D02*
X197000000Y-116350000D01*
X197000000Y-116596609D02*
X201000000Y-120596609D01*
%TO.N,/MOSI*%
X169500000Y-128143167D02*
X169643167Y-128143167D01*
X184199997Y-135500000D02*
X191699997Y-128000000D01*
X169643167Y-128143167D02*
X177000000Y-135500000D01*
X191843759Y-123460000D02*
X191843759Y-127856238D01*
X191843759Y-127856238D02*
X191699997Y-128000000D01*
X177000000Y-135500000D02*
X184199997Y-135500000D01*
%TO.N,/SCK*%
X183773972Y-122192464D02*
X184230761Y-122649253D01*
X184230761Y-122649253D02*
X185850747Y-122649253D01*
X153418145Y-122192464D02*
X183773972Y-122192464D01*
X188000000Y-120500000D02*
X188000000Y-127500000D01*
X185850747Y-122649253D02*
X188000000Y-120500000D01*
%TO.N,/MISO*%
X200956204Y-118302368D02*
X200956204Y-119633574D01*
X194000000Y-137500000D02*
X200000000Y-137500000D01*
X200956204Y-119633574D02*
X201500000Y-120177370D01*
X192207880Y-139292120D02*
X194000000Y-137500000D01*
%TO.N,Net-(U3-D1)*%
X197878840Y-112500000D02*
X202150000Y-116771160D01*
X202150000Y-127350000D02*
X201500000Y-128000000D01*
X194500000Y-112500000D02*
X197878840Y-112500000D01*
X182000000Y-121500000D02*
X190790380Y-112709620D01*
X202150000Y-116771160D02*
X202150000Y-127350000D01*
X152000000Y-121500000D02*
X182000000Y-121500000D01*
X190790380Y-112709620D02*
X192709620Y-112709620D01*
%TO.N,Net-(U3-D3)*%
X190000000Y-128500000D02*
X191000000Y-127500000D01*
X168889790Y-129610210D02*
X171273642Y-131994062D01*
X187000000Y-128500000D02*
X190000000Y-128500000D01*
X171273642Y-131994062D02*
X171273642Y-132000000D01*
%TO.N,/EPD_CS*%
X171414264Y-127493167D02*
X171518232Y-127597135D01*
X169006833Y-127493167D02*
X171414264Y-127493167D01*
X168000000Y-128500000D02*
X169006833Y-127493167D01*
X168000000Y-129150000D02*
X168000000Y-128500000D01*
%TO.N,/EPD_DC*%
X168848820Y-128650000D02*
X176198820Y-136000000D01*
X176198820Y-136000000D02*
X182000000Y-136000000D01*
X182000000Y-136000000D02*
X185500000Y-139500000D01*
%TO.N,Net-(SW1-C)*%
X199650921Y-94849079D02*
X193500000Y-101000000D01*
X193500000Y-101000000D02*
X193500000Y-128000000D01*
%TO.N,Net-(D5-DOUT)*%
X154404432Y-134404370D02*
X155559305Y-135559243D01*
X155559305Y-135559243D02*
X161059243Y-135559243D01*
X144444084Y-134404370D02*
X154404432Y-134404370D01*
%TD*%
M02*
