M48
; DRILL file KiCad 10.0.4 date 2026-08-21T09:54:01
; FORMAT={-:-/ absolute / metric / decimal}
; #@! TF.CreationDate,2026-08-21T09:54:01-05:00
; #@! TF.GenerationSoftware,Kicad,Pcbnew,10.0.4
; #@! TF.FileFunction,Plated,1,2,PTH
FMAT,2
METRIC
; #@! TA.AperFunction,Plated,PTH,ViaDrill
T1C0.300
; #@! TA.AperFunction,Plated,PTH,ComponentDrill
T2C1.000
; #@! TA.AperFunction,Plated,PTH,ComponentDrill
T3C1.500
%
G90
G05
T1
X128.5Y-146.5
X130.0Y-145.5
X141.0Y-142.759
X141.5Y-136.0
X142.303Y-141.197
X144.444Y-134.404
X145.29Y-141.71
X145.596Y-138.904
X146.5Y-140.728
X146.5Y-142.028
X147.15Y-143.0
X152.0Y-121.5
X153.418Y-122.192
X160.0Y-129.8
X161.059Y-135.559
X164.5Y-144.5
X164.65Y-146.5
X165.0Y-130.5
X165.5Y-146.5
X165.5Y-147.85
X168.0Y-129.15
X168.849Y-128.65
X168.89Y-129.61
X169.5Y-128.143
X171.274Y-132.0
X171.518Y-127.597
X173.0Y-123.0
X184.5Y-121.999
X185.5Y-139.5
X185.5Y-148.0
X187.0Y-128.5
X187.15Y-148.0
X187.35Y-118.0
X188.0Y-120.5
X188.0Y-127.5
X188.0Y-146.65
X188.035Y-147.965
X189.35Y-120.5
X189.5Y-147.5
X189.5Y-149.7
X189.539Y-139.634
X191.0Y-127.5
X191.0Y-148.0
X191.7Y-128.0
X191.844Y-123.46
X192.208Y-139.292
X192.5Y-119.0
X192.5Y-128.0
X192.71Y-112.71
X192.85Y-114.0
X192.85Y-122.5
X193.5Y-128.0
X194.15Y-113.5
X194.5Y-112.5
X194.5Y-122.0
X195.5Y-127.5
X196.0Y-119.602
X196.5Y-118.0
X197.5Y-127.5
X199.651Y-94.849
X200.0Y-137.5
X200.956Y-118.302
X201.0Y-123.0
X201.5Y-120.177
X201.5Y-128.0
T2
X119.768Y-123.753
X119.768Y-126.293
X122.308Y-123.753
X122.308Y-126.293
X124.848Y-123.753
X124.848Y-126.293
X127.388Y-123.753
X127.388Y-126.293
X129.928Y-123.753
X129.928Y-126.293
X132.468Y-123.753
X132.468Y-126.293
X135.008Y-123.753
X135.008Y-126.293
X137.548Y-123.753
X137.548Y-126.293
X140.088Y-123.753
X140.088Y-126.293
X142.628Y-123.753
X142.628Y-126.293
X145.168Y-123.753
X145.168Y-126.293
X147.708Y-123.753
X147.708Y-126.293
X150.248Y-123.753
X150.248Y-126.293
X152.788Y-123.753
X152.788Y-126.293
X155.328Y-123.753
X155.328Y-126.293
X157.868Y-123.753
X157.868Y-126.293
X160.408Y-123.753
X160.408Y-126.293
X162.948Y-123.753
X162.948Y-126.293
X165.488Y-123.753
X165.488Y-126.293
X168.028Y-123.753
X168.028Y-126.293
T3
X130.519Y-136.438
X136.869Y-133.898
X149.599Y-136.438
X155.949Y-133.898
M30
